<?xml version="1.0" encoding="utf-8"?>
<!-- Generator: Adobe Illustrator 24.1.2, SVG Export Plug-In . SVG Version: 6.00 Build 0)  -->
<svg version="1.1" id="Capa_1" xmlns="http://www.w3.org/2000/svg" xmlns:xlink="http://www.w3.org/1999/xlink" x="0px" y="0px"
	 viewBox="0 0 500 500" style="enable-background:new 0 0 500 500;" xml:space="preserve">
<style type="text/css">
	.st0{fill:#256D7B;}
	.st1{opacity:0.3;fill:#00A99D;enable-background:new    ;}
	.st2{opacity:0.27;enable-background:new    ;}
	.st3{fill:#F4D295;}
	.st4{opacity:0.11;enable-background:new    ;}
	.st5{fill:#333333;}
	.st6{fill:#B28440;}
	.st7{fill:#FFFFFF;stroke:#009245;stroke-width:4;stroke-miterlimit:10;}
	.st8{fill:#009245;}
	.st9{fill:#019CDE;}
	.st10{fill:#C19B21;}
	.st11{fill:#FFFFFF;stroke:#009245;stroke-miterlimit:10;}
	.st12{fill:none;stroke:#009245;stroke-miterlimit:10;}
	.st13{fill:#E6E6E6;}
	.st14{fill:#FFFFFF;}
	.st15{fill:#FDC4A5;}
	.st16{opacity:0.1;enable-background:new    ;}
	
		.st17{opacity:0.19;fill:none;stroke:#000000;stroke-width:2;stroke-linecap:round;stroke-miterlimit:10;enable-background:new    ;}
	.st18{fill:#E0E0E0;}
	.st19{display:none;}
	.st20{display:inline;fill:#C48D20;}
	.st21{display:inline;fill:#FFFFFF;stroke:#00A260;stroke-width:4;stroke-miterlimit:10;}
	.st22{display:inline;fill:none;}
	.st23{display:inline;}
	.st24{fill:#00A260;}
	.st25{display:inline;fill:#019CDE;}
	.st26{display:inline;fill:#C19B21;}
	.st27{fill:#FFFFFF;stroke:#00A260;stroke-miterlimit:10;}
	.st28{fill:none;stroke:#00A260;stroke-miterlimit:10;}
</style>
<g id="BACKGROUND">
	<rect y="-1.1" class="st0" width="500" height="500"/>
</g>
<g id="OBJECTS">
	<rect y="345" class="st1" width="500" height="155"/>
	<ellipse class="st2" cx="250.3" cy="433.3" rx="132" ry="15.3"/>
	<g>
		<polygon class="st3" points="364.9,235.6 359.5,235.6 359.5,432.3 140.5,432.3 140.5,235.6 135.1,235.6 151.4,185.4 348.6,185.4 
					"/>
		<path class="st4" d="M140.5,285.2h126.2c33.9,0,61.7,34.9,62.5,78.7l1.3,69.4l29.1-1V242.1H140.5V285.2z"/>
		<path class="st5" d="M290.8,212.9h-81.6c-1.5,0-2.7-1.2-2.7-2.7l0,0c0-1.5,1.2-2.7,2.7-2.7h81.6c1.5,0,2.7,1.2,2.7,2.7l0,0
			C293.5,211.7,292.3,212.9,290.8,212.9z"/>
		<rect x="135.1" y="235.6" class="st6" width="229.7" height="26.6"/>
		<g id="logo_1_">
			<circle class="st7" cx="247.2" cy="346" r="66.4"/>
			<g>
				<g>
					<g>
						<path class="st8" d="M197,340.9c-0.1-0.4-0.1-1.4,0.1-2.7c0.8-3.8,3.5-5,6.3-4.4c3.6,0.8,4.9,3.8,4.3,6.8
							c-0.2,1.2-0.7,2.1-1,2.5l-2-1c0.3-0.4,0.6-1,0.8-1.8c0.3-1.6-0.3-3.1-2.4-3.6c-1.9-0.4-3.2,0.5-3.6,2.4
							c-0.1,0.7-0.2,1.4-0.1,1.9L197,340.9z"/>
					</g>
					<g>
						<path class="st8" d="M202,353.1c-3.4,0.1-5.5-1.9-5.6-5.1s2.3-5.1,5.2-5.1c3-0.1,5.5,1.9,5.6,5.1
							C207.3,351.3,204.8,353,202,353.1z M201.7,345.8c-2,0-3.2,0.9-3.1,2.3c0,1.4,1.4,2.1,3.2,2.1s3.1-0.9,3.1-2.2
							C204.9,346.6,203.7,345.7,201.7,345.8z"/>
					</g>
					<g>
						<path class="st8" d="M200,355.7c-0.1,0.7-0.2,1.8,0.1,2.8c0.2,0.9,0.7,1.3,1.2,1.2c0.5-0.1,0.7-0.7,0.7-1.9
							c0.2-1.9,0.8-3.2,2.3-3.6c1.8-0.5,3.6,0.7,4.2,3.2c0.3,1.2,0.3,2.1,0.2,2.9h-2.3c0.1-0.5,0.2-1.3-0.1-2.3
							c-0.2-0.8-0.6-1.2-1.1-1.1s-0.6,0.7-0.7,2.1c-0.2,2-1,3.1-2.4,3.4c-1.8,0.5-3.6-0.5-4.4-3.5c-0.3-1.2-0.3-2.5-0.2-3.1
							L200,355.7z"/>
					</g>
					<g>
						<path class="st8" d="M207.7,372.2c1-0.6,2.2-1.3,3.6-2.1l0,0c-1.4,0.4-2.9,0.8-4.1,1l-3.7,0.9l-1.1-1.9l2.7-2.5
							c0.8-0.8,2-1.8,3.2-2.7l0,0c-1.3,0.7-2.7,1.4-3.8,1.9l-3.3,1.7l-1.3-2.2l9.4-4.6l1.8,3.3l-2.1,2c-0.9,0.8-1.9,1.8-2.9,2.6l0,0
							c1.3-0.4,2.7-0.8,3.8-1.1l2.8-0.7l1.8,3.2l-8.9,5.6l-1.3-2.4L207.7,372.2z"/>
					</g>
					<g>
						<path class="st8" d="M219,382.3c-2.3,2.4-5.3,2.5-7.6,0.3c-2.3-2.3-1.9-5.2,0.1-7.3c2.1-2.2,5.2-2.5,7.5-0.3
							C221.4,377.3,220.9,380.3,219,382.3z M213.6,377.3c-1.4,1.4-1.6,2.9-0.6,3.8c1,1,2.5,0.6,3.8-0.8c1.3-1.3,1.6-2.8,0.7-3.8
							C216.5,375.6,215,375.9,213.6,377.3z"/>
					</g>
					<g>
						<path class="st8" d="M217.9,388l5.1-9.1l2.9,1.6l-0.1,3.6c0,1.2-0.2,2.7-0.4,4l0,0c0.5-1.3,1.2-2.6,2-3.9l1.2-2.2l2.2,1.3
							l-5.1,9.1l-2.6-1.5l0.2-3.9c0-1.3,0.1-2.8,0.3-4.2l0,0c-0.6,1.3-1.4,2.7-2.2,4.1l-1.3,2.2L217.9,388z"/>
					</g>
					<g>
						<path class="st8" d="M234.5,384.8c0.8,0,2,0.2,3.4,0.5c1.6,0.3,2.6,0.8,3.3,1.5c0.6,0.6,0.8,1.4,0.5,2.4
							c-0.3,1.3-1.4,2-2.3,2.1v0.1c0.6,0.4,0.9,1.2,0.9,2.1c0.1,1.1,0.1,2.7,0.2,3.1l-2.8-0.6c-0.1-0.3-0.2-1.2-0.2-2.5
							s-0.3-1.6-1.2-1.8l-0.4-0.1l-0.8,3.8l-2.7-0.6L234.5,384.8z M236.3,389.6l0.7,0.1c1,0.2,1.7-0.2,1.9-0.9
							c0.2-0.8-0.3-1.3-1.2-1.5c-0.5-0.1-0.8-0.1-0.9-0.1L236.3,389.6z"/>
					</g>
					<g>
						<path class="st8" d="M242.7,395.1c0-1,0.7-1.6,1.7-1.6c0.9,0,1.6,0.7,1.5,1.7c0,1-0.7,1.6-1.7,1.6
							C243.3,396.7,242.7,396,242.7,395.1z"/>
					</g>
					<g>
						<path class="st8" d="M247.2,386.3l2.8-0.3l0.8,8.1l4-0.4l0.2,2.3l-6.8,0.7L247.2,386.3z"/>
					</g>
					<g>
						<path class="st8" d="M256.7,394.1c-0.2-0.9,0.2-1.7,1.1-2c0.9-0.2,1.7,0.2,1.9,1.2c0.2,0.9-0.2,1.7-1.1,2
							C257.8,395.5,257,395,256.7,394.1z"/>
					</g>
				</g>
			</g>
			<path class="st9" d="M288.3,369c0,6.5-5,11.8-11.1,11.8s-11.1-5.3-11.1-11.8c0-12.4,11.1-24.5,11.1-24.5S288.3,356.5,288.3,369z"
				/>
			<path class="st10" d="M278.8,334.1l-0.7,0.1l1.7,8.9c0.2,0.8-0.4,1.6-1.2,1.7l-3.7,0.7c-0.8,0.2-1.6-0.4-1.7-1.2l-1.7-8.9
				l-1.4,0.3c-1.4,0.3-2.7-0.6-3-2l-0.7-3.4c-0.1-0.3,0.2-0.7,0.5-0.7l2.2-0.4c-1.3-2.3-3-3.2-5.2-3.7l0,0c-0.4,0-0.8,0-1.2,0.1
				c-1.7,0.4-3.3,1-5.2,1.4c-1.9,0.5-3.9,0.7-4.6,0.7c0,0-9.8-0.7-15.1-0.5s-8.5,0.9-8.5,0.9c-0.4,0-0.7,0.1-1.1,0.3l-1.3,0.7
				c-0.4,0.1-0.8-0.2-0.8-0.5v-0.3l-6.8-0.6v-13.5l6.8-0.6v-0.3c0-0.4,0.4-0.6,0.8-0.5c1,0.6,2.1,0.9,3.2,1c0,0,5.5,0.9,7.9,0.9
				s7.7-0.5,7.7-0.5l2.4-0.3v-5.2c0-0.6,0.5-1.1,1.1-1.1h0.1v-2.1h0.8V304h1.9v-7.9c-2.5,0.3-4,1.2-6.1,1.2c-1.8,0-3.2-1.2-3.2-2.8
				c0-1.6,1.4-2.8,3.2-2.8c2.1,0,4.6,1.2,8,1.2s5.7-1.2,7.8-1.2c2.2,0,3.2,1.2,3.2,2.8c0,1.5-1.5,2.8-3.2,2.8
				c-2.5,0-3.7-0.8-6.1-1.2v7.9h1.9v1.5h0.8v2.1h0.1c0.6,0,1.1,0.5,1.1,1.1v3.6c0,0.6,0.1,1,0.6,1.6c0.7,0.9,3,1.1,4,1.5
				c0.6,0.2,1,0.4,1.5,0.7c0,0,0,0,0.1,0c6.8,3.4,9.7,6.8,11.3,11.9l2.4-0.5c0.3-0.1,0.7,0.2,0.7,0.5l0.7,3.4
				C281.1,332.5,280.2,333.9,278.8,334.1z"/>
			<g>
				<circle class="st11" cx="277.2" cy="369.4" r="8.7"/>
				<line class="st12" x1="281.1" y1="367.6" x2="281.1" y2="377.3"/>
				<polygon class="st8" points="281.1,364.1 282.9,367.8 284.6,371.6 281.1,371.6 277.7,371.6 279.4,367.8 				"/>
				<line class="st12" x1="273.4" y1="367.6" x2="273.4" y2="377.3"/>
				<polygon class="st8" points="273.4,364.1 275.1,367.8 276.8,371.6 273.4,371.6 269.9,371.6 271.7,367.8 				"/>
			</g>
		</g>
	</g>
	<g id="brazo">
		<g>
			<polygon class="st13" points="238.4,215.7 290.1,185 256.1,131.5 204.3,161.8 			"/>
			<polygon class="st14" points="238.3,221.3 290.4,185.5 256.4,132 204.1,167.9 			"/>
		</g>
		<g>
			<path id="XMLID_1_" class="st15" d="M367.3,101.3l-65.9,20.2L255,105.1c-4.1-1.9-8.8-1.2-12.2,1.7L227,120.4
				c-2.6,2.3-4.7,5.2-5.9,8.5l-8,21.5c-0.9,2.4,0.4,5,2.8,5.8l0,0c2,0.6,4.2-0.3,5.2-2.1l13.2-24.4l10-6.9c1.2-0.8,2.6,0.7,1.7,1.8
				l-3.4,4.1c-2.4,3-3.5,6.8-3,10.7l0.7,5.3c0.6,4.4,3,8.3,6.6,10.8l6.4,4.4c2.6,1.8,6,1.7,8.5-0.2l2.3-1.8l2.5,0.9
				c1.2,0.4,2.4,0.6,3.6,0.6c2.6-0.1,4.1-2.8,2.7-5l-2.7-4.2c-1.8-2.8-2.3-6.2-1.5-9.4l0,0c0.3-1,1.5-1.3,2.2-0.5l4,4.4
				c7.3,8,19.6,4.5,30.3,2.9l0,0c1.1-0.2,2.2-0.3,3.4-0.3l77.5-4.1L367.3,101.3z"/>
			<path class="st16" d="M379.3,127.9l-3.5-7.7l-36.2-10.4l-13.3,4.1c2.6,10.8-2.1,22.2-11.2,25.7c-7.6,2.9-21.1,7.1-29.8,9.8
				c6.3,0.7,13.5-1,20.1-2c1.1-0.2,2.2-0.3,3.4-0.3l63.6-3.4L379.3,127.9z"/>
			<path class="st17" d="M264.2,128.6c-3.4,4.1-8.6,9.3-7.5,16.1c1.1,6.7,3.9,9.1,6.8,12.4"/>
			<path class="st17" d="M251.1,127.5c-2.4,4.3-5.2,8.6-4.2,14.6s7.1,15,10.8,18"/>
			<path id="XMLID_4_" class="st18" d="M353.9,103.6l7.6-8.7c5.9-6.8,13.9-11.5,22.6-13.5L500,54.8V121l-101.4,31.5
				c-8.2,2.6-17,2.9-25.4,1.1l-7.8-1.7L353.9,103.6z"/>
			<path class="st16" d="M500,93.8c-26.4,10.8-94.4,39.5-108.3,40.2c-10.4,0.5-22.7,0.6-30.4,0.7l4.1,17.2l7.8,1.7
				c8.4,1.9,17.2,1.5,25.4-1.1L500,121V93.8z"/>
			<path id="XMLID_2_" class="st8" d="M330.7,110.7c2.5,3.3,5.7,9.7,8,18.8s1.1,22.3,1.1,22.3h25.7c0,0,2.9-13.1-1.7-29.7
				c-2.9-10.7-9.7-18.5-9.7-18.5L330.7,110.7z"/>
			<path class="st16" d="M365.5,151.8c0,0,1.5-6.9,0.6-17l-26.3,1.4c0.7,7.8,0.1,15.6,0.1,15.6H365.5z"/>
		</g>
	</g>
	<rect x="201.4" y="212.9" class="st3" width="92.1" height="22.1"/>
</g>
<g id="cosmon">
	<g class="st19">
		<path class="st20" d="M133.4,87.8c0,1.2-1.1,2.1-2.4,2.1c-2.3,0-3.2-1-6-1s-4.1,1-6,1c-1.3,0-2.4-1-2.4-2.1c0-1.2,1.1-2.1,2.4-2.1
			c1.6,0,3.5,0.9,6.1,0.9s4.3-0.9,5.9-0.9S133.4,86.7,133.4,87.8z"/>
		<rect x="123.6" y="87.3" class="st20" width="2.8" height="8.3"/>
		<rect x="122.2" y="95.1" class="st20" width="5.7" height="2"/>
		<rect x="121.5" y="96.2" class="st20" width="6.9" height="2"/>
		<path class="st20" d="M137.6,108.8c0,0.3-0.2,0.9-0.4,1.5c-0.5,1.4-2.1,2-3.5,1.5c-0.6-0.2-1.2-0.3-1.9-0.1
			c-1.3,0.3-2.5,0.7-4,1.1c-1.4,0.4-3,0.5-3.5,0.5c0,0-7.4-0.5-11.5-0.4s-6.4,0.7-6.4,0.7c-0.3,0-0.5,0.1-0.8,0.2l-1,0.5
			c-0.3,0-0.6-0.1-0.6-0.4v-11.7c0-0.3,0.3-0.4,0.6-0.4c0.8,0.4,1.6,0.7,2.5,0.7c0,0,4.1,0.7,6,0.7s5.9-0.4,5.9-0.4l4.6-0.7l6-1.9
			c0.1,1.2-0.2,1.6,0.4,2.3c0.6,0.7,2.3,0.9,3,1.1c1.8,0.6,2.5,1.5,3.6,2.9C137.2,107.7,137.7,107.6,137.6,108.8z"/>
		<path class="st20" d="M143.8,126.4l-2.8,0.5c-0.6,0.1-1.2-0.3-1.3-0.9l-1.6-8.1c-0.1-0.6,0.3-1.2,0.9-1.3l2.8-0.5
			c0.6-0.1,1.2,0.3,1.3,0.9l1.6,8.1C144.8,125.7,144.4,126.3,143.8,126.4z"/>
		<path class="st20" d="M134.9,114.8l9.5-1.9c0.3-0.1,0.5,0.1,0.6,0.4l0.5,2.6c0.2,1.1-0.5,2.1-1.5,2.3l-6.6,1.3
			c-1.1,0.2-2.1-0.5-2.3-1.5l-0.5-2.6C134.4,115.1,134.6,114.9,134.9,114.8z"/>
		<path class="st20" d="M137.2,115.8c-1.3-3.2-2.9-3.9-5.5-4.3l2.1-7.3c6.5,3.1,8.4,6.3,9.4,11.9L137.2,115.8z"/>
		<path class="st20" d="M128.5,105.3h-7.1c-0.5,0-0.9-0.4-0.9-0.9v-5.8c0-0.5,0.4-0.9,0.9-0.9h7.1c0.5,0,0.9,0.4,0.9,0.9v5.8
			C129.4,104.9,129,105.3,128.5,105.3z"/>
		<polygon class="st20" points="104.7,113.8 98.7,113.3 98.7,103 104.7,102.5 		"/>
	</g>
	<g id="logo" class="st19">
		<circle class="st21" cx="142.4" cy="136.7" r="82.3"/>
		<path class="st22" d="M126.1,77.3c20.9-5.7,44.3-0.2,60.5,16.5c11.8,12.2,17.6,28,17.4,43.8"/>
		<g class="st23">
			<g>
				<path class="st24" d="M81.4,129.1c-0.1-0.5-0.2-1.8,0.1-3.3c1-4.8,4.4-6.2,7.8-5.5c4.5,0.9,6.1,4.7,5.3,8.5
					c-0.3,1.5-0.8,2.6-1.2,3.1l-2.5-1.2c0.3-0.5,0.7-1.2,0.9-2.3c0.4-2-0.4-3.9-3-4.4c-2.3-0.5-4,0.6-4.5,2.9
					c-0.2,0.8-0.2,1.8-0.1,2.3L81.4,129.1z"/>
				<path class="st24" d="M87.7,144.9c-4.2,0.1-6.9-2.3-7-6.3s2.8-6.3,6.4-6.4c3.8-0.1,6.9,2.2,7,6.2
					C94.2,142.6,91.2,144.8,87.7,144.9z M87.3,135.9c-2.4,0.1-3.9,1.2-3.8,2.9s1.7,2.6,4,2.5c2.2-0.1,3.9-1.1,3.8-2.8
					C91.3,136.8,89.7,135.8,87.3,135.9z"/>
				<path class="st24" d="M85.3,148.2c-0.2,0.9-0.2,2.2,0.1,3.5c0.3,1.1,0.9,1.6,1.5,1.4c0.6-0.2,0.8-0.8,0.9-2.4
					c0.2-2.3,1-4,2.8-4.5c2.2-0.6,4.4,0.8,5.3,4c0.4,1.5,0.4,2.6,0.3,3.6h-2.9c0.1-0.6,0.2-1.6-0.1-2.9c-0.3-1-0.8-1.5-1.4-1.3
					s-0.7,0.9-0.9,2.6c-0.2,2.5-1.1,3.8-2.9,4.3c-2.2,0.6-4.5-0.6-5.4-4.2c-0.4-1.5-0.4-3.1-0.2-3.9L85.3,148.2z"/>
				<path class="st24" d="M95,168.5c1.3-0.8,2.7-1.7,4.5-2.7l0,0c-1.7,0.5-3.6,1-5.1,1.4l-4.6,1.1l-1.4-2.4l3.4-3.2
					c1-1,2.5-2.3,3.9-3.4l0,0c-1.6,0.9-3.3,1.8-4.6,2.4l-4.1,2.1l-1.6-2.8l11.6-5.8l2.3,4l-2.6,2.5c-1.1,1-2.4,2.2-3.6,3.2v0.1
					c1.6-0.5,3.4-1,4.7-1.4l3.5-0.9l2.3,4l-10.9,7l-1.7-2.9L95,168.5z"/>
				<path class="st24" d="M109.2,180.9c-2.9,3-6.5,3.2-9.4,0.5c-2.9-2.8-2.4-6.5,0.1-9.1c2.6-2.7,6.5-3.2,9.3-0.5
					C112.2,174.7,111.6,178.4,109.2,180.9z M102.5,174.8c-1.7,1.8-1.9,3.6-0.7,4.7c1.2,1.2,3.1,0.7,4.7-1c1.5-1.6,2-3.5,0.8-4.7
					C106,172.6,104.1,173,102.5,174.8z"/>
				<path class="st24" d="M107.9,188l6.2-11.4l3.6,2l-0.1,4.5c0,1.5-0.2,3.4-0.4,5l0,0c0.7-1.6,1.5-3.2,2.4-4.9l1.5-2.7l2.8,1.5
					l-6.2,11.4l-3.2-1.8l0.1-4.8c0-1.6,0.1-3.5,0.3-5.2h-0.1c-0.8,1.6-1.7,3.3-2.7,5.2l-1.5,2.8L107.9,188z"/>
				<path class="st24" d="M128.4,183.7c1,0,2.5,0.2,4.2,0.5c2,0.4,3.3,0.9,4.1,1.8c0.7,0.8,1,1.8,0.7,3c-0.3,1.6-1.7,2.5-2.8,2.7
					v0.1c0.8,0.5,1.1,1.4,1.2,2.6c0.1,1.4,0.2,3.3,0.3,3.8l-3.5-0.7c-0.1-0.4-0.3-1.5-0.3-3.1s-0.5-2-1.5-2.2l-0.6-0.1l-0.9,4.8
					l-3.4-0.7L128.4,183.7z M130.8,189.7l0.9,0.2c1.3,0.2,2.1-0.2,2.3-1.2s-0.3-1.6-1.5-1.8c-0.6-0.1-1-0.2-1.2-0.1L130.8,189.7z"/>
				<path class="st24" d="M138.8,196.4c0-1.2,0.9-2,2-2c1.2,0,1.9,0.9,1.9,2.1c0,1.2-0.9,2-2,2C139.6,198.4,138.8,197.6,138.8,196.4
					z"/>
				<path class="st24" d="M144.2,185.4l3.5-0.4l1.2,10l5-0.6l0.3,2.9l-8.4,1L144.2,185.4z"/>
				<path class="st24" d="M156.2,194.9c-0.3-1.1,0.3-2.2,1.4-2.5c1.1-0.3,2.1,0.3,2.4,1.4c0.3,1.1-0.2,2.2-1.4,2.5
					C157.5,196.7,156.5,196.1,156.2,194.9z"/>
			</g>
		</g>
		<path class="st25" d="M193.4,165.2c0,8.1-6.2,14.7-13.8,14.7s-13.8-6.6-13.8-14.7c0-15.4,13.8-30.3,13.8-30.3
			S193.4,149.8,193.4,165.2z"/>
		<path class="st26" d="M181.6,122l-0.9,0.2l2.2,11c0.2,1-0.5,2-1.5,2.2l-4.6,0.9c-1,0.2-2-0.5-2.2-1.5l-2.2-11l-1.7,0.3
			c-1.7,0.3-3.4-0.8-3.7-2.5l-0.8-4.2c-0.1-0.4,0.2-0.8,0.6-0.9l2.7-0.5c-1.7-2.9-3.7-4-6.4-4.6l0,0c-0.5,0-0.9,0-1.5,0.2
			c-2.1,0.4-4.1,1.2-6.5,1.8c-2.3,0.6-4.8,0.8-5.7,0.8c0,0-12.1-0.9-18.8-0.7c-6.6,0.2-10.5,1.2-10.5,1.2c-0.5,0-0.9,0.2-1.3,0.4
			l-1.6,0.8c-0.5,0.1-1-0.2-1-0.7v-0.4l-8.4-0.7V97.2l8.4-0.7V96c0-0.4,0.4-0.7,1-0.7c1.2,0.7,2.6,1.1,4,1.2c0,0,6.8,1.2,9.7,1.2
			c3,0,9.6-0.7,9.6-0.7l3-0.4v-6.5c0-0.8,0.6-1.4,1.4-1.4h0.1v-2.6h1v-1.8h2.4v-9.9c-3.1,0.4-5,1.5-7.6,1.5c-2.2,0-3.9-1.5-3.9-3.5
			c0-1.9,1.8-3.5,3.9-3.5c2.6,0,5.7,1.5,10,1.5s7-1.5,9.7-1.5s4,1.5,4,3.4s-1.9,3.4-4,3.4c-3.1,0-4.6-1-7.6-1.4v9.8h2.4v1.8h1v2.6
			h0.1c0.8,0,1.4,0.6,1.4,1.4v4.5c0,0.7,0.1,1.2,0.7,1.9c0.9,1.1,3.8,1.4,4.9,1.8c0.7,0.2,1.3,0.5,1.8,0.8c0,0,0,0,0.1,0
			c8.5,4.2,12.1,8.4,14,14.8l3-0.6c0.4-0.1,0.8,0.2,0.9,0.6l0.8,4.2C184.4,120,183.3,121.7,181.6,122z"/>
		<g class="st23">
			<circle class="st27" cx="179.6" cy="165.8" r="10.8"/>
			<line class="st28" x1="184.5" y1="163.5" x2="184.5" y2="175.6"/>
			<polygon class="st24" points="184.5,159.1 186.6,163.8 188.8,168.4 184.5,168.4 180.2,168.4 182.3,163.8 			"/>
			<line class="st28" x1="174.9" y1="163.5" x2="174.9" y2="175.6"/>
			<polygon class="st24" points="174.9,159.1 177,163.8 179.2,168.4 174.9,168.4 170.6,168.4 172.7,163.8 			"/>
		</g>
	</g>
</g>
</svg>
