<svg width="500" height="457" viewBox="0 0 500 457" fill="none" xmlns="http://www.w3.org/2000/svg">
<g id="elecciones2 1" clip-path="url(#clip0)">
<g id="elecciones 1">
<g id="mano4">
<g id="mano4_2">
<g id="Group">
<g id="Group_2">
<path id="Vector" d="M471.5 267.986C471.5 267.986 473.3 264.969 475.9 262.41C478.5 259.851 482.8 258.023 486.7 254.824C492.2 250.437 499.6 241.48 501.6 239.103C503.5 236.727 505.8 235.082 509.9 231.7C513.9 228.318 520.6 223.839 522.8 221.829C525 219.909 524.5 217.624 522.2 217.167C519.9 216.619 514.7 221.28 511.9 222.834C509 224.388 500 230.786 499.7 229.049C499.4 227.313 503.5 223.931 508.4 218.447C513.3 212.963 518.6 205.651 521.3 203C524.1 200.258 521.3 198.704 519.8 198.339C518.3 197.973 515 201.538 512.7 204.006C510.4 206.473 507.9 208.027 501.9 214.242C495.9 220.458 493.9 221.28 493.9 220.458C493.9 219.635 498 213.146 500 210.221C502 207.296 509.8 194.591 511.3 191.941C512.8 189.29 512.3 187.371 509.4 186.548C506.5 185.634 504.4 189.564 501.8 192.946C499.2 196.328 488.5 212.78 486.5 215.705C484.9 217.99 482.9 216.619 483.9 213.968C486.3 207.844 487 205.559 488.1 201.355C489.2 197.151 493 188.559 492.9 185.269C492.8 181.978 488.9 182.984 488.9 182.984C488.9 182.984 487.6 182.252 483.4 191.392C476.9 205.651 474.7 215.796 471.9 218.995C469.1 222.194 465 225.302 465 225.302L464 224.205C464 224.205 463.9 216.07 464.4 210.221C464.9 204.28 457.8 199.984 455.5 201.629C453.2 203.274 455.7 206.565 455.3 213.877C455.1 217.533 451.7 227.678 451.7 227.678C451.6 235.996 455.1 248.152 455.1 248.152L449.5 256.012L471.5 267.986Z" fill="#F2C8A2"/>
<path id="Vector_2" d="M503.1 232.979C501.1 234.532 498.1 238.188 494.7 242.21C491.4 246.232 483.5 255.189 476.3 254.549C469.1 253.909 460.1 248.517 456.6 241.936C453.1 235.355 455.3 226.672 456 220.365C456.8 214.059 455.2 208.758 455.2 208.758C455.2 208.758 455.1 208.849 455 209.032C455.1 210.403 455.2 211.957 455.2 213.785C455 217.441 451.6 227.586 451.6 227.586C451.5 235.903 455 248.06 455 248.06L454.8 248.334C453 250.984 450.2 254.732 450.2 254.732C450.2 254.732 455.8 249.065 457.4 250.802C466.3 258.662 473.5 260.673 477.2 261.221C479.8 259.21 483.3 257.474 486.6 254.823C492.1 250.436 499.5 241.479 501.5 239.102C503.4 236.726 505.7 235.081 509.8 231.699C513.8 228.317 520.5 223.839 522.7 221.828C523.8 220.822 524.2 219.817 524.1 218.994C521 223.747 505 231.425 503.1 232.979Z" fill="#E6B88F"/>
<g id="Group_3">
<path id="Vector_3" d="M463.1 214.424C463.7 214.607 463.9 216.435 464 217.898C464.1 215.43 464.2 212.505 464.4 210.037V209.946C464.3 211.043 463.8 212.871 461.8 213.419C459.6 214.059 458.2 214.333 458.2 214.333C458.2 214.333 462.1 214.15 463.1 214.424Z" fill="#E6B88F"/>
</g>
<path id="Vector_4" d="M464.9 225.118C464.9 225.118 478.5 233.71 472.5 248.517C472.5 248.517 489.3 239.468 495.7 231.882C495.7 231.882 484.1 240.839 477.9 239.468C474.8 238.828 475.4 231.608 465.4 224.844L464.9 225.118Z" fill="#E6B88F"/>
<path id="Vector_5" d="M478.6 214.973C478.6 214.973 480.9 214.973 483.8 216.344C483.4 215.887 483.3 214.973 483.7 213.876C486.1 207.752 486.8 205.467 487.9 201.263C489 197.058 492.8 188.467 492.7 185.176C492.6 183.348 491.4 182.8 490.3 182.709C490.8 183.257 491.3 184.262 490.5 186.273C489 189.746 485.3 199.435 484.5 201.994C483.7 204.462 481.3 211.865 478.6 214.973Z" fill="#E6B88F"/>
<path id="Vector_6" d="M493.7 220.365C493.9 219.634 494.3 218.994 494.6 218.355C496.2 215.521 498 212.779 499.8 210.129C501.8 207.204 509.6 194.499 511.1 191.849C512.4 189.655 512.2 187.918 510.4 186.913C510.5 187.736 510.3 189.198 509.1 190.935C507 194.042 499.8 204.462 497.4 208.483C496.9 209.306 496.4 210.129 495.9 210.86C494.8 212.596 493.7 214.242 492.6 215.887C492.1 216.527 491.6 217.258 491 217.898C490.8 218.172 490.6 218.355 490.3 218.629C490.1 218.812 489.5 218.994 489.8 219.36C489.9 219.543 490.1 219.543 490.3 219.634C491 219.908 491.5 220.274 492.1 220.64C492.4 220.822 492.8 221.097 493.2 221.097C493.3 221.097 493.4 221.097 493.5 221.005C493.5 221.005 493.6 220.914 493.6 220.822C493.6 220.64 493.7 220.548 493.7 220.365Z" fill="#E6B88F"/>
<path id="Vector_7" d="M499.7 228.226C499.9 227.769 500.3 227.22 500.4 227.129C500.8 226.581 501.3 226.032 501.7 225.484C503 224.021 504.4 222.559 505.8 221.188C506.6 220.274 507.5 219.451 508.3 218.537C513.2 213.053 518.5 205.741 521.2 203.091C523.2 201.171 522.3 199.8 521.1 199.069C521 199.8 520.6 201.354 518.7 203.274C515.8 206.198 508.9 214.607 505.3 218.172C503.8 219.634 502.3 221.188 500.6 222.559C499.5 223.473 498.2 224.478 496.7 224.753C497.5 226.215 498.4 227.495 499.5 228.683C499.5 228.5 499.6 228.409 499.7 228.226Z" fill="#E6B88F"/>
<path id="Vector_8" d="M467 225.301C467.8 225.027 470.1 224.387 471.6 224.387L467.2 224.57C467.9 222.925 469.9 221.005 469.9 221.005L464.8 225.118L467.1 226.032C467 225.849 467 225.575 467 225.301Z" fill="#E6B88F"/>
<g id="Group_4">
<path id="Vector_9" d="M488.7 195.962C488.6 195.962 488.6 195.962 488.5 195.87C486.1 194.499 483.6 194.316 483.6 194.316C483.4 194.316 483.2 194.134 483.3 193.951C483.3 193.768 483.5 193.585 483.7 193.585C483.8 193.585 486.4 193.768 489 195.23C489.2 195.322 489.2 195.505 489.1 195.687C489 195.87 488.9 195.962 488.7 195.962Z" fill="#D4A672"/>
</g>
<g id="Group_5">
<path id="Vector_10" d="M484.7 205.833L480 204.827C479.8 204.827 479.7 204.553 479.7 204.37C479.7 204.188 479.9 204.096 480.2 204.096L484.8 205.102C485 205.102 485.1 205.376 485.1 205.559C485.1 205.741 484.9 205.924 484.7 205.833Z" fill="#D4A672"/>
</g>
<g id="Group_6">
<path id="Vector_11" d="M499.1 208.94C499 208.94 499 208.94 498.9 208.94L494.5 206.747C494.3 206.655 494.3 206.473 494.4 206.29C494.5 206.107 494.7 206.107 494.9 206.198L499.3 208.392C499.5 208.483 499.5 208.666 499.4 208.849C499.4 208.94 499.2 208.94 499.1 208.94Z" fill="#D4A672"/>
</g>
<path id="Vector_12" d="M462.8 254.366C462.8 254.366 465.6 256.286 464.3 258.205C463 260.124 461.9 261.678 461.9 261.678L471.4 267.162C471.4 267.162 474.7 263.141 477.4 260.947C480.2 258.662 462.8 254.366 462.8 254.366Z" fill="#E6B88F"/>
</g>
<path id="Vector_13" d="M475.951 266.209L450.336 251.588L448.641 254.069L474.256 268.69L475.951 266.209Z" fill="white"/>
<path id="Vector_14" d="M475.968 266.216L462.821 258.711L461.126 261.192L474.273 268.696L475.968 266.216Z" fill="#E8E8E8"/>
<path id="Vector_15" d="M445.9 252.538L475.7 269.539L424.9 350.336L390.2 330.594L445.9 252.538Z" fill="#4570BF"/>
<path id="Vector_16" d="M445.9 252.538L467.6 270.27L417.9 346.04L424.9 350.336L475.7 269.539L445.9 252.538Z" fill="#375999"/>
</g>
<path id="Vector_17" d="M465.1 277.216C464.1 277.582 462.9 277.125 462.5 276.211C462.1 275.297 462.6 274.2 463.6 273.834C464.6 273.469 465.8 273.926 466.2 274.84C466.6 275.754 466.1 276.851 465.1 277.216Z" fill="#F2F2F2"/>
<g id="Group_7">
<path id="Vector_18" d="M502.3 233.527C496.5 216.709 476.5 214.333 476.3 214.333C476.1 214.333 475.9 214.424 475.9 214.607C475.9 214.79 476 214.973 476.2 214.973C476.4 214.973 495.9 217.258 501.5 233.71C501.5 233.893 501.7 233.984 501.9 233.984H502C502.2 233.893 502.3 233.71 502.3 233.527Z" fill="#D4A672"/>
<path id="Vector_19" d="M464.8 224.387C464.6 224.296 464.4 224.387 464.3 224.478C464.2 224.661 464.3 224.844 464.4 224.935C464.5 225.027 477.5 232.247 472.5 247.511C472.4 247.694 472.6 247.877 472.8 247.968H472.9C473.1 247.968 473.2 247.877 473.3 247.694C478.4 231.973 464.9 224.478 464.8 224.387Z" fill="#D4A672"/>
<path id="Vector_20" d="M483.8 234.532C483 224.844 477.8 221.188 477.6 221.097C477.4 221.005 477.2 221.005 477.1 221.188C477 221.371 477 221.554 477.2 221.645C477.2 221.645 479 222.925 480.6 225.758C480.6 226.306 480.7 232.339 478.3 238.28C478.2 238.463 478.3 238.645 478.5 238.737H478.6C478.8 238.737 478.9 238.645 479 238.554C480.7 234.075 481.2 229.597 481.3 227.22C482.1 229.14 482.8 231.516 483.1 234.624C483.7 242.027 486.3 244.952 486.4 245.135C486.5 245.226 486.6 245.226 486.7 245.226C486.8 245.226 486.9 245.226 486.9 245.135C487.1 245.043 487.1 244.769 487 244.678C486.9 244.586 484.4 241.662 483.8 234.532Z" fill="#D4A672"/>
<path id="Vector_21" d="M474.1 260.947C472.8 260.947 471.4 260.764 469.9 260.216C469.6 260.124 469.5 259.85 469.6 259.667C469.7 259.393 470 259.302 470.2 259.393C476.7 261.495 481.7 257.474 481.7 257.474C481.9 257.291 482.2 257.291 482.4 257.474C482.6 257.657 482.6 257.931 482.4 258.114C482.2 258.296 478.9 260.947 474.1 260.947Z" fill="#D4A672"/>
<path id="Vector_22" d="M459.4 215.064C459.2 215.064 459 215.064 458.8 215.064C458.6 215.064 458.4 214.881 458.5 214.699C458.5 214.516 458.7 214.333 458.9 214.424C461.7 214.607 463.2 213.419 463.2 213.419C463.4 213.328 463.6 213.328 463.7 213.419C463.8 213.602 463.8 213.785 463.7 213.876C463.6 213.967 462.1 215.064 459.4 215.064Z" fill="#D4A672"/>
</g>
</g>
</g>
<g id="mano3">
<g id="mano3_2">
<g id="Group_8">
<path id="Vector_23" d="M358.1 217.532C364.1 212.962 391 214.79 399 228.5C407 242.21 376 238.554 368.1 234.898C360.1 231.242 352.1 222.102 358.1 217.532Z" fill="#A33D3D"/>
<g id="Group_9">
<path id="Vector_24" d="M380 292.48C380.5 294.948 392 235.812 394.2 207.295C394.6 202.36 396.3 200.714 399.7 198.064C403.2 195.322 411.4 184.537 413.4 181.52C415.4 178.504 419.2 174.483 420.8 172.837C422.4 171.192 425.2 167.079 426 164.977C426.8 162.875 427.2 158.945 426.7 156.203C426.3 153.461 422.9 155.106 422.9 155.106C426 146.057 420.8 143.772 420.8 143.772C420.8 143.772 424.8 137.74 427.5 133.627C430.2 129.514 427.7 126.589 425 128.143C422.3 129.697 414.9 140.025 411.3 144.686C407.7 149.348 401 156.934 401 156.934L398.9 155.837C402 151.907 409.4 141.579 410.9 139.385C412.4 137.1 422.2 125.584 418.2 123.938C414.2 122.293 407.9 131.068 404.3 135.729C400.7 140.39 384.8 160.316 384.8 160.316L384.9 156.751C384.9 156.751 386.1 155.837 387.7 149.073C389.4 142.31 385.2 140.025 384.2 139.933C383.1 139.842 376.6 153.186 373.3 164.154C370 175.122 367.8 181.063 368.6 191.757C370 208.392 345 278.77 345 278.77" fill="#FFE2C2"/>
<path id="Vector_25" d="M427.4 127.777C427.4 128.965 427.1 131.525 424.6 134.632L422.8 137.466C421.8 137.466 420.4 137.374 419 136.552C419 136.552 421.1 137.648 422.1 138.562L420.3 141.213C420.3 141.213 418 142.95 416.6 145.235C416.1 146.057 415.5 147.063 415 148.159C414.2 148.251 412.8 148.159 411 147.154C411 147.154 413.1 148.342 414.3 149.53C413.5 150.993 412.4 152.547 410.9 154.1C407.7 157.391 406 159.676 406 159.676L407.8 161.138C407.8 161.138 408.7 162.144 410.5 159.493C412.4 156.842 416.2 152.821 416.2 152.821C416.2 152.821 415.6 146.331 421.4 143.681H421.3C421.3 143.681 425.3 137.648 428 133.535C429.5 130.611 428.8 128.326 427.4 127.777Z" fill="#F2D0A9"/>
<path id="Vector_26" d="M418.3 123.848C418.2 123.848 418.1 123.756 418 123.756C418 125.127 417.4 128.235 413.7 132.714C413.7 132.714 413.7 132.805 413.6 132.805C413.3 133.079 412.2 133.993 409.4 132.439C409.4 132.439 411.2 133.445 412.3 134.359C410.3 136.827 407.7 140.026 405.2 143.225C404.1 143.133 402.7 142.859 401 141.945C401 141.945 403.1 143.133 404.4 144.139C399.9 149.805 395.7 155.015 395.7 155.015L399.3 156.112C399.3 156.112 399.3 156.112 399.3 156.021L398.8 155.746C401.9 151.816 409.3 141.488 410.8 139.294C412.4 137.009 422.3 125.493 418.3 123.848Z" fill="#F2D0A9"/>
<path id="Vector_27" d="M422.2 144.595C421.8 144.869 421.1 145.874 420.8 148.616C420.6 150.81 420.7 153.461 419 156.934C417.1 155.837 416.4 153.735 416.4 153.735C416.4 155.837 417.5 157.299 418.4 158.122C417.1 160.498 414.9 163.24 411.5 166.531L413 170.461C413 170.461 419.5 163.972 420.6 160.59C420.6 160.59 420.8 157.939 423 154.74C425 148.982 423.5 145.966 422.2 144.595Z" fill="#F2D0A9"/>
<path id="Vector_28" d="M426.8 156.111C426.7 155.197 426.2 154.74 425.6 154.557C425.1 155.014 424.9 156.568 425 158.945C425.1 161.047 424.6 163.332 423.1 165.8C421.5 164.52 420.8 162.966 420.8 162.966C420.3 164.429 421.5 166.348 422.2 167.171C421.7 167.902 421 168.633 420.3 169.456C416.6 173.477 414 174.026 411.1 178.504C408.2 182.983 395.7 200.257 387.1 201.628C380.8 202.634 377.9 201.446 377.4 201.354C378.2 201.537 386.5 204.462 386.6 207.387C386.8 210.494 381 236.726 381 236.726L390 241.296C390 241.296 391.8 229.323 393 219.36C393.7 214.059 394.1 209.032 394.2 207.295C394.6 202.36 396.3 200.714 399.7 198.064C403.1 195.413 411.4 184.537 413.4 181.52C415.4 178.504 419.2 174.483 420.8 172.837C422.4 171.192 425.2 167.079 426 164.977C426.8 162.783 427.2 158.853 426.8 156.111Z" fill="#F2D0A9"/>
<path id="Vector_29" d="M388.6 203.913C388.4 203.913 388.2 203.731 388.1 203.548C388 203.274 388.2 203.091 388.5 202.999C388.5 202.999 392.9 202.085 396.4 199.892C396.6 199.709 396.9 199.8 397.1 199.983C397.3 200.166 397.2 200.44 397 200.623C393.3 202.908 388.9 203.822 388.7 203.822C388.7 203.913 388.6 203.913 388.6 203.913Z" fill="#DEBC95"/>
<path id="Vector_30" d="M385.1 159.95C385 161.961 384.8 165.891 383.9 169.638C383.9 169.638 391.8 176.036 389.7 185.908C389.7 185.908 398.3 184.537 404.3 178.778C404.3 178.778 398.5 182.617 394.4 180.424C390.5 178.321 386.4 167.536 385.3 159.676L385.1 159.95Z" fill="#F2D0A9"/>
<path id="Vector_31" d="M384.9 157.939V156.751C384.9 156.751 385.6 156.203 386.8 152.364C386.2 153.461 384.3 156.203 381.6 156.294C381.6 156.294 384.2 156.385 384.9 157.939Z" fill="#F2CA9D"/>
<g id="Group_10">
<path id="Vector_32" d="M423.2 165.16C423.2 165.16 420.8 164.246 421.1 160.681C421.3 158.579 422.4 156.568 423.3 155.289C423.4 155.106 423.4 154.832 423.1 154.649C422.9 154.557 422.6 154.557 422.4 154.832C421.4 156.203 420.2 158.396 420 160.681C420 160.955 420 161.23 420 161.412C419.7 161.869 415.7 167.171 412.9 169.364C412.1 166.348 410.5 163.789 408.5 161.778C409.8 160.224 411.1 158.853 412.2 157.574C413.7 155.837 415 154.557 415.7 153.461C416 154.466 416.7 155.563 417.9 156.66C418 156.751 418.1 156.751 418.2 156.751C418.3 156.751 418.5 156.66 418.6 156.568C418.8 156.385 418.8 156.111 418.6 155.928C415.7 153.369 416.5 150.993 416.6 150.901C416.6 150.81 416.6 150.81 416.6 150.719C416.8 149.987 417.1 149.073 417.5 148.068C418.2 146.514 419.5 144.046 420.8 144.229C420.9 144.229 421 144.229 421.1 144.229C421.4 144.138 421.5 143.955 421.5 143.681C421.5 143.498 421.2 143.315 421 143.315C419.4 143.041 417.9 144.503 416.6 147.702C416 149.073 415.7 150.262 415.4 151.267C415.2 151.998 415.1 152.547 414.9 152.821C414.2 153.826 412.9 155.289 411.5 156.842C410.4 158.031 409.2 159.402 407.9 160.955C401.8 155.197 393.1 153.552 393 153.552C392.7 153.461 392.5 153.643 392.4 153.918C392.3 154.192 392.5 154.375 392.8 154.466C393 154.466 411.5 157.939 412.6 172.837C412.6 173.112 412.8 173.294 413.1 173.294C413.4 173.294 413.6 173.02 413.6 172.837C413.5 171.923 413.4 171.101 413.2 170.278C415.5 168.633 418.8 164.52 420.2 162.692C420.8 165.16 422.7 165.891 422.8 165.891C422.9 165.891 422.9 165.891 423 165.891C423.2 165.891 423.4 165.8 423.5 165.617C423.6 165.525 423.5 165.251 423.2 165.16Z" fill="#DEBC95"/>
<path id="Vector_33" d="M385.3 159.859C385.3 159.584 385 159.402 384.8 159.402C384.5 159.402 384.3 159.676 384.3 159.859C384.7 165.068 383.1 169.181 383.1 169.273C383 169.456 383.1 169.638 383.2 169.73C383.3 169.821 390.6 176.859 389.2 183.897C389.2 184.171 389.3 184.354 389.6 184.445H389.7C389.9 184.445 390.1 184.262 390.2 184.08C391.6 177.133 385.4 170.552 384.2 169.273C384.4 168.359 385.6 164.52 385.3 159.859Z" fill="#DEBC95"/>
</g>
<path id="Vector_34" d="M373.2 170.827C373.6 166.348 377.2 155.014 378.3 150.81C376.5 154.923 374.6 159.767 373.3 164.154C370 175.122 367.8 181.063 368.6 191.757C368.7 192.854 368.7 193.951 368.6 195.139C368.4 201.171 366.7 208.392 365.3 213.51V213.693C365.3 213.693 368.5 204.553 369.7 201.171C370.8 197.79 374.9 199.892 374.9 199.892L374.7 199.618C376.3 200.714 377.3 201.263 377.3 201.263C367.8 194.042 372.7 176.585 373.2 170.827Z" fill="#F2D0A9"/>
</g>
<path id="Vector_35" d="M356.3 219.726C356.9 221.554 358.8 224.478 364 227.586C372.3 232.613 395.8 239.194 400.3 233.161C400.3 233.161 397 242.21 391 262.318C384 283.34 383 294.308 383 294.308L346 283.34L356.3 219.726Z" fill="#FF7A7A"/>
</g>
<path id="Vector_36" d="M394.1 209.306C392.9 209.489 392 210.403 392 211.591C392 211.682 392 211.774 392 211.865C391.3 211.957 390.6 212.048 389.9 212.139C389.9 212.048 389.9 212.048 389.9 211.957V211.865C389.8 211.682 389.8 211.591 389.7 211.408C389.7 211.408 389.7 211.408 389.7 211.317C389.5 210.951 389.1 210.677 388.8 210.494C388.4 210.311 388 210.22 387.6 210.22C386.3 210.22 385.3 211.134 385.1 212.231C384 212.139 383 212.048 382 211.957C382 211.957 382 211.957 382 211.865V211.774C381.9 211.591 381.9 211.5 381.8 211.317C381.8 211.317 381.8 211.317 381.8 211.225C381.6 210.86 381.2 210.586 380.9 210.403C380.5 210.22 380.1 210.129 379.7 210.129C378.9 210.129 378.2 210.494 377.7 211.043C376.8 210.768 375.9 210.494 375.1 210.22C375.1 210.037 375.2 209.854 375.2 209.672C375.2 209.489 375.2 209.306 375.1 209.123V209.032C375 208.849 375 208.758 374.9 208.575C374.9 208.575 374.9 208.575 374.9 208.483C374.7 208.118 374.3 207.844 374 207.661C373.6 207.478 373.2 207.387 372.8 207.387C371.9 207.387 371.2 207.752 370.7 208.392C370.1 208.118 369.6 207.844 369.1 207.569C369.2 207.387 369.2 207.112 369.2 206.93C369.2 206.747 369.2 206.564 369.1 206.381V206.29C369 206.107 369 206.016 368.9 205.833C368.9 205.833 368.9 205.833 368.9 205.741C368.7 205.376 368.3 205.102 368 204.919C367.8 204.827 367.7 204.736 367.5 204.736L366.5 209.215C366.6 209.215 366.7 209.215 366.8 209.215C367.6 209.215 368.3 208.849 368.7 208.392C369.2 208.666 369.7 208.94 370.3 209.215C370.3 209.397 370.3 209.489 370.3 209.672C370.3 210.494 370.8 211.225 371.5 211.591C371.5 211.591 371.5 211.591 371.6 211.591C371.8 211.682 371.9 211.774 372.1 211.774H372.2C372.4 211.865 372.6 211.865 372.8 211.865C373.6 211.865 374.3 211.5 374.8 210.951C375.6 211.225 376.5 211.5 377.4 211.774C377.3 211.957 377.3 212.139 377.3 212.322C377.3 213.145 377.8 213.876 378.5 214.242C378.5 214.242 378.5 214.242 378.6 214.242C378.8 214.333 378.9 214.424 379.1 214.424H379.2C379.4 214.516 379.6 214.516 379.8 214.516C381 214.516 382 213.693 382.3 212.688C383.3 212.779 384.4 212.871 385.5 212.962C385.7 213.51 386.1 213.967 386.6 214.242C386.6 214.242 386.6 214.242 386.7 214.242C386.9 214.333 387 214.424 387.2 214.424H387.3C387.5 214.516 387.7 214.516 387.9 214.516C389.1 214.516 390.1 213.785 390.3 212.779C391.1 212.688 391.9 212.596 392.7 212.414C392.9 212.779 393.2 213.053 393.6 213.236C393.6 213.236 393.6 213.236 393.7 213.236C393.8 213.328 393.9 213.328 394.1 213.419V209.306Z" fill="#F2CA9D"/>
<g id="Group_11">
<path id="Vector_37" d="M386.6 212.322C374.1 212.322 365.3 205.65 365.2 205.559L365.8 204.827C365.9 204.919 378.8 214.699 395.3 210.22L395.6 211.134C392.5 211.957 389.4 212.322 386.6 212.322Z" fill="white"/>
<g id="Group_12">
<path id="Vector_38" d="M366.5 208.392C367.881 208.392 369 207.369 369 206.107C369 204.845 367.881 203.822 366.5 203.822C365.119 203.822 364 204.845 364 206.107C364 207.369 365.119 208.392 366.5 208.392Z" fill="white"/>
<g id="Group_13">
<path id="Vector_39" d="M367.7 204.096C367.9 204.462 368 204.827 368 205.193C368 206.473 366.9 207.478 365.5 207.478C365.1 207.478 364.7 207.387 364.3 207.204C364.7 207.935 365.5 208.392 366.5 208.392C367.9 208.392 369 207.387 369 206.107C369 205.284 368.5 204.462 367.7 204.096Z" fill="#EDEDED"/>
</g>
</g>
<g id="Group_14">
<path id="Vector_40" d="M372.5 211.134C373.881 211.134 375 210.111 375 208.849C375 207.587 373.881 206.564 372.5 206.564C371.119 206.564 370 207.587 370 208.849C370 210.111 371.119 211.134 372.5 211.134Z" fill="white"/>
<g id="Group_15">
<path id="Vector_41" d="M373.7 206.838C373.9 207.204 374 207.569 374 207.935C374 209.215 372.9 210.22 371.5 210.22C371.1 210.22 370.7 210.129 370.3 209.946C370.7 210.677 371.5 211.134 372.5 211.134C373.9 211.134 375 210.129 375 208.849C375 208.026 374.5 207.204 373.7 206.838Z" fill="#EDEDED"/>
</g>
</g>
<g id="Group_16">
<path id="Vector_42" d="M379.5 213.876C380.881 213.876 382 212.853 382 211.591C382 210.329 380.881 209.306 379.5 209.306C378.119 209.306 377 210.329 377 211.591C377 212.853 378.119 213.876 379.5 213.876Z" fill="white"/>
<g id="Group_17">
<path id="Vector_43" d="M380.7 209.58C380.9 209.946 381 210.311 381 210.677C381 211.957 379.9 212.962 378.5 212.962C378.1 212.962 377.7 212.871 377.3 212.688C377.7 213.419 378.5 213.876 379.5 213.876C380.9 213.876 382 212.871 382 211.591C382 210.768 381.5 209.946 380.7 209.58Z" fill="#EDEDED"/>
</g>
</g>
<g id="Group_18">
<path id="Vector_44" d="M387.5 213.876C388.881 213.876 390 212.853 390 211.591C390 210.329 388.881 209.306 387.5 209.306C386.119 209.306 385 210.329 385 211.591C385 212.853 386.119 213.876 387.5 213.876Z" fill="white"/>
<g id="Group_19">
<path id="Vector_45" d="M388.7 209.58C388.9 209.946 389 210.311 389 210.677C389 211.957 387.9 212.962 386.5 212.962C386.1 212.962 385.7 212.871 385.3 212.688C385.7 213.419 386.5 213.876 387.5 213.876C388.9 213.876 390 212.871 390 211.591C390 210.768 389.5 209.946 388.7 209.58Z" fill="#EDEDED"/>
</g>
</g>
<g id="Group_20">
<path id="Vector_46" d="M394.5 212.962C395.881 212.962 397 211.939 397 210.677C397 209.415 395.881 208.392 394.5 208.392C393.119 208.392 392 209.415 392 210.677C392 211.939 393.119 212.962 394.5 212.962Z" fill="white"/>
<g id="Group_21">
<path id="Vector_47" d="M395.7 208.666C395.9 209.032 396 209.397 396 209.763C396 211.043 394.9 212.048 393.5 212.048C393.1 212.048 392.7 211.957 392.3 211.774C392.7 212.505 393.5 212.962 394.5 212.962C395.9 212.962 397 211.957 397 210.677C397 209.854 396.5 209.032 395.7 208.666Z" fill="#EDEDED"/>
</g>
</g>
</g>
</g>
</g>
<g id="mano2">
<g id="mano2_2">
<g id="Group_22">
<g id="Group_23">
<g id="Group_24">
<g id="Group_25">
<path id="Vector_48" d="M111.8 212.962C111.8 212.962 111 209.58 109.2 206.564C107.4 203.456 103.9 200.623 101 196.601C97 191.026 92.4 180.606 91.2 177.864C90 175.122 88.3 172.929 85.4 168.724C82.5 164.52 77.4 158.488 75.8 156.111C74.2 153.643 75.4 151.724 77.8 151.724C80.2 151.815 83.8 157.482 86.1 159.676C88.4 161.869 95.3 170.278 96.1 168.633C96.9 166.988 93.9 162.783 90.8 156.294C87.6 149.805 84.7 141.487 82.8 138.197C80.9 134.906 84.1 134.084 85.6 134.084C87.2 134.175 89.3 138.288 90.8 141.213C92.3 144.138 94.3 146.24 98.3 153.735C102.3 161.23 104 162.418 104.3 161.687C104.6 160.864 102.5 153.643 101.4 150.353C100.3 147.063 96.5 132.896 95.8 129.971C95.1 127.046 96.1 125.401 99.2 125.218C102.3 125.127 103.2 129.422 104.7 133.261C106.2 137.1 111.7 155.654 112.8 158.945C113.7 161.595 116 160.681 115.8 157.848C115.2 151.358 115.2 148.982 115.4 144.595C115.6 140.299 114.4 131.068 115.4 127.869C116.4 124.67 119.9 126.589 119.9 126.589C119.9 126.589 121.3 126.132 122.7 136.095C124.8 151.45 124 161.687 125.8 165.525C127.6 169.364 130.7 173.294 130.7 173.294L132 172.472C132 172.472 134.4 164.703 135.6 158.853C136.8 153.004 144.9 150.627 146.6 152.729C148.3 154.832 145 157.482 143.2 164.611C142.3 168.176 142.6 178.778 142.6 178.778C140.3 186.822 133.4 197.698 133.4 197.698L136.6 206.564L111.8 212.962Z" fill="#AD7B45"/>
</g>
<g id="Group_26">
<path id="Vector_49" d="M91.5 171.466C92.9 173.477 94.8 177.682 96.9 182.434C98.9 187.096 103.9 197.698 111.1 198.795C118.2 199.983 128.5 196.967 133.7 191.483C139 185.999 139.4 177.042 140.5 170.827C141.6 164.611 144.6 159.859 144.6 159.859C144.6 159.859 144.6 159.95 144.7 160.133C144.2 161.412 143.6 162.875 143.2 164.703C142.3 168.267 142.6 178.87 142.6 178.87C140.3 186.913 133.4 197.79 133.4 197.79L133.5 198.155C134.4 201.08 136.1 205.376 136.1 205.376C136.1 205.376 132.3 198.521 130.3 199.8C119.5 205.193 111.9 205.467 108.2 205.01C106.3 202.451 103.4 199.892 101 196.51C97 190.935 92.4 180.515 91.2 177.773C90 175.031 88.3 172.837 85.4 168.633C82.5 164.429 77.4 158.396 75.8 156.02C75 154.832 74.9 153.735 75.3 152.912C76.9 158.213 90.1 169.547 91.5 171.466Z" fill="#996936"/>
</g>
<g id="Group_27">
<g id="Group_28">
<path id="Vector_50" d="M135.5 163.332C134.9 163.332 134.2 165.068 133.7 166.439C134.4 164.063 135.1 161.23 135.6 158.762V158.67C135.4 159.767 135.3 161.595 137.1 162.692C139 163.789 140.3 164.429 140.3 164.429C140.3 164.429 136.6 163.332 135.5 163.332Z" fill="#AD7B45"/>
</g>
</g>
<g id="Group_29">
<path id="Vector_51" d="M120.4 160.133C120.4 160.133 118.2 159.584 114.9 160.224C115.4 159.859 115.8 159.036 115.7 157.848C115.1 151.358 115.1 148.982 115.3 144.595C115.5 140.299 114.3 131.068 115.3 127.869C115.9 126.132 117.2 125.949 118.3 126.132C117.6 126.498 116.9 127.412 117.1 129.514C117.5 133.17 118.3 143.498 118.3 146.057C118.5 148.708 118.7 156.477 120.4 160.133Z" fill="#996936"/>
</g>
<g id="Group_30">
<path id="Vector_52" d="M104.2 161.595C104.2 161.413 104.2 161.321 104.2 161.138C104.2 160.864 104.1 160.59 104.1 160.224C103.9 159.31 103.7 158.488 103.5 157.574C102.9 155.106 102.1 152.638 101.3 150.17C100.2 146.88 96.4 132.713 95.7 129.788C95.1 127.32 95.8 125.767 97.8 125.218C97.5 126.041 97.3 127.412 97.9 129.423C99 132.896 102.9 144.778 104.1 149.165C104.5 150.81 105 152.455 105.5 154.101C105.9 155.563 106.4 157.025 107 158.396C107.2 158.945 107.5 159.493 107.7 160.042C107.8 160.316 108.5 161.138 108.3 161.321C108.2 161.413 108.1 161.413 108 161.504C106.8 161.87 105.5 162.235 104.3 162.601H104.2C104.1 162.601 104.1 162.509 104.1 162.509C104 162.327 104.2 161.961 104.2 161.595Z" fill="#996936"/>
</g>
<g id="Group_31">
<path id="Vector_53" d="M96.2 167.719C96 165.708 93.5 161.778 90.8 156.203C87.6 149.713 84.7 141.396 82.8 138.105C81.5 135.729 82.7 134.632 84 134.267C83.8 134.998 83.8 136.552 85.1 138.928C87 142.493 91.3 152.272 93.7 156.568C96.2 160.864 97.9 163.789 99.8 164.886C99.8 164.886 98.3 165.617 96.8 166.896C96.4 167.353 96.2 167.719 96.2 167.719Z" fill="#996936"/>
</g>
<path id="Vector_54" d="M129.2 173.477L130.7 173.294L127 168.085C127 168.085 128.4 170.461 128.6 172.106L124.4 170.918C125.8 171.284 127.9 172.563 128.5 172.929C128.5 172.929 128.5 172.929 128.5 173.02C117.9 177.133 116.3 183.805 113.3 183.714C106.9 183.531 98.3 172.106 98.3 172.106C102.2 181.063 115.8 193.768 115.8 193.768C114.5 180.149 126 174.757 129.2 173.477Z" fill="#996936"/>
<g id="Group_32">
<path id="Vector_55" d="M116.3 139.294C116.1 139.294 116 139.202 115.9 139.019C115.8 138.837 116 138.654 116.2 138.562C119.1 137.74 121.7 138.288 121.8 138.288C122 138.288 122.1 138.471 122.1 138.654C122.1 138.837 121.9 138.928 121.7 138.928C121.7 138.928 119.2 138.471 116.5 139.202C116.3 139.294 116.3 139.294 116.3 139.294Z" fill="#805A33"/>
</g>
<g id="Group_33">
<path id="Vector_56" d="M99.4 137.557C99.2 137.557 99.1 137.466 99 137.283C98.9 137.1 99.1 136.917 99.3 136.826L103.6 135.638C103.8 135.546 104 135.729 104.1 135.912C104.2 136.095 104 136.277 103.8 136.369L99.5 137.557H99.4Z" fill="#805A33"/>
</g>
<g id="Group_34">
<path id="Vector_57" d="M122 149.987C122 149.987 121.9 149.987 122 149.987L117.3 149.805C117.1 149.805 116.9 149.622 116.9 149.439C116.9 149.256 117.1 149.073 117.3 149.073L122 149.256C122.2 149.256 122.4 149.439 122.4 149.622C122.3 149.896 122.2 149.987 122 149.987Z" fill="#805A33"/>
</g>
<g id="Group_35">
<path id="Vector_58" d="M102.5 149.348C102.3 149.348 102.2 149.256 102.1 149.073C102.1 148.891 102.2 148.708 102.4 148.616L107.3 147.52C107.5 147.52 107.7 147.611 107.8 147.794C107.8 147.977 107.7 148.159 107.5 148.251L102.5 149.348Z" fill="#805A33"/>
</g>
<g id="Group_36">
<path id="Vector_59" d="M86.4 144.138C86.3 144.138 86.1 144.046 86.1 143.955C86 143.772 86.1 143.589 86.3 143.498L89.3 142.218C89.5 142.127 89.7 142.218 89.8 142.401C89.9 142.584 89.8 142.767 89.6 142.858L86.6 144.138C86.6 144.138 86.5 144.138 86.4 144.138Z" fill="#805A33"/>
</g>
<g id="Group_37">
<path id="Vector_60" d="M92 155.746C91.9 155.746 91.7 155.654 91.7 155.563C91.6 155.38 91.7 155.197 91.8 155.106L95.6 153.095C95.8 153.004 96 153.095 96.1 153.186C96.2 153.369 96.1 153.552 96 153.643L92.2 155.654C92.2 155.746 92.1 155.746 92 155.746Z" fill="#805A33"/>
</g>
<g id="Group_38">
<path id="Vector_61" d="M80.6 160.498C80.5 160.498 80.4 160.498 80.3 160.407C80.2 160.224 80.2 160.041 80.3 159.95L82.6 158.122C82.8 158.031 83 158.031 83.1 158.122C83.2 158.305 83.2 158.488 83.1 158.579L80.8 160.407C80.7 160.498 80.7 160.498 80.6 160.498Z" fill="#805A33"/>
</g>
<g id="Group_39">
<path id="Vector_62" d="M85.3 166.348C85.2 166.348 85.1 166.348 85 166.257C84.9 166.074 84.9 165.891 85 165.8L87.3 163.972C87.5 163.88 87.7 163.88 87.8 163.972C87.9 164.154 87.9 164.337 87.8 164.429L85.5 166.257C85.5 166.348 85.4 166.348 85.3 166.348Z" fill="#805A33"/>
</g>
<g id="Group_40">
<path id="Vector_63" d="M124.1 201.994C124.1 201.994 120.8 203.091 121.5 205.284C122.2 207.478 122.8 209.215 122.8 209.215L112 212.139C112 212.139 110 207.478 108 204.645C106.1 201.811 124.1 201.994 124.1 201.994Z" fill="#996936"/>
</g>
</g>
<g id="Group_41">
<path id="Vector_64" d="M108.927 213.026L137.873 205.159L136.961 202.356L108.015 210.223L108.927 213.026Z" fill="white"/>
</g>
<g id="Group_42">
<path id="Vector_65" d="M108.898 213.033L123.755 208.996L122.843 206.192L107.986 210.23L108.898 213.033Z" fill="#E8E8E8"/>
</g>
<g id="Group_43">
<path id="Vector_66" d="M141 204.279L107.3 213.419L132.7 303.722L172 293.028L141 204.279Z" fill="#5A746D"/>
</g>
<g id="Group_44">
<path id="Vector_67" d="M141 204.279L114.9 216.161L140.8 301.254L132.7 303.722L107.3 213.419L141 204.279Z" fill="#4B615B"/>
</g>
</g>
<g id="Group_45">
<path id="Vector_68" d="M114 221.371C114.1 222.376 115.1 223.107 116.2 223.016C117.3 222.925 118.1 222.011 118 221.005C117.9 220 116.9 219.269 115.8 219.36C114.7 219.451 113.9 220.365 114 221.371Z" fill="#F2F2F2"/>
</g>
</g>
<path id="Vector_69" d="M121.3 166.988C121.2 166.805 121 166.714 120.8 166.805C120.5 166.896 114.4 168.816 110.3 177.773C107.3 184.354 103.8 186.365 103.8 186.456C103.6 186.547 103.6 186.73 103.7 186.913C103.8 187.004 103.9 187.096 104 187.096C104.1 187.096 104.1 187.096 104.2 187.004C104.3 186.913 107.9 184.902 111 178.047C112.3 175.214 113.8 173.112 115.3 171.558C114.6 173.751 113.4 178.23 113.5 182.891C113.5 183.074 113.7 183.257 113.9 183.257C114.1 183.257 114.3 183.074 114.3 182.891C114.1 176.676 116.3 170.918 116.5 170.37C119 168.085 121.1 167.445 121.1 167.445C121.3 167.353 121.4 167.171 121.3 166.988Z" fill="#805A33"/>
<g id="Group_46">
<path id="Vector_70" d="M92.7 172.472C92.6 172.472 92.6 172.472 92.5 172.38C92.3 172.289 92.3 172.106 92.4 171.923C102.6 157.117 122.4 159.584 122.6 159.584C122.8 159.584 122.9 159.767 122.9 159.95C122.9 160.133 122.7 160.224 122.5 160.224C122.3 160.224 103 157.848 93 172.289C92.9 172.472 92.8 172.472 92.7 172.472Z" fill="#805A33"/>
</g>
<g id="Group_47">
<path id="Vector_71" d="M114.2 205.01C107.6 205.01 104 200.166 104 200.075C103.9 199.892 103.9 199.709 104.1 199.618C104.3 199.526 104.5 199.526 104.6 199.709C104.6 199.8 108.3 204.827 115.2 204.279C115.4 204.279 115.6 204.37 115.6 204.553C115.6 204.736 115.5 204.919 115.3 204.919C115 205.01 114.6 205.01 114.2 205.01Z" fill="#805A33"/>
</g>
<g id="Group_48">
<path id="Vector_72" d="M115.6 193.859C115.4 193.859 115.2 193.677 115.2 193.494C114.7 177.225 129.7 173.112 129.8 173.112C130 173.02 130.2 173.203 130.3 173.386C130.4 173.569 130.2 173.751 130 173.843C130 173.843 126.3 174.848 122.8 177.773C119.5 180.424 115.7 185.359 116 193.585C116 193.677 115.8 193.859 115.6 193.859Z" fill="#805A33"/>
</g>
<g id="Group_49">
<path id="Vector_73" d="M139.3 164.703C139.2 164.703 139.2 164.703 139.3 164.703C136.2 164.154 135 162.509 134.9 162.418C134.8 162.235 134.8 162.052 135 161.961C135.2 161.869 135.4 161.869 135.5 162.052C135.5 162.052 136.6 163.515 139.3 164.063C139.5 164.063 139.6 164.246 139.6 164.429C139.6 164.52 139.4 164.703 139.3 164.703Z" fill="#805A33"/>
</g>
</g>
</g>
<g id="mano1">
<g id="mano1_2">
<g id="Group_50">
<path id="Vector_74" d="M69.5 262.684C62.2 260.216 37.5 270.361 35.1 285.625C32.7 300.98 60.4 287.91 66.6 282.06C72.7 276.119 76.8 265.06 69.5 262.684Z" fill="#D97736"/>
<g id="Group_51">
<path id="Vector_75" d="M76.7 339.917C77.2 342.384 44.4 290.378 31.7 264.237C29.5 259.759 27.3 258.753 23.1 257.291C18.8 255.829 7.1 248.151 4.1 245.957C1.1 243.764 -4 241.113 -6.1 240.016C-8.2 238.92 -12.4 235.903 -13.9 234.167C-15.5 232.43 -17.2 228.866 -17.9 226.124C-18.6 223.382 -14.7 223.93 -14.7 223.93C-21 216.435 -17 212.596 -17 212.596C-17 212.596 -23 208.118 -27.1 205.102C-31.2 202.085 -29.9 198.521 -26.7 199.161C-23.6 199.8 -12.8 207.204 -7.7 210.494C-2.6 213.785 6.5 218.812 6.5 218.812L8 217.075C3.6 214.333 -7.1 206.93 -9.4 205.284C-11.6 203.639 -25.1 195.87 -22 193.037C-18.9 190.295 -9.7 196.601 -4.5 199.8C0.700003 202.999 23 216.984 23 216.984L21.6 213.693C21.6 213.693 20.2 213.236 16.1 207.387C12 201.537 15.1 198.155 16 197.698C17 197.333 28.1 207.844 35.2 217.075C42.4 226.398 46.7 231.242 49.9 241.57C54.8 257.657 104.4 316.153 104.4 316.153" fill="#E0B389"/>
<path id="Vector_76" d="M-1.49994 207.844C-0.699939 206.473 0.900063 204.736 0.900063 204.736C-0.299938 206.107 -1.59994 206.838 -2.59994 207.204C-6.19994 205.01 -9.79994 202.725 -12.6 201.08C-11.9 199.892 -10.6 198.429 -10.6 198.429C-12.7 200.714 -14 200.257 -14.4 200.075C-14.4 200.075 -14.5 200.075 -14.5 199.983C-19.7 196.967 -21.3 194.225 -21.8 192.945C-21.9 193.037 -22 193.037 -22.1 193.128C-25.2 195.87 -11.7 203.731 -9.49994 205.376C-7.29994 207.021 3.50006 214.424 7.90006 217.166L7.60006 217.532H7.70006L10.6 215.338C10.7 215.43 4.80006 211.774 -1.49994 207.844Z" fill="#CCA17A"/>
<path id="Vector_77" d="M-3.49998 219.269C-5.49998 218.263 -7.09998 217.166 -8.39998 216.07C-7.79998 214.607 -6.19998 212.779 -6.19998 212.779C-7.49998 214.333 -8.79998 214.79 -9.59998 214.973C-10.6 214.15 -11.4 213.328 -12.2 212.688C-14.4 211.043 -17.2 210.129 -17.2 210.129L-19.9 208.118C-19.3 206.93 -17.8 205.284 -17.8 205.284C-18.8 206.473 -20.2 207.021 -21.1 207.295L-23.9 205.284C-27.4 203.182 -28.6 200.897 -29.1 199.709C-30.3 200.714 -30 203.091 -27.2 205.193C-23.1 208.209 -17.1 212.688 -17.1 212.688C-17.1 212.688 -17.1 212.688 -17.2 212.779C-10.8 213.419 -8.99998 219.726 -8.99998 219.726C-8.99998 219.726 -3.89998 222.376 -1.19998 224.296C1.50002 226.215 2.00002 225.027 2.00002 225.027L3.10002 223.107C3.20001 223.016 0.800014 221.279 -3.49998 219.269Z" fill="#CCA17A"/>
<g id="Group_52">
<path id="Vector_78" d="M31.7 264.237C29.5 259.759 27.3 258.753 23.1 257.291C18.8 255.829 7.1 248.151 4.1 245.957C1.1 243.764 -4 241.113 -6.1 240.016C-8.2 238.92 -12.4 235.903 -13.9 234.167C-15.5 232.43 -17.2 228.866 -17.9 226.124C-18.1 225.21 -17.8 224.661 -17.3 224.296C-16.7 224.57 -15.9 225.941 -15.1 228.226C-14.1 231.242 -11.8 234.075 -6.8 236.635C-1.8 239.194 0.8 239.011 5.2 242.301C9.6 245.592 27.8 258.022 36.3 256.56C42.5 255.554 44.9 253.544 45.3 253.269C44.6 253.726 37.9 259.028 38.9 261.861C39.9 264.877 55 287.727 55 287.727L48.2 294.856C48.2 294.856 42.1 284.163 37.2 275.114C34.7 270.361 32.5 265.791 31.7 264.237Z" fill="#CCA17A"/>
</g>
<path id="Vector_79" d="M0.300053 231.242V235.446C0.300053 235.446 -8.19994 231.333 -10.5 228.5C-10.5 228.5 -11.7 226.124 -14.9 223.747C-18.9 218.812 -18.6 215.521 -17.8 213.876C-17.3 214.059 -16.3 214.699 -15 217.166C-13.4 220.822 -11.9 225.758 0.300053 231.242Z" fill="#CCA17A"/>
<path id="Vector_80" d="M1.09998 237.366C0.899973 237.366 0.699973 237.274 0.599973 237C-4.20002 222.011 12.7 212.688 12.8 212.596C13 212.505 13.3 212.505 13.5 212.779C13.6 212.962 13.6 213.236 13.3 213.419C13.1 213.51 -3.00002 222.468 1.49998 236.817C1.59998 237.092 1.39998 237.274 1.19998 237.366H1.09998Z" fill="#B38C60"/>
<path id="Vector_81" d="M1.50008 225.027C-0.399927 223.93 -1.79992 223.199 -3.39992 222.285C-5.39992 221.188 -7.09992 220.274 -8.09992 219.543C-8.39992 219.36 -8.69992 218.812 -9.19992 218.172C-9.79992 217.349 -10.5 216.344 -11.6 215.247C-14.1 212.688 -16 211.774 -17.4 212.505C-17.6 212.596 -17.8 212.779 -17.7 212.962C-17.7 213.236 -17.4 213.419 -17.1 213.328C-17 213.328 -16.9 213.236 -16.8 213.236C-15.6 212.596 -13.4 214.607 -12.2 215.795C-11.4 216.618 -10.9 217.349 -10.4 217.989C-10.4 218.08 -10.4 218.08 -10.3 218.172C-10.3 218.172 -8.49992 220.274 -10.3 223.564C-10.4 223.747 -10.3 224.021 -10.1 224.204C-9.99992 224.204 -9.99992 224.296 -9.89992 224.296C-9.69992 224.296 -9.49992 224.204 -9.49992 224.021C-8.69992 222.559 -8.49992 221.371 -8.59992 220.365C-7.49992 221.188 -5.89992 222.011 -3.79992 223.107C-2.19992 223.93 -0.599927 224.844 1.30008 225.941C1.30008 226.032 1.80008 225.21 1.50008 225.027Z" fill="#B38C60"/>
<path id="Vector_82" d="M0.600064 234.624C-2.69994 233.801 -9.19994 229.414 -9.69994 229.14C-9.79994 228.957 -9.89994 228.683 -9.99994 228.409C-11 226.398 -12.9 224.661 -14.4 223.656C-14.6 223.473 -14.9 223.564 -15.1 223.747C-15.3 223.93 -15.2 224.204 -15 224.387C-13.6 225.392 -11.8 226.855 -10.9 228.774C-9.29994 231.973 -11.1 233.527 -11.2 233.618C-11.4 233.801 -11.4 234.075 -11.2 234.258C-11.1 234.35 -11 234.441 -10.8 234.441C-10.7 234.441 -10.6 234.441 -10.5 234.35C-10.4 234.258 -8.89994 232.979 -9.29994 230.511C-7.19994 231.882 -2.39994 234.807 0.400067 235.538H0.500065C0.700065 235.538 0.900065 235.446 1.00006 235.172C1.00006 234.898 0.800065 234.624 0.600064 234.624Z" fill="#B38C60"/>
<path id="Vector_83" d="M33.1 259.576C31.4 259.576 29.3 259.485 27.2 258.936C26.9 258.845 26.8 258.662 26.8 258.388C26.9 258.114 27.1 258.022 27.4 258.022C31.5 259.028 36 258.479 36 258.479C36.3 258.479 36.5 258.662 36.6 258.845C36.6 259.119 36.4 259.302 36.2 259.393C36 259.485 34.8 259.576 33.1 259.576Z" fill="#B38C60"/>
<path id="Vector_84" d="M22.7 216.801C23.5 218.72 25.2 222.285 27.4 225.575C27.4 225.575 22.3 233.984 28 242.667C28 242.667 19.4 244.038 11.6 240.473C11.6 240.473 18.5 242.301 21.5 238.92C24.3 235.721 24.2 224.296 22.4 216.618L22.7 216.801Z" fill="#CCA17A"/>
<path id="Vector_85" d="M22.1 214.881L21.6 213.693C21.6 213.693 20.7 213.328 18.2 210.22C19.2 211.043 22 213.053 24.6 212.322C24.6 212.322 22.2 213.236 22.1 214.881Z" fill="#E6B88F"/>
<path id="Vector_86" d="M37.9 223.382C35.9 219.269 28.3 209.763 25.6 206.107C28.8 209.489 32.4 213.419 35.2 217.166C42.4 226.489 46.7 231.333 49.9 241.662C50.2 242.667 50.6 243.764 51.1 244.861C48.1 250.07 45.2 253.361 45.2 253.361C51.6 243.581 40.5 228.591 37.9 223.382Z" fill="#CCA17A"/>
<path id="Vector_87" d="M27.4 241.387C27.2 241.387 27.1 241.296 27 241.205C23.1 235.172 26.4 226.946 27.2 225.392C26.5 224.57 24 221.371 22.6 216.801C22.5 216.527 22.7 216.344 22.9 216.252C23.2 216.161 23.4 216.344 23.5 216.527C25.1 221.554 28.1 224.935 28.1 224.935C28.2 225.027 28.2 225.21 28.2 225.392C28.2 225.484 23.9 234.441 27.9 240.565C28 240.748 28 241.022 27.7 241.205C27.5 241.387 27.5 241.387 27.4 241.387Z" fill="#B38C60"/>
<path id="Vector_88" d="M47 251.259L50.7 243.764C53 249.613 57.6 256.468 61 261.13L61.1 261.313C61.1 261.313 54.7 253.726 52.3 250.893C50.1 247.968 47 251.259 47 251.259Z" fill="#E6B88F"/>
</g>
<path id="Vector_89" d="M71.9 264.055C72 265.974 71.3 269.264 67.6 273.834C61.7 281.146 42 294.582 35.5 290.286C35.5 290.286 41.9 297.781 55.1 314.873C69.5 332.513 74.5 342.476 74.5 342.476L105.2 320.723L71.9 264.055Z" fill="#FFB463"/>
</g>
<path id="Vector_90" d="M32.6 266.065C33.8 265.883 35 266.522 35.4 267.528C35.4 267.619 35.5 267.711 35.5 267.802C36.2 267.711 36.9 267.528 37.5 267.436C37.5 267.345 37.5 267.345 37.5 267.254C37.5 267.162 37.5 267.162 37.5 267.162C37.5 266.979 37.5 266.797 37.5 266.705C37.5 266.705 37.5 266.705 37.5 266.614C37.6 266.248 37.8 265.883 38.1 265.608C38.4 265.334 38.7 265.06 39.1 264.969C40.3 264.603 41.6 265.06 42.2 266.157C43.2 265.791 44.1 265.334 45 264.969C45 264.969 45 264.969 45 264.877C45 264.786 45 264.786 45 264.786C45 264.603 45 264.42 45 264.329C45 264.329 45 264.329 45 264.237C45.1 263.872 45.3 263.506 45.6 263.232C45.9 262.958 46.2 262.684 46.6 262.592C47.4 262.318 48.2 262.501 48.8 262.866C49.6 262.318 50.3 261.861 51 261.313C50.9 261.13 50.8 261.038 50.7 260.856C50.6 260.673 50.6 260.49 50.6 260.307C50.6 260.216 50.6 260.216 50.6 260.216C50.6 260.033 50.6 259.85 50.6 259.759C50.6 259.759 50.6 259.759 50.6 259.667C50.7 259.302 50.9 258.936 51.2 258.662C51.5 258.388 51.8 258.114 52.2 258.022C53 257.748 53.9 257.931 54.5 258.296C54.9 257.839 55.3 257.474 55.7 257.017C55.6 256.834 55.4 256.651 55.4 256.468C55.3 256.286 55.3 256.103 55.3 255.92C55.3 255.829 55.3 255.829 55.3 255.829C55.3 255.646 55.3 255.463 55.3 255.372C55.3 255.372 55.3 255.372 55.3 255.28C55.4 254.915 55.6 254.549 55.9 254.275C56 254.183 56.1 254.092 56.3 253.909L58.9 257.839C58.8 257.839 58.7 257.931 58.6 257.931C57.9 258.205 57.1 258.114 56.5 257.748C56.1 258.114 55.7 258.571 55.3 259.028C55.4 259.119 55.5 259.302 55.5 259.393C55.8 260.124 55.6 260.947 55.1 261.587C55 261.678 54.9 261.861 54.7 261.952L54.6 262.044C54.4 262.135 54.2 262.227 54 262.318C53.2 262.592 52.4 262.409 51.8 262.044C51.1 262.592 50.4 263.049 49.6 263.598C49.7 263.78 49.8 263.963 49.9 264.146C50.2 264.877 50 265.7 49.5 266.34C49.4 266.431 49.3 266.614 49.1 266.705L49 266.797C48.8 266.888 48.6 266.979 48.4 267.071C47.2 267.436 46 266.979 45.4 266.065C44.5 266.522 43.5 266.888 42.5 267.254C42.5 267.802 42.3 268.35 42 268.807C41.9 268.899 41.8 269.082 41.6 269.173L41.5 269.264C41.3 269.356 41.1 269.447 40.9 269.539C39.8 269.904 38.6 269.539 38 268.625C37.2 268.807 36.4 268.99 35.6 269.082C35.5 269.447 35.4 269.813 35.1 270.087C35 270.178 34.9 270.27 34.8 270.361L32.6 266.065Z" fill="#F2CA9D"/>
<g id="Group_53">
<path id="Vector_91" d="M31.7 268.259L31.6 267.345C48.8 266.431 57.3 253.269 57.4 253.087L58.3 253.544C58.2 253.635 49.5 267.254 31.7 268.259Z" fill="white"/>
<g id="Group_54">
<path id="Vector_92" d="M54.9 255.28C55.4 256.468 56.8 257.108 58.1 256.651C59.4 256.194 60.1 254.915 59.6 253.726C59.1 252.538 57.7 251.898 56.4 252.355C55.1 252.721 54.5 254.092 54.9 255.28Z" fill="white"/>
<g id="Group_55">
<path id="Vector_93" d="M55.4 252.995C55.3 253.361 55.4 253.726 55.5 254.092C56 255.28 57.4 255.92 58.7 255.463C59.1 255.372 59.4 255.097 59.7 254.823C59.6 255.646 59 256.377 58.1 256.651C56.8 257.108 55.4 256.468 54.9 255.28C54.6 254.458 54.8 253.544 55.4 252.995Z" fill="#EDEDED"/>
</g>
</g>
<g id="Group_56">
<path id="Vector_94" d="M50.3 259.667C50.8 260.856 52.2 261.495 53.5 261.038C54.8 260.581 55.5 259.302 55 258.114C54.5 256.925 53.1 256.286 51.8 256.743C50.5 257.2 49.8 258.479 50.3 259.667Z" fill="white"/>
<g id="Group_57">
<path id="Vector_95" d="M50.8001 257.382C50.7001 257.748 50.8001 258.114 50.9001 258.479C51.4001 259.667 52.8001 260.307 54.1001 259.85C54.5001 259.759 54.8001 259.485 55.1001 259.21C55.0001 260.033 54.4001 260.764 53.5001 261.038C52.2001 261.495 50.8001 260.856 50.3001 259.667C50.0001 258.845 50.2001 258.022 50.8001 257.382Z" fill="#EDEDED"/>
</g>
</g>
<g id="Group_58">
<path id="Vector_96" d="M44.7 264.42C45.2 265.608 46.6 266.248 47.9 265.791C49.2 265.334 49.9 264.055 49.4 262.866C48.9 261.678 47.5 261.038 46.2 261.495C44.9 261.952 44.3 263.232 44.7 264.42Z" fill="white"/>
<g id="Group_59">
<path id="Vector_97" d="M45.2 262.135C45.1 262.501 45.2 262.866 45.3 263.232C45.8 264.42 47.2 265.06 48.5 264.603C48.9 264.512 49.2 264.237 49.5 263.963C49.4 264.786 48.8 265.517 47.9 265.791C46.6 266.248 45.2 265.608 44.7 264.42C44.4 263.598 44.6 262.775 45.2 262.135Z" fill="#EDEDED"/>
</g>
</g>
<g id="Group_60">
<path id="Vector_98" d="M37.2001 266.888C37.7001 268.076 39.1001 268.716 40.4001 268.259C41.7001 267.802 42.4001 266.522 41.9001 265.334C41.4001 264.146 40.0001 263.506 38.7001 263.963C37.4001 264.42 36.7001 265.791 37.2001 266.888Z" fill="white"/>
<g id="Group_61">
<path id="Vector_99" d="M37.7001 264.603C37.6001 264.969 37.7001 265.334 37.8001 265.7C38.3001 266.888 39.7001 267.528 41.0001 267.071C41.4001 266.979 41.7001 266.705 42.0001 266.431C41.9001 267.254 41.3001 267.985 40.4001 268.259C39.1001 268.716 37.7001 268.076 37.2001 266.888C36.9001 266.157 37.1001 265.243 37.7001 264.603Z" fill="#EDEDED"/>
</g>
</g>
<g id="Group_62">
<path id="Vector_100" d="M30.3 268.259C30.8 269.447 32.2 270.087 33.5 269.63C34.8 269.173 35.5 267.893 35 266.705C34.5 265.517 33.1 264.877 31.8 265.334C30.5 265.791 29.8 267.071 30.3 268.259Z" fill="white"/>
<g id="Group_63">
<path id="Vector_101" d="M30.8 265.974C30.7 266.34 30.8 266.705 30.9 267.071C31.4 268.259 32.8 268.899 34.1 268.442C34.5 268.35 34.8 268.076 35.1 267.802C35 268.625 34.4 269.356 33.5 269.63C32.2 270.087 30.8 269.447 30.3 268.259C30 267.436 30.2 266.522 30.8 265.974Z" fill="#EDEDED"/>
</g>
</g>
</g>
</g>
</g>
<g id="OBJECTS">
<g id="Group_64">
<g id="Group_65">
<g id="Group_66">
<path id="Vector_102" d="M250 711.275C388.071 711.275 500 606.926 500 478.205C500 349.484 388.071 245.135 250 245.135C111.929 245.135 0 349.484 0 478.205C0 606.926 111.929 711.275 250 711.275Z" fill="#20818C"/>
<g id="Group_67">
<g id="Group_68">
<path id="Vector_103" fill-rule="evenodd" clip-rule="evenodd" d="M59.3137 327.212C63.7255 325.567 89.4118 323.922 99.902 314.142C102.549 311.674 105 308.932 108.235 307.104C111.667 305.185 115.686 304.636 119.412 303.357C124.902 301.529 129.804 298.421 135.098 296.136C154.118 288.276 176.078 292.937 196.176 297.781C200.294 298.787 205.588 301.711 203.824 305.367C203.039 307.013 201.078 307.835 199.804 309.206C198.039 311.126 198.137 314.233 200 316.153C194.216 322.276 180.98 317.981 180.588 309.846C170.98 310.212 160.98 308.292 151.961 311.4C142.941 314.507 136.373 325.932 143.039 332.422C146.765 335.986 153.333 336.9 155.392 341.562C158.235 347.96 149.804 356.826 155.294 361.578C165.196 358.836 173.333 351.25 176.471 342.019C178.235 336.9 180.588 329.771 186.275 330.685C187.941 330.959 189.412 331.965 190.784 332.879C197.941 337.266 206.961 338.546 214.314 342.567C221.765 346.68 227.353 356.003 222.451 362.584C219.412 366.605 213.627 367.885 209.02 370.261C204.314 372.638 200.294 378.305 203.431 382.235C207.549 384.52 212.745 382.326 217.647 382.235C222.451 382.143 227.843 387.719 224.118 390.461C222.059 392.015 218.922 391.009 216.275 391.009C209.118 391.101 204.902 398.595 204.02 405.176C203.137 411.757 203.627 418.978 199.412 424.37C195.882 428.849 189.804 430.86 184.902 433.967C180 437.075 175.686 442.924 178.333 447.951C176.176 441.005 166.275 439.908 158.529 440.182C153.235 440.365 147.647 440.639 143.137 443.29C134.314 448.683 134.412 461.022 138.039 470.253C141.765 470.893 144.314 466.414 148.039 465.683C153.137 464.678 156.275 470.801 156.765 475.646C157.157 480.49 157.745 486.614 162.647 488.259C164.412 488.807 166.471 488.624 168.137 489.447C171.863 491.184 171.667 496.393 174.412 499.318C177.157 502.152 181.863 502.06 185.882 501.877C197.255 501.329 208.627 501.786 219.902 503.157C231.078 504.528 236.961 516.776 238.137 527.287C252.941 525.641 272.059 526.738 285.098 533.502C290.49 548.766 274.51 555.986 271.471 571.798C270.784 575.637 270.98 579.659 269.51 583.223C264.216 595.928 242.451 594.923 234.706 606.53C228.431 615.853 233.529 630.386 224.51 637.606C220.392 640.897 214.118 641.537 210.686 645.467C208.039 648.392 207.647 652.505 206.471 656.161C204.412 662.559 199.216 667.677 196.863 673.984C192.745 685.226 199.412 689.979 197.745 691.532C196.078 693.086 191.373 692.172 189.314 689.979C185.49 685.866 184.412 678.188 183.824 672.43C182.843 663.655 181.863 654.79 183.235 646.015C184.706 636.692 188.824 628.009 190.882 618.778C192.941 609.638 192.647 599.218 186.275 591.906C184.118 589.439 181.373 587.428 179.412 584.777C177.353 582.035 176.275 578.653 175.196 575.454C173.922 571.341 172.549 567.137 171.275 563.024C170.392 560.191 169.412 557.266 169.706 554.25C170.294 546.206 178.431 540.814 184.51 535.056C190.588 529.297 194.608 518.878 187.745 513.942C178.824 509.281 169.902 504.619 160.882 499.958C158.824 498.861 156.765 497.764 155.294 496.119C153.039 493.469 152.745 489.721 150.784 486.888C144.608 477.656 127.843 482.501 118.922 475.463C120.784 463.398 118.039 450.785 111.275 440.457C107.745 445.849 106.765 452.704 108.824 458.737C100.784 444.204 92.549 429.214 90.3922 412.945C90.098 410.752 89.902 408.467 88.5294 406.73C85.8824 403.257 80.2941 403.257 76.6667 400.606C70.5882 396.219 72.9412 387.353 71.1765 380.407C68.2353 368.616 49.8039 363.406 40.2941 371.632C38.9216 372.821 37.7451 374.192 36.0784 374.923C32.0588 376.751 27.9412 373.278 28.4314 369.165C28.5294 369.347 43.1373 342.933 59.3137 327.212Z" fill="#C1E34E"/>
</g>
<g id="Group_69">
<path id="Vector_104" fill-rule="evenodd" clip-rule="evenodd" d="M208.431 287.453C209.804 290.378 210.196 293.668 209.706 296.776C209.51 297.964 209.118 299.244 209.412 300.523C210 302.808 212.451 303.996 214.412 305.367C223.627 311.674 223.627 324.287 222.843 334.89C227.059 334.89 231.078 332.33 232.647 328.674C233.137 327.486 233.431 326.115 234.216 325.018C236.078 322.276 240 321.911 243.431 321.545C252.059 320.631 260.49 317.981 267.941 313.868C268.823 313.411 269.804 312.862 270.392 312.04C271.372 310.669 271.176 308.749 271.961 307.195C274.902 300.797 288.431 305.733 291.373 299.335C291.765 298.421 291.863 297.507 291.961 296.593C292.549 291.383 293.137 286.173 293.725 280.964C293.922 279.227 294.02 277.308 293.039 275.845C291.176 273.377 287.157 273.926 284.412 275.48C281.667 277.033 279.412 279.41 276.372 280.232C272.353 276.028 266.373 271.458 260.98 274.109C259.314 274.931 258.039 276.394 256.471 277.308C252.451 279.501 247.157 277.765 243.431 275.114C239.706 272.463 236.569 268.99 232.353 267.071C225.784 264.237 217.157 266.431 213.137 272.006C210.882 275.023 210 278.861 207.255 281.603C206.274 282.609 205.098 283.523 204.902 284.802C204.706 286.082 206.569 287.453 207.549 286.539" fill="#C1E34E"/>
</g>
<g id="Group_70">
<path id="Vector_105" fill-rule="evenodd" clip-rule="evenodd" d="M175.392 456.36C174.412 455.263 172.745 454.715 171.274 455.263C169.902 455.812 168.922 457.366 169.412 458.737C170 460.199 171.765 460.839 173.333 461.387C179.216 463.215 185 464.952 190.882 466.78C192.843 463.581 190.196 459.468 186.765 457.823C183.333 456.177 179.216 456.086 175.49 455.172" fill="#C1E34E"/>
</g>
<g id="Group_71">
<path id="Vector_106" fill-rule="evenodd" clip-rule="evenodd" d="M432.843 317.706C409.314 316.153 392.549 322.916 374.118 320.631C376.961 316.335 378.137 311.034 377.353 306.099C360.98 308.384 344.51 310.669 328.137 313.045C328.039 315.696 328.039 318.346 327.941 320.905C325.882 321.362 323.922 321.911 321.863 322.368C322.353 327.943 327.157 332.97 333.137 334.158C342.353 328.309 354.608 326.664 365.196 329.863C366.078 334.067 360.784 336.809 356.471 338.271C348.627 340.831 340.882 343.39 333.039 345.949C333.039 342.933 331.863 340.008 330 337.54C322.647 336.9 315.294 342.019 313.823 348.782C311.078 351.524 305.686 349.057 304.608 345.492C303.529 341.836 305.098 338.089 306.471 334.524C307.843 330.959 308.823 326.846 306.765 323.647C301.863 328.583 296.863 333.793 294.51 340.099C292.157 346.497 293.235 354.449 299.02 358.562C294.608 360.664 297.843 367.245 295.882 371.45C293.922 375.654 287.745 375.928 282.941 377.299C279.608 378.213 276.569 380.041 273.529 381.778C268.823 384.52 263.627 387.993 262.745 393.111C261.373 401.063 272.353 407.096 280.49 404.445C288.627 401.794 293.431 393.934 295.882 386.256C296.274 385.068 296.569 383.789 297.549 382.966C298.922 381.686 300.98 381.595 302.843 381.595C310.196 381.504 318.431 381.686 323.431 386.713C329.412 392.563 327.745 401.977 325.784 409.838C328.431 407.918 330.98 406.09 333.627 404.171C336.176 405.176 338.039 407.461 338.627 409.929C336.274 403.44 334.02 397.042 331.667 390.552C330.392 386.896 329.412 382.143 332.745 379.95C335.98 377.756 340.882 380.224 342.549 383.606C344.314 386.988 344.02 390.918 344.608 394.665C345.196 398.595 346.765 402.526 349.216 405.816C350 407.004 351.274 408.192 352.745 407.827C353.529 407.644 354.02 407.096 354.51 406.547C357.647 402.891 358.137 397.956 359.706 393.477C361.274 388.998 365 384.428 370 384.794C375.588 385.251 378.431 391.375 383.529 393.568C390.686 396.585 399.804 391.009 406.569 394.665C400.196 399.875 392.745 405.359 384.314 404.445C381.471 404.171 378.725 403.074 375.882 403.074C373.039 403.074 369.706 404.445 369.314 407.096C368.922 409.381 370.686 411.391 372.353 413.037C378.529 418.978 386.863 423.273 394.51 427.478L392.843 427.569C386.078 429.763 379.118 431.317 372.059 432.322C371.471 432.413 370.784 432.505 370.294 432.139C369.216 431.499 369.706 429.946 369.02 429.032C368.235 427.935 366.471 428.118 365.098 428.392C361.274 429.306 357.549 430.128 353.725 431.042C350 431.956 345.882 432.779 342.451 431.134C337.157 428.575 336.471 421.902 336.569 416.327C327.059 422.268 317.451 428.209 307.941 434.059C305.98 435.247 304.02 436.526 302.647 438.263C298.529 443.747 302.353 451.15 302.255 457.731C302.255 465.317 297.157 473.269 300.882 480.033C301.373 480.947 302.059 481.861 303.039 482.501C304.314 483.415 305.98 483.872 307.451 484.42C312.549 486.339 316.667 490.27 318.529 495.114L319.02 496.028C323.039 500.781 332.745 495.571 338.431 492.555C344.118 489.538 351.569 486.339 356.569 490.27C358.627 491.823 359.608 494.2 360.196 496.576C362.941 507.544 358.137 520.889 366.176 529.389C368.725 532.039 372.255 533.867 374.412 536.792C377.843 541.545 376.961 548.4 381.078 552.604C383.333 554.889 386.863 556.26 387.843 559.185C388.922 562.384 386.274 565.857 387.549 569.056C388.922 572.621 394.608 573.169 397.843 570.793C401.078 568.417 402.255 564.395 402.843 560.648C403.431 556.9 403.627 552.97 405.588 549.588C409.118 543.556 410.98 533.136 413.529 526.738C415.49 521.894 413.529 516.319 414.804 511.2C416.274 505.625 423.431 499.41 426.373 494.291C429.608 488.716 434.608 484.968 434.804 478.662C435 470.253 435.294 469.156 435.49 460.747C429.314 463.398 421.667 460.016 417.941 454.624C414.216 449.322 413.529 442.65 413.333 436.344C417.157 439.634 419.608 443.93 422.941 447.586C426.274 451.242 431.078 454.441 436.176 453.801C443.627 452.887 447.353 445.118 449.608 438.446C444.314 438.629 439.02 435.795 436.471 431.408C434.02 427.021 434.412 421.354 437.549 417.332C449.314 419.8 455.784 432.139 466.863 436.618C469.51 437.715 472.451 438.263 474.902 439.634C480.882 443.016 483.137 449.962 484.902 456.269C489.412 452.704 493.922 449.14 498.431 445.575C498.333 445.849 491.569 377.208 432.843 317.706Z" fill="#C1E34E"/>
</g>
</g>
</g>
<path id="Vector_107" opacity="0.3" d="M413.235 653.784C369.412 689.065 312.353 710.361 250 710.361C111.961 710.361 0 605.982 0 477.291C0 423.639 19.4118 374.192 52.1569 334.798C-26.8627 532.039 172.843 752.588 413.235 653.784Z" fill="#2F2F2F"/>
</g>
</g>
<path id="Vector_108" opacity="0.53" d="M270.284 360.776L430.654 318.123C430.654 318.123 395.587 279.213 339.813 261.969L270.284 360.776Z" fill="#555555"/>
<g id="Group_72">
<path id="Vector_109" d="M145.1 231.193L245.3 291.517V400.283L145.1 339.959V231.193Z" fill="#E3A714"/>
<path id="Vector_110" d="M345.4 231.193L245.3 291.517V400.283L345.4 339.959V231.193Z" fill="#C19130"/>
<path id="Vector_111" d="M145.1 231.193L247.6 169.864L345.4 231.193L245.3 291.517L145.1 231.193Z" fill="#FFD700"/>
<g id="Group_73">
<path id="Vector_112" d="M349.5 228.542V253.312L245.3 317.109V291.7L349.5 228.542Z" fill="#D3921E"/>
<path id="Vector_113" d="M141 228.542L248.2 165.019L349.5 228.542L245.3 291.517L141 228.542Z" fill="#E8AF2E"/>
<path id="Vector_114" d="M141 228.542V253.312L245.3 317.2V291.7L141 228.542Z" fill="#F2BB4C"/>
</g>
<path id="Vector_115" opacity="0.25" d="M145.1 255.962L245.8 316.835L345.4 255.414V261.172L245.3 322.776L145.1 261.081V255.962Z" fill="#C18D53"/>
<path id="Vector_116" d="M221.1 217.757L230.5 212.365L278.8 242.527L269.4 247.919L221.1 217.757Z" fill="#FF9916"/>
<g id="Group_74" opacity="0.25">
<path id="Vector_117" opacity="0.25" d="M276.1 244.08L278.8 242.527L230.5 212.365L221.1 217.757L223.8 219.494L230.5 215.655L276.1 244.08Z" fill="#FF9916"/>
</g>
<path id="Vector_118" opacity="0.42" d="M274.1 244.72L349.5 228.542L308.3 202.676L231.7 218.854L274.1 244.72Z" fill="#616161"/>
<path id="Vector_119" d="M228.8 222.51V159.627L274.1 187.595V245.269L269.4 247.919L228.8 222.51Z" fill="white"/>
<path id="Vector_120" opacity="0.65" d="M274.3 245.177L228.8 217.483V222.51L269.4 247.919L274.3 245.177Z" fill="#BFBA9D"/>
<g id="Group_75" opacity="0.78">
<g id="Group_76" opacity="0.78">
<g id="Group_77" opacity="0.78">
<g id="Group_78" opacity="0.78">
<g id="Group_79" opacity="0.78">
<g id="Group_80" opacity="0.78">
<g id="Group_81" opacity="0.78">
<g id="Group_82" opacity="0.78">
<path id="Vector_121" opacity="0.78" d="M245.7 188.144C240.9 187.778 240.1 193.262 239.9 197.466C240.2 197.466 240.4 197.558 240.7 197.741L243.3 199.02C243.5 195.09 244.2 192.348 246.9 192.531C247.6 192.622 248.5 192.805 249.5 193.353C254.4 195.73 255.4 199.843 255.5 204.961L258.2 206.241C258.4 206.332 258.7 206.515 258.9 206.698C258.8 201.305 257.7 193.262 249.6 189.332C247.9 188.509 246.7 188.144 245.7 188.144Z" fill="#353535"/>
<path id="Vector_122" opacity="0.78" d="M237.9 212.913C238 214.558 239.1 216.295 240.4 216.935L244.8 219.128L257.9 225.526C258.2 225.709 258.5 225.709 258.7 225.8C259.6 225.892 260.3 225.161 260.5 223.972L237.9 212.913Z" fill="#303030"/>
<path id="Vector_123" opacity="0.78" d="M249.8 213.096C249.6 213.096 249.5 213.004 249.3 212.913C248.6 212.547 248.1 211.816 248.1 211.176C248.1 209.897 248.8 209.714 248.8 208.434C248.8 208.252 248.1 207.429 248.1 206.606C248.1 206.058 248.4 205.875 248.7 205.875C248.9 205.875 249.1 205.967 249.3 206.058C250 206.424 250.5 207.155 250.5 207.795C250.5 208.526 249.9 208.709 249.9 208.983C249.9 210.262 250.5 211.085 250.5 212.365C250.5 212.913 250.2 213.096 249.8 213.096ZM239.8 197.466C238.8 197.375 238 198.198 238 199.569L237.9 211.633L260.5 222.693L260.6 211.359V210.628C260.6 209.166 259.8 207.612 258.7 206.698C258.5 206.515 258.2 206.332 258 206.241L255.3 204.961L243.1 199.02L240.5 197.741C240.4 197.558 240.1 197.466 239.8 197.466Z" fill="#303030"/>
</g>
</g>
</g>
</g>
</g>
</g>
</g>
</g>
<g id="Capa_2_1_">
<g id="Group_83">
<g id="Group_84">
<g id="Group_85">
<g id="Group_86">
<g id="Group_87">
<g id="Group_88">
<path id="Vector_124" d="M183.4 344.255L183.1 345.26L183.4 345.443C183.5 345.534 183.5 345.534 183.6 345.534C183.8 345.626 184.1 345.534 184.2 345.352C184.3 344.986 184.1 344.712 183.8 344.438C183.6 344.346 183.5 344.255 183.4 344.255ZM176.1 335.48C175.8 335.298 175.4 335.389 175.1 335.663C174.5 336.029 174.4 336.669 174.8 337.308C174.9 337.491 175.1 337.674 175.3 337.765C175.6 337.948 175.9 337.857 176.3 337.583C176.8 337.217 177 336.577 176.7 335.937C176.5 335.755 176.3 335.572 176.1 335.48ZM171.8 319.394C171.8 319.394 171.7 319.303 171.8 319.394C171 319.028 170.5 319.211 170.5 319.851C170.5 320.491 170.9 321.039 171.6 321.405C172.3 321.679 172.8 321.588 172.8 320.948C172.9 320.308 172.5 319.668 171.8 319.394ZM185.8 349.83C185.5 349.647 185.3 349.19 185.3 348.825C185.3 348.459 185.6 348.185 185.9 348.368H186C186.3 348.551 186.5 348.916 186.5 349.282V349.373C186.5 349.83 186.2 350.013 185.8 349.83ZM191 351.75C190.8 351.658 190.6 351.384 190.5 351.018V350.836C190.4 350.379 190.6 350.104 191 350.104C191.1 350.104 191.1 350.104 191.2 350.196C191.4 350.287 191.6 350.561 191.7 350.927V351.018C191.8 351.475 191.6 351.75 191.3 351.75C191.2 351.75 191.1 351.75 191 351.75ZM187.3 350.561V345.717L188.3 346.083V349.922L189.8 350.47V351.567L187.3 350.561ZM182.5 347.637L181.5 346.905L182.6 342.792C183 343.067 183.4 343.341 183.8 343.615C184.3 343.889 184.7 344.346 185 344.895C185.2 345.26 185.3 345.717 185.1 346.083C185 346.54 184.6 346.723 184.2 346.631C184.4 346.997 184.5 347.362 184.5 347.728C184.5 348.276 184.5 349.008 184.5 349.19L183.5 348.459C183.5 348.094 183.5 347.637 183.5 347.271C183.5 346.723 183.4 346.54 183.1 346.266L183 346.174L182.5 347.637ZM177.1 342.153L176.3 341.239L178.5 338.04L179.5 339.228L179.3 340.873C179.2 341.513 179.1 342.061 179 342.61C179.2 342.061 179.5 341.604 179.9 341.239L180.4 340.416L181.2 341.421L179 344.62L178.1 343.524L178.3 341.787C178.3 341.147 178.4 340.507 178.5 339.959C178.2 340.416 177.9 340.964 177.6 341.421L177.1 342.153ZM175.4 339.045C174.9 338.862 174.5 338.405 174.1 337.674C173.3 336.303 173.6 335.023 174.4 334.384C174.8 334.018 175.4 334.018 175.9 334.292C176.3 334.475 176.7 334.841 177.1 335.389L177.2 335.572C178 337.034 177.7 338.314 177 338.862C176.5 339.228 175.9 339.228 175.4 339.045ZM170.8 329.539L170.4 328.351L174 327.894L174.6 329.722L173.8 330.271C173.4 330.453 173 330.728 172.6 330.91C173.1 331.002 173.6 331.002 174 331.093L175.1 331.276L175.7 333.013L172.2 334.018L171.8 332.738L173.1 332.464C173.5 332.373 174 332.281 174.5 332.19C174 332.099 173.5 332.007 173 331.916L171.6 331.642L171.2 330.636L172.3 329.996C172.7 329.722 173.1 329.539 173.6 329.357C173.1 329.448 172.6 329.539 172.1 329.539H170.8ZM171.1 325.518C171.3 325.609 171.4 325.335 171.5 324.787C171.6 323.964 171.9 323.507 172.5 323.598C172.6 323.598 172.7 323.598 172.8 323.69C173.4 323.964 173.8 324.695 174 325.792C174.1 326.249 174.1 326.706 174 327.163L173.2 326.797C173.3 326.432 173.3 326.158 173.2 325.701C173.2 325.335 173 325.061 172.9 325.061C172.9 325.061 172.9 325.061 172.8 325.061C172.6 325.061 172.6 325.244 172.5 325.883C172.4 326.797 172 327.072 171.5 326.98C171.4 326.98 171.3 326.889 171.2 326.889C170.7 326.615 170.2 325.883 170 324.604C169.9 324.147 169.9 323.598 170 323.141L170.9 323.507C170.8 323.873 170.8 324.33 170.8 324.787C170.7 325.152 170.9 325.426 171.1 325.518ZM171.5 322.684C170.3 322.136 169.6 320.856 169.7 319.394C169.8 317.932 170.7 317.475 171.8 318.023C171.9 318.023 171.9 318.023 172 318.114C173 318.571 173.8 319.942 173.8 321.131V321.313C173.6 322.776 172.6 323.141 171.5 322.684ZM171 316.743L170.1 316.286C170.1 315.829 170.1 315.464 170.2 315.098C170.5 313.819 171.3 313.544 172.2 313.91C172.4 314.001 172.5 314.093 172.7 314.184C174 315.19 174.4 316.743 174.1 318.023C174 318.389 173.9 318.754 173.7 318.937L173 318.114C173.2 317.932 173.3 317.749 173.3 317.475C173.5 316.835 173.2 316.012 172.7 315.555L172.6 315.464C172.5 315.372 172.4 315.281 172.3 315.281C171.9 315.098 171.4 315.19 171.3 315.738C171.3 315.829 171.3 315.921 171.2 316.012C171 316.195 171 316.469 171 316.743ZM189.5 305.136C188.9 304.861 188.5 304.039 188.5 303.308C188.6 302.576 189.1 302.302 189.7 302.576H189.8C190.6 302.942 191.5 303.947 192.7 304.496C193.9 305.044 194.8 304.953 195.6 305.318C196.4 305.684 196.7 306.415 196.7 307.146C196.6 307.878 196.1 308.152 195.5 307.878C194.6 307.421 194.2 306.872 193.3 306.232L193 309.797L193.7 310.163V310.802L194 310.985L193.9 311.899C194.1 311.991 194.3 312.356 194.3 312.63L194.2 314.276C194.2 314.55 194.2 314.824 194.4 315.098C194.6 315.647 195.5 316.104 195.8 316.469C196 316.652 196.2 316.835 196.3 317.018C198.7 319.76 199.7 321.77 200.1 324.421L201 324.604C201.1 324.695 201.2 324.787 201.2 324.969L201.3 326.615C201.3 327.254 201 327.62 200.5 327.529L200.2 327.437L200.5 331.733C200.5 332.099 200.3 332.373 200 332.281L199.6 332.19C200.3 333.652 203.1 339.959 202.8 344.895C202.6 347.819 200.6 349.373 198.3 348.276C196 347.18 194.4 343.889 194.6 340.964C194.9 336.12 198.3 332.83 199.2 332.007L198.6 331.824H198.5C198.3 331.733 198.1 331.367 198 331.093V331.002L197.7 326.706L197.2 326.615C197.1 326.615 197.1 326.615 197 326.523C196.6 326.34 196.2 325.792 196.2 325.152L196 323.507C196 323.324 196.1 323.233 196.2 323.233L197 323.416C196.7 322.319 196 321.405 195.2 320.856H195.1C195 320.765 194.9 320.765 194.7 320.765C194.1 320.674 193.4 320.674 192.7 320.491C192.1 320.399 191.6 320.217 191 320.034C191 320.034 188.2 318.48 186.2 317.475C185.9 317.383 185.7 317.2 185.4 317.109C184.3 316.652 183.3 316.286 182.2 316.012C182.1 315.921 181.9 315.921 181.8 315.921L181.3 316.012C181.3 316.012 181.3 316.012 181.2 316.012C181.1 315.921 181 315.829 181 315.738V315.555L178.5 314.093L178.9 307.969L181.4 308.883V308.7C181.4 308.517 181.5 308.517 181.6 308.609C181.6 308.609 181.6 308.609 181.7 308.7C182 309.157 182.4 309.523 182.9 309.706C183.9 310.345 184.8 310.985 185.8 311.534C186.7 311.991 188.7 312.63 188.7 312.63L189.6 312.905L189.8 310.528C189.8 310.254 190 310.163 190.2 310.254L190.3 309.34L190.6 309.523V308.883L191.3 309.249L191.6 305.684C190.9 305.41 190.4 305.593 189.5 305.136C189.5 305.136 189.6 305.136 189.5 305.136ZM190.6 297.458C177 290.969 165.1 299.195 163.9 315.829C162.7 332.373 172.8 351.11 186.4 357.508C200 363.997 211.9 355.771 213.1 339.136C214.2 322.502 204.2 303.856 190.6 297.458Z" fill="white"/>
<path id="Vector_125" d="M172.2 313.91C171.4 313.544 170.6 313.727 170.2 315.098C170.1 315.464 170.1 315.921 170.1 316.286L171 316.743C171 316.469 171 316.195 171.1 315.921C171.1 315.829 171.1 315.738 171.2 315.647C171.4 315.19 171.8 315.007 172.2 315.19C172.3 315.281 172.4 315.281 172.5 315.372L172.6 315.464C173.2 315.921 173.4 316.835 173.2 317.383C173.1 317.657 173 317.84 172.9 318.023L173.6 318.846C173.8 318.571 174 318.297 174 317.932C174.3 316.652 173.9 315.098 172.6 314.093C172.5 314.093 172.4 314.001 172.2 313.91Z" fill="#009245"/>
<path id="Vector_126" d="M171.6 321.313C170.9 321.039 170.5 320.491 170.5 319.76C170.5 319.12 171 318.937 171.7 319.303H171.8C172.5 319.668 172.9 320.217 172.8 320.856C172.8 321.496 172.3 321.679 171.6 321.313ZM171.9 318.114C171.8 318.114 171.8 318.023 171.7 318.023C170.6 317.475 169.7 317.932 169.6 319.394C169.5 320.856 170.2 322.045 171.4 322.684H171.5C172.5 323.141 173.5 322.776 173.6 321.313V321.131C173.7 319.851 172.9 318.571 171.9 318.114Z" fill="#009245"/>
<path id="Vector_127" d="M172.7 323.69C172.6 323.598 172.5 323.598 172.4 323.598C171.8 323.507 171.6 323.964 171.4 324.787C171.4 325.335 171.3 325.609 171.1 325.518C171.1 325.518 171.1 325.518 171 325.518C170.8 325.426 170.7 325.152 170.6 324.787C170.5 324.33 170.6 323.873 170.7 323.507L169.8 323.141C169.7 323.598 169.7 324.055 169.8 324.604C170 325.883 170.4 326.615 171 326.889C171.1 326.98 171.2 326.98 171.3 326.98C171.8 327.072 172.2 326.706 172.3 325.883C172.4 325.244 172.4 325.061 172.6 325.061C172.6 325.061 172.6 325.061 172.7 325.061C172.9 325.152 173 325.335 173 325.701C173.1 326.066 173 326.432 173 326.797L173.8 327.163C173.9 326.706 173.9 326.249 173.8 325.792C173.7 324.695 173.3 323.964 172.7 323.69Z" fill="#009245"/>
<path id="Vector_128" d="M174 327.894L170.4 328.351L170.8 329.539L172.1 329.357C172.5 329.357 173.1 329.265 173.6 329.174C173.2 329.357 172.7 329.539 172.3 329.814L171.2 330.453L171.6 331.459L173 331.733C173.5 331.824 174 331.916 174.5 332.007C174 332.099 173.5 332.19 173.1 332.281L171.8 332.556L172.2 333.835L175.7 332.83L175.1 331.093L174 330.91C173.6 330.819 173.1 330.819 172.6 330.728C173 330.545 173.4 330.271 173.8 330.088L174.6 329.539L174 327.894Z" fill="#009245"/>
<path id="Vector_129" d="M175.2 337.765C175 337.674 174.9 337.491 174.7 337.308C174.4 336.76 174.5 336.12 175 335.663C175.3 335.389 175.7 335.389 176 335.48C176.2 335.572 176.3 335.755 176.4 335.937C176.7 336.577 176.5 337.126 176 337.583C175.9 337.857 175.5 337.857 175.2 337.765ZM175.9 334.292C175.4 334.018 174.8 334.018 174.4 334.384C173.6 335.023 173.4 336.303 174.1 337.674C174.5 338.314 174.9 338.771 175.4 339.045C175.9 339.319 176.4 339.228 176.9 338.862C177.7 338.314 177.9 337.034 177.1 335.572L177 335.389C176.7 334.841 176.3 334.475 175.9 334.292Z" fill="#009245"/>
<path id="Vector_130" d="M178.5 338.04L176.3 341.239L177.1 342.153L177.6 341.421C177.9 340.964 178.3 340.416 178.5 339.959C178.4 340.599 178.3 341.147 178.3 341.787L178.1 343.524L179 344.62L181.2 341.421L180.4 340.416L179.9 341.239C179.6 341.696 179.3 342.153 179 342.61C179.1 342.061 179.2 341.513 179.3 340.873L179.5 339.228L178.5 338.04Z" fill="#009245"/>
<path id="Vector_131" d="M183.5 345.534C183.4 345.534 183.4 345.443 183.3 345.443L183 345.26L183.3 344.255C183.4 344.346 183.5 344.346 183.6 344.438C183.9 344.712 184.1 344.986 184 345.352C184 345.534 183.8 345.626 183.5 345.534ZM182.6 342.701L181.5 346.814L182.5 347.545L182.9 345.991L183 346.083C183.3 346.357 183.4 346.54 183.4 347.088C183.4 347.454 183.4 347.819 183.4 348.276L184.4 349.008C184.4 348.825 184.4 348.094 184.4 347.545C184.4 347.18 184.4 346.814 184.1 346.448C184.5 346.54 184.9 346.357 185 345.9C185.1 345.626 185.1 345.077 184.9 344.712C184.6 344.163 184.2 343.706 183.7 343.432C183.4 343.249 183 342.975 182.6 342.701Z" fill="#009245"/>
<path id="Vector_132" d="M186 348.368C185.6 348.185 185.3 348.368 185.3 348.825C185.3 349.19 185.5 349.647 185.8 349.83H185.9C186.2 350.013 186.5 349.739 186.5 349.373V349.282C186.5 348.916 186.3 348.551 186 348.368Z" fill="#009245"/>
<path id="Vector_133" d="M188.3 345.991L187.2 345.626L187.3 350.561L189.8 351.384V350.287L188.3 349.83V345.991Z" fill="#009245"/>
<path id="Vector_134" d="M191.1 350.196C191 350.196 191 350.196 190.9 350.104C190.6 350.104 190.4 350.379 190.4 350.836V351.018C190.5 351.384 190.7 351.658 190.9 351.75C191 351.75 191 351.841 191.1 351.841C191.4 351.841 191.6 351.475 191.5 351.11V351.018C191.6 350.561 191.4 350.287 191.1 350.196Z" fill="#009245"/>
<path id="Vector_135" d="M198.6 347.637C196.6 346.723 195.2 343.981 195.4 341.604C195.6 339.228 197.3 338.04 199.3 338.954C201.3 339.868 202.7 342.61 202.6 344.986C202.3 347.362 200.5 348.551 198.6 347.637ZM199.8 332.281L199.4 332.19C198.5 333.013 195.1 336.303 194.8 341.147C194.6 344.072 196.3 347.362 198.5 348.459C200.8 349.556 202.8 348.002 203 345.077C203.3 340.05 200.5 333.744 199.8 332.281Z" fill="#019CDE"/>
<path id="Vector_136" d="M189.7 302.576C189.1 302.302 188.6 302.576 188.5 303.308C188.5 304.039 188.9 304.861 189.5 305.136H189.6C190.4 305.501 191 305.318 191.9 305.684L191.6 309.249L190.9 308.883V309.523L190.6 309.34L190.5 310.254C190.3 310.163 190.1 310.254 190.1 310.528L189.9 312.905L189 312.63C189 312.63 187 311.899 186.1 311.534C185.1 310.985 184.2 310.437 183.2 309.706C182.8 309.431 182.4 309.157 182 308.7C182 308.7 182 308.7 181.9 308.609C181.8 308.517 181.7 308.609 181.7 308.7V308.883L179.2 307.969L178.8 314.093L181.3 315.555V315.738C181.3 315.921 181.4 316.012 181.5 316.012C181.5 316.012 181.5 316.012 181.6 316.012L182.1 315.921C182.2 315.921 182.4 315.921 182.5 316.012C183.6 316.286 184.6 316.652 185.7 317.109C185.9 317.2 186.2 317.292 186.5 317.475C188.5 318.389 191.3 320.034 191.3 320.034C191.9 320.308 192.5 320.399 193 320.491C193.7 320.674 194.3 320.674 195 320.765C195.1 320.765 195.2 320.856 195.4 320.856H195.5C196.3 321.405 197 322.319 197.3 323.416L196.5 323.233C196.4 323.233 196.3 323.324 196.3 323.507L196.5 325.152C196.6 325.701 196.9 326.249 197.3 326.523C197.4 326.523 197.4 326.615 197.5 326.615L198 326.706L198.3 331.002V331.093C198.3 331.459 198.5 331.733 198.8 331.824H198.9L199.5 332.007L199.9 332.099L200.3 332.19C200.6 332.281 200.8 332.007 200.8 331.642L200.5 327.346L200.8 327.437C201.3 327.529 201.6 327.163 201.6 326.523L201.5 324.878C201.5 324.695 201.4 324.604 201.3 324.512L200.4 324.33C200 321.77 199 319.668 196.6 316.926C196.4 316.743 196.3 316.561 196.1 316.378C195.7 316.012 194.9 315.555 194.7 315.007C194.6 314.733 194.5 314.458 194.5 314.184L194.6 312.539C194.6 312.265 194.5 311.991 194.2 311.808L194.3 310.894L194 310.711V310.071L193.3 309.706L193.6 306.141C194.5 306.781 194.9 307.329 195.8 307.786C196.4 308.06 196.9 307.786 197 307.055C197.1 306.324 196.7 305.593 195.9 305.227C195.1 304.861 194.2 304.953 193 304.404C191.8 303.856 190.5 303.033 189.7 302.576C189.7 302.668 189.7 302.668 189.7 302.576Z" fill="#C19B21"/>
<path id="Vector_137" d="M199.1 339.776C197.5 339.045 196.1 339.959 196 341.97C195.9 343.067 196.3 344.346 196.9 345.352L197 343.524L196 343.067L196.8 341.696L197.5 340.325L198 342.335L198.5 344.346L197.6 343.889L197.4 346.174C197.7 346.448 198.1 346.723 198.5 346.905C198.9 347.088 199.3 347.18 199.6 347.18L199.8 344.895L198.9 344.438L199.6 342.975L200.3 341.604L200.8 343.615L201.3 345.626L200.3 345.169L200.2 346.905C200.9 346.54 201.4 345.809 201.5 344.62C201.9 342.701 200.7 340.507 199.1 339.776Z" fill="white"/>
<path id="Vector_138" d="M196.9 345.26C196.3 344.255 195.9 343.067 196 341.878C196.1 339.959 197.5 338.954 199.1 339.685C200.7 340.416 201.9 342.61 201.7 344.62C201.6 345.717 201.1 346.54 200.4 346.905L200.3 347.728L199.6 347.362V347.088C199.2 347.088 198.9 346.997 198.5 346.814C198.1 346.631 197.8 346.357 197.4 346.083V346.357L196.7 345.991L196.9 345.26ZM199.2 338.954C197.2 338.04 195.5 339.228 195.3 341.604C195.1 343.981 196.6 346.723 198.5 347.637C200.5 348.551 202.2 347.362 202.4 344.986C202.6 342.61 201.1 339.868 199.2 338.954Z" fill="#009245"/>
<path id="Vector_139" d="M200.6 345.169L200.2 344.986L199.9 344.803L199.7 347.088V347.362L200.4 347.728L200.5 346.905L200.6 345.169Z" fill="#009245"/>
<path id="Vector_140" d="M200.5 341.604L199.7 342.975L199 344.346L199.9 344.803L200.2 344.986L200.6 345.169L201.5 345.626L201 343.524L200.5 341.604Z" fill="#009245"/>
<path id="Vector_141" d="M197.7 343.798L197.4 343.615L197.1 343.432L196.9 345.26V345.991L197.6 346.357V346.083L197.7 343.798Z" fill="#009245"/>
<path id="Vector_142" d="M197.6 340.233L196.9 341.604L196.1 342.975L197.1 343.432L197.4 343.615L197.7 343.798L198.7 344.255L198.1 342.153L197.6 340.233Z" fill="#009245"/>
</g>
</g>
</g>
</g>
</g>
</g>
</g>
</g>
<g id="Group_89">
<path id="Vector_143" d="M221 160.369C220.9 160.369 220.7 160.369 220.6 160.277L206.6 153.879C206.1 153.697 205.9 153.148 206.2 152.691C206.4 152.234 207 152.051 207.5 152.326L221.5 158.724C222 158.906 222.2 159.455 221.9 159.912C221.7 160.186 221.4 160.369 221 160.369Z" fill="#54CBCC"/>
<path id="Vector_144" d="M228 153.057C227.6 153.057 227.2 152.783 227 152.417L223 139.621C222.8 139.164 223.2 138.616 223.7 138.524C224.2 138.341 224.8 138.707 224.9 139.164L228.9 151.96C229.1 152.417 228.7 152.965 228.2 153.057C228.2 153.057 228.1 153.057 228 153.057Z" fill="#54CBCC"/>
<path id="Vector_145" d="M239 154.885C238.8 154.885 238.6 154.793 238.4 154.702C238 154.428 237.9 153.788 238.2 153.422L247.2 142.454C247.5 142.089 248.2 141.997 248.6 142.272C249 142.546 249.1 143.186 248.8 143.551L239.8 154.519C239.6 154.793 239.3 154.885 239 154.885Z" fill="#54CBCC"/>
</g>
</g>
</g>
</g>
<defs>
<clipPath id="clip0">
<rect width="500" height="457" fill="white"/>
</clipPath>
</defs>
</svg>
