<?xml version="1.0" encoding="utf-8"?>
<!-- Generator: Adobe Illustrator 24.1.2, SVG Export Plug-In . SVG Version: 6.00 Build 0)  -->
<svg version="1.1" id="Capa_1" xmlns="http://www.w3.org/2000/svg" xmlns:xlink="http://www.w3.org/1999/xlink" x="0px" y="0px"
	 viewBox="0 0 500 457" style="enable-background:new 0 0 500 457;" xml:space="preserve">
<style type="text/css">
	.st0{clip-path:url(#SVGID_2_);}
	.st1{fill:#F2C8A2;}
	.st2{fill:#E6B88F;}
	.st3{fill:#D4A672;}
	.st4{fill:#FFFFFF;}
	.st5{fill:#E8E8E8;}
	.st6{fill:#4570BF;}
	.st7{fill:#375999;}
	.st8{fill:#F2F2F2;}
	.st9{fill:#A33D3D;}
	.st10{fill:#FFE2C2;}
	.st11{fill:#F2D0A9;}
	.st12{fill:#DEBC95;}
	.st13{fill:#F2CA9D;}
	.st14{fill:#FF7A7A;}
	.st15{fill:#EDEDED;}
	.st16{fill:#AD7B45;}
	.st17{fill:#996936;}
	.st18{fill:#805A33;}
	.st19{fill:#5A746D;}
	.st20{fill:#4B615B;}
	.st21{fill:#D97736;}
	.st22{fill:#E0B389;}
	.st23{fill:#CCA17A;}
	.st24{fill:#B38C60;}
	.st25{fill:#FFB463;}
	.st26{fill:#375399;}
	.st27{fill-rule:evenodd;clip-rule:evenodd;fill:#6EE06B;}
	.st28{fill-rule:evenodd;clip-rule:evenodd;fill:#C1E34E;}
	.st29{opacity:0.3;fill:#2F2F2F;enable-background:new    ;}
	.st30{opacity:0.53;fill-opacity:0.72;enable-background:new    ;}
	.st31{fill:#E3A714;}
	.st32{fill:#C19130;}
	.st33{fill:#FFD700;}
	.st34{fill:#D3921E;}
	.st35{fill:#E8AF2E;}
	.st36{fill:#F2BB4C;}
	.st37{opacity:0.25;fill:#C18D53;enable-background:new    ;}
	.st38{fill:#FF9916;}
	.st39{opacity:0.25;}
	.st40{opacity:0.25;fill:#FF9916;enable-background:new    ;}
	.st41{opacity:0.42;fill:#010101;enable-background:new    ;}
	.st42{opacity:0.65;fill:#D2D2D2;enable-background:new    ;}
	.st43{opacity:0.78;}
	.st44{opacity:0.78;enable-background:new    ;}
	.st45{fill:#009245;}
	.st46{fill:#019CDE;}
	.st47{fill:#C19B21;}
	.st48{fill:#54CBCC;}
</style>
<g>
	<defs>
		<rect id="SVGID_1_" width="500" height="457"/>
	</defs>
	<clipPath id="SVGID_2_">
		<use xlink:href="#SVGID_1_"  style="overflow:visible;"/>
	</clipPath>
	<g id="elecciones2_2" class="st0">
		<g id="mano4">
			<g id="mano4_2">
				<g id="Group">
					<g id="Group_2">
						<path id="Vector" class="st1" d="M471.5,268c0,0,1.8-3,4.4-5.6s6.9-4.4,10.8-7.6c5.5-4.4,12.9-13.3,14.9-15.7
							c1.9-2.4,4.2-4,8.3-7.4c4-3.4,10.7-7.9,12.9-9.9c2.2-1.9,1.7-4.2-0.6-4.7c-2.3-0.5-7.5,4.1-10.3,5.7c-2.9,1.6-11.9,8-12.2,6.2
							c-0.3-1.7,3.8-5.1,8.7-10.6c4.9-5.5,10.2-12.8,12.9-15.4c2.8-2.7,0-4.3-1.5-4.7c-1.5-0.4-4.8,3.2-7.1,5.7
							c-2.3,2.5-4.8,4-10.8,10.2c-6,6.2-8,7-8,6.2c0-0.8,4.1-7.3,6.1-10.2c2-2.9,9.8-15.6,11.3-18.3c1.5-2.7,1-4.6-1.9-5.4
							c-2.9-0.9-5,3-7.6,6.4c-2.6,3.4-13.3,19.8-15.3,22.8c-1.6,2.3-3.6,0.9-2.6-1.7c2.4-6.1,3.1-8.4,4.2-12.6
							c1.1-4.2,4.9-12.8,4.8-16.1c-0.1-3.3-4-2.3-4-2.3s-1.3-0.7-5.5,8.4c-6.5,14.3-8.7,24.4-11.5,27.6c-2.8,3.2-6.9,6.3-6.9,6.3
							l-1-1.1c0,0-0.1-8.1,0.4-14c0.5-5.9-6.6-10.2-8.9-8.6s0.2,4.9-0.2,12.2c-0.2,3.7-3.6,13.8-3.6,13.8
							c-0.1,8.3,3.4,20.5,3.4,20.5l-5.6,7.9L471.5,268z"/>
						<path id="Vector_2" class="st2" d="M503.1,233c-2,1.6-5,5.2-8.4,9.2c-3.3,4-11.2,13-18.4,12.3c-7.2-0.6-16.2-6-19.7-12.6
							c-3.5-6.6-1.3-15.3-0.6-21.6c0.8-6.3-0.8-11.6-0.8-11.6s-0.1,0.1-0.2,0.3c0.1,1.4,0.2,2.9,0.2,4.8c-0.2,3.7-3.6,13.8-3.6,13.8
							c-0.1,8.3,3.4,20.5,3.4,20.5l-0.2,0.3c-1.8,2.6-4.6,6.4-4.6,6.4s5.6-5.7,7.2-3.9c8.9,7.9,16.1,9.9,19.8,10.4
							c2.6-2,6.1-3.7,9.4-6.4c5.5-4.4,12.9-13.3,14.9-15.7c1.9-2.4,4.2-4,8.3-7.4c4-3.4,10.7-7.9,12.9-9.9c1.1-1,1.5-2,1.4-2.8
							C521,223.7,505,231.4,503.1,233z"/>
						<g id="Group_3">
							<path id="Vector_3" class="st2" d="M463.1,214.4c0.6,0.2,0.8,2,0.9,3.5c0.1-2.5,0.2-5.4,0.4-7.9v-0.1
								c-0.1,1.1-0.6,2.9-2.6,3.5c-2.2,0.6-3.6,0.9-3.6,0.9S462.1,214.1,463.1,214.4z"/>
						</g>
						<path id="Vector_4" class="st2" d="M464.9,225.1c0,0,13.6,8.6,7.6,23.4c0,0,16.8-9,23.2-16.6c0,0-11.6,9-17.8,7.6
							c-3.1-0.6-2.5-7.9-12.5-14.6L464.9,225.1z"/>
						<path id="Vector_5" class="st2" d="M478.6,215c0,0,2.3,0,5.2,1.4c-0.4-0.5-0.5-1.4-0.1-2.5c2.4-6.1,3.1-8.4,4.2-12.6
							c1.1-4.2,4.9-12.8,4.8-16.1c-0.1-1.8-1.3-2.4-2.4-2.5c0.5,0.5,1,1.6,0.2,3.6c-1.5,3.5-5.2,13.2-6,15.7
							C483.7,204.5,481.3,211.9,478.6,215z"/>
						<path id="Vector_6" class="st2" d="M493.7,220.4c0.2-0.7,0.6-1.4,0.9-2c1.6-2.8,3.4-5.6,5.2-8.2c2-2.9,9.8-15.6,11.3-18.3
							c1.3-2.2,1.1-3.9-0.7-4.9c0.1,0.8-0.1,2.3-1.3,4c-2.1,3.1-9.3,13.5-11.7,17.5c-0.5,0.8-1,1.6-1.5,2.4c-1.1,1.7-2.2,3.4-3.3,5
							c-0.5,0.6-1,1.4-1.6,2c-0.2,0.3-0.4,0.5-0.7,0.7c-0.2,0.2-0.8,0.4-0.5,0.7c0.1,0.2,0.3,0.2,0.5,0.3c0.7,0.3,1.2,0.6,1.8,1
							c0.3,0.2,0.7,0.5,1.1,0.5c0.1,0,0.2,0,0.3-0.1c0,0,0.1-0.1,0.1-0.2C493.6,220.6,493.7,220.5,493.7,220.4z"/>
						<path id="Vector_7" class="st2" d="M499.7,228.2c0.2-0.5,0.6-1,0.7-1.1c0.4-0.5,0.9-1.1,1.3-1.6c1.3-1.5,2.7-2.9,4.1-4.3
							c0.8-0.9,1.7-1.7,2.5-2.7c4.9-5.5,10.2-12.8,12.9-15.4c2-1.9,1.1-3.3-0.1-4c-0.1,0.7-0.5,2.3-2.4,4.2
							c-2.9,2.9-9.8,11.3-13.4,14.9c-1.5,1.5-3,3-4.7,4.4c-1.1,0.9-2.4,1.9-3.9,2.2c0.8,1.5,1.7,2.7,2.8,3.9
							C499.5,228.5,499.6,228.4,499.7,228.2z"/>
						<path id="Vector_8" class="st2" d="M467,225.3c0.8-0.3,3.1-0.9,4.6-0.9l-4.4,0.2c0.7-1.6,2.7-3.6,2.7-3.6l-5.1,4.1l2.3,0.9
							C467,225.8,467,225.6,467,225.3z"/>
						<g id="Group_4">
							<path id="Vector_9" class="st3" d="M488.7,196c-0.1,0-0.1,0-0.2-0.1c-2.4-1.4-4.9-1.6-4.9-1.6c-0.2,0-0.4-0.2-0.3-0.4
								c0-0.2,0.2-0.4,0.4-0.4c0.1,0,2.7,0.2,5.3,1.6c0.2,0.1,0.2,0.3,0.1,0.5C489,195.9,488.9,196,488.7,196z"/>
						</g>
						<g id="Group_5">
							<path id="Vector_10" class="st3" d="M484.7,205.8l-4.7-1c-0.2,0-0.3-0.3-0.3-0.5c0-0.2,0.2-0.3,0.5-0.3l4.6,1
								c0.2,0,0.3,0.3,0.3,0.5C485.1,205.7,484.9,205.9,484.7,205.8z"/>
						</g>
						<g id="Group_6">
							<path id="Vector_11" class="st3" d="M499.1,208.9c-0.1,0-0.1,0-0.2,0l-4.4-2.2c-0.2-0.1-0.2-0.3-0.1-0.5
								c0.1-0.2,0.3-0.2,0.5-0.1l4.4,2.2c0.2,0.1,0.2,0.3,0.1,0.5C499.4,208.9,499.2,208.9,499.1,208.9z"/>
						</g>
						<path id="Vector_12" class="st2" d="M462.8,254.4c0,0,2.8,1.9,1.5,3.8c-1.3,1.9-2.4,3.5-2.4,3.5l9.5,5.5c0,0,3.3-4,6-6.2
							C480.2,258.7,462.8,254.4,462.8,254.4z"/>
					</g>
					<path id="Vector_13" class="st4" d="M476,266.2l-25.6-14.6l-1.7,2.5l25.6,14.6L476,266.2z"/>
					<path id="Vector_14" class="st5" d="M476,266.2l-13.1-7.5l-1.7,2.5l13.1,7.5L476,266.2z"/>
					<path id="Vector_15" class="st6" d="M445.9,252.5l29.8,17l-50.8,80.8l-34.7-19.7L445.9,252.5z"/>
					<path id="Vector_16" class="st7" d="M445.9,252.5l21.7,17.7L417.9,346l7,4.3l50.8-80.8L445.9,252.5z"/>
				</g>
				<path id="Vector_17" class="st8" d="M465.1,277.2c-1,0.4-2.2-0.1-2.6-1s0.1-2,1.1-2.4c1-0.4,2.2,0.1,2.6,1
					C466.6,275.8,466.1,276.9,465.1,277.2z"/>
				<g id="Group_7">
					<path id="Vector_18" class="st3" d="M502.3,233.5c-5.8-16.8-25.8-19.2-26-19.2c-0.2,0-0.4,0.1-0.4,0.3s0.1,0.4,0.3,0.4
						c0.2,0,19.7,2.3,25.3,18.7c0,0.2,0.2,0.3,0.4,0.3h0.1C502.2,233.9,502.3,233.7,502.3,233.5z"/>
					<path id="Vector_19" class="st3" d="M464.8,224.4c-0.2-0.1-0.4,0-0.5,0.1c-0.1,0.2,0,0.4,0.1,0.5c0.1,0.1,13.1,7.3,8.1,22.6
						c-0.1,0.2,0.1,0.4,0.3,0.5h0.1c0.2,0,0.3-0.1,0.4-0.3C478.4,232,464.9,224.5,464.8,224.4z"/>
					<path id="Vector_20" class="st3" d="M483.8,234.5c-0.8-9.7-6-13.3-6.2-13.4c-0.2-0.1-0.4-0.1-0.5,0.1s-0.1,0.4,0.1,0.5
						c0,0,1.8,1.3,3.4,4.1c0,0.5,0.1,6.6-2.3,12.5c-0.1,0.2,0,0.4,0.2,0.5h0.1c0.2,0,0.3-0.1,0.4-0.2c1.7-4.5,2.2-9,2.3-11.3
						c0.8,1.9,1.5,4.3,1.8,7.4c0.6,7.4,3.2,10.3,3.3,10.5c0.1,0.1,0.2,0.1,0.3,0.1c0.1,0,0.2,0,0.2-0.1c0.2-0.1,0.2-0.4,0.1-0.5
						C486.9,244.6,484.4,241.7,483.8,234.5z"/>
					<path id="Vector_21" class="st3" d="M474.1,260.9c-1.3,0-2.7-0.2-4.2-0.7c-0.3-0.1-0.4-0.4-0.3-0.5c0.1-0.3,0.4-0.4,0.6-0.3
						c6.5,2.1,11.5-1.9,11.5-1.9c0.2-0.2,0.5-0.2,0.7,0c0.2,0.2,0.2,0.5,0,0.6C482.2,258.3,478.9,260.9,474.1,260.9z"/>
					<path id="Vector_22" class="st3" d="M459.4,215.1c-0.2,0-0.4,0-0.6,0c-0.2,0-0.4-0.2-0.3-0.4c0-0.2,0.2-0.4,0.4-0.3
						c2.8,0.2,4.3-1,4.3-1c0.2-0.1,0.4-0.1,0.5,0c0.1,0.2,0.1,0.4,0,0.5C463.6,214,462.1,215.1,459.4,215.1z"/>
				</g>
			</g>
		</g>
		<g id="mano3">
			<g id="mano3_2">
				<g id="Group_8">
					<path id="Vector_23" class="st9" d="M358.1,217.5c6-4.6,32.9-2.7,40.9,11s-23,10.1-30.9,6.4
						C360.1,231.2,352.1,222.1,358.1,217.5z"/>
					<g id="Group_9">
						<path id="Vector_24" class="st10" d="M380,292.5c0.5,2.5,12-56.7,14.2-85.2c0.4-4.9,2.1-6.6,5.5-9.2
							c3.5-2.7,11.7-13.5,13.7-16.5c2-3,5.8-7,7.4-8.7c1.6-1.6,4.4-5.8,5.2-7.9c0.8-2.1,1.2-6,0.7-8.8c-0.4-2.7-3.8-1.1-3.8-1.1
							c3.1-9-2.1-11.3-2.1-11.3s4-6,6.7-10.1c2.7-4.1,0.2-7-2.5-5.5c-2.7,1.6-10.1,11.9-13.7,16.5c-3.6,4.7-10.3,12.2-10.3,12.2
							l-2.1-1.1c3.1-3.9,10.5-14.3,12-16.5c1.5-2.3,11.3-13.8,7.3-15.4c-4-1.6-10.3,7.1-13.9,11.8c-3.6,4.7-19.5,24.6-19.5,24.6
							l0.1-3.6c0,0,1.2-0.9,2.8-7.7c1.7-6.8-2.5-9-3.5-9.1c-1.1-0.1-7.6,13.3-10.9,24.2c-3.3,11-5.5,16.9-4.7,27.6
							c1.4,16.6-23.6,87-23.6,87"/>
						<path id="Vector_25" class="st11" d="M427.4,127.8c0,1.2-0.3,3.7-2.8,6.9l-1.8,2.8c-1,0-2.4-0.1-3.8-0.9c0,0,2.1,1.1,3.1,2
							l-1.8,2.7c0,0-2.3,1.7-3.7,4c-0.5,0.8-1.1,1.8-1.6,2.9c-0.8,0.1-2.2,0-4-1c0,0,2.1,1.2,3.3,2.4c-0.8,1.5-1.9,3-3.4,4.6
							c-3.2,3.3-4.9,5.6-4.9,5.6l1.8,1.5c0,0,0.9,1,2.7-1.6c1.9-2.7,5.7-6.7,5.7-6.7s-0.6-6.5,5.2-9.1h-0.1c0,0,4-6,6.7-10.1
							C429.5,130.6,428.8,128.3,427.4,127.8z"/>
						<path id="Vector_26" class="st11" d="M418.3,123.8c-0.1,0-0.2-0.1-0.3-0.1c0,1.4-0.6,4.5-4.3,9c0,0,0,0.1-0.1,0.1
							c-0.3,0.3-1.4,1.2-4.2-0.4c0,0,1.8,1,2.9,1.9c-2,2.5-4.6,5.7-7.1,8.9c-1.1-0.1-2.5-0.4-4.2-1.3c0,0,2.1,1.2,3.4,2.2
							c-4.5,5.7-8.7,10.9-8.7,10.9l3.6,1.1c0,0,0,0,0-0.1l-0.5-0.3c3.1-3.9,10.5-14.3,12-16.5C412.4,137,422.3,125.5,418.3,123.8z"
							/>
						<path id="Vector_27" class="st11" d="M422.2,144.6c-0.4,0.3-1.1,1.3-1.4,4c-0.2,2.2-0.1,4.8-1.8,8.3c-1.9-1.1-2.6-3.2-2.6-3.2
							c0,2.1,1.1,3.6,2,4.4c-1.3,2.4-3.5,5.1-6.9,8.4l1.5,3.9c0,0,6.5-6.5,7.6-9.9c0,0,0.2-2.7,2.4-5.8
							C425,149,423.5,146,422.2,144.6z"/>
						<path id="Vector_28" class="st11" d="M426.8,156.1c-0.1-0.9-0.6-1.4-1.2-1.6c-0.5,0.5-0.7,2-0.6,4.4c0.1,2.1-0.4,4.4-1.9,6.9
							c-1.6-1.3-2.3-2.8-2.3-2.8c-0.5,1.5,0.7,3.4,1.4,4.2c-0.5,0.7-1.2,1.5-1.9,2.3c-3.7,4-6.3,4.6-9.2,9
							c-2.9,4.5-15.4,21.8-24,23.1c-6.3,1-9.2-0.2-9.7-0.3c0.8,0.2,9.1,3.1,9.2,6c0.2,3.1-5.6,29.3-5.6,29.3l9,4.6
							c0,0,1.8-12,3-21.9c0.7-5.3,1.1-10.3,1.2-12.1c0.4-4.9,2.1-6.6,5.5-9.2c3.4-2.7,11.7-13.5,13.7-16.5c2-3,5.8-7,7.4-8.7
							c1.6-1.6,4.4-5.8,5.2-7.9C426.8,162.8,427.2,158.9,426.8,156.1z"/>
						<path id="Vector_29" class="st12" d="M388.6,203.9c-0.2,0-0.4-0.2-0.5-0.4c-0.1-0.3,0.1-0.5,0.4-0.5c0,0,4.4-0.9,7.9-3.1
							c0.2-0.2,0.5-0.1,0.7,0.1c0.2,0.2,0.1,0.5-0.1,0.6c-3.7,2.3-8.1,3.2-8.3,3.2C388.7,203.9,388.6,203.9,388.6,203.9z"/>
						<path id="Vector_30" class="st11" d="M385.1,159.9c-0.1,2-0.3,5.9-1.2,9.7c0,0,7.9,6.4,5.8,16.3c0,0,8.6-1.4,14.6-7.1
							c0,0-5.8,3.8-9.9,1.6c-3.9-2.1-8-12.9-9.1-20.7L385.1,159.9z"/>
						<path id="Vector_31" class="st13" d="M384.9,157.9v-1.2c0,0,0.7-0.5,1.9-4.4c-0.6,1.1-2.5,3.8-5.2,3.9
							C381.6,156.3,384.2,156.4,384.9,157.9z"/>
						<g id="Group_10">
							<path id="Vector_32" class="st12" d="M423.2,165.2c0,0-2.4-0.9-2.1-4.5c0.2-2.1,1.3-4.1,2.2-5.4c0.1-0.2,0.1-0.5-0.2-0.6
								c-0.2-0.1-0.5-0.1-0.7,0.2c-1,1.4-2.2,3.6-2.4,5.8c0,0.3,0,0.5,0,0.7c-0.3,0.5-4.3,5.8-7.1,8c-0.8-3-2.4-5.6-4.4-7.6
								c1.3-1.6,2.6-2.9,3.7-4.2c1.5-1.7,2.8-3,3.5-4.1c0.3,1,1,2.1,2.2,3.2c0.1,0.1,0.2,0.1,0.3,0.1c0.1,0,0.3-0.1,0.4-0.2
								c0.2-0.2,0.2-0.5,0-0.6c-2.9-2.6-2.1-4.9-2-5c0-0.1,0-0.1,0-0.2c0.2-0.7,0.5-1.6,0.9-2.7c0.7-1.6,2-4,3.3-3.8
								c0.1,0,0.2,0,0.3,0c0.3-0.1,0.4-0.3,0.4-0.5c0-0.2-0.3-0.4-0.5-0.4c-1.6-0.3-3.1,1.2-4.4,4.4c-0.6,1.4-0.9,2.6-1.2,3.6
								c-0.2,0.7-0.3,1.3-0.5,1.6c-0.7,1-2,2.5-3.4,4c-1.1,1.2-2.3,2.6-3.6,4.1c-6.1-5.8-14.8-7.4-14.9-7.4
								c-0.3-0.1-0.5,0.1-0.6,0.4c-0.1,0.3,0.1,0.5,0.4,0.5c0.2,0,18.7,3.5,19.8,18.4c0,0.3,0.2,0.5,0.5,0.5c0.3,0,0.5-0.3,0.5-0.5
								c-0.1-0.9-0.2-1.7-0.4-2.6c2.3-1.6,5.6-5.8,7-7.6c0.6,2.5,2.5,3.2,2.6,3.2c0.1,0,0.1,0,0.2,0c0.2,0,0.4-0.1,0.5-0.3
								C423.6,165.5,423.5,165.3,423.2,165.2z"/>
							<path id="Vector_33" class="st12" d="M385.3,159.9c0-0.3-0.3-0.5-0.5-0.5c-0.3,0-0.5,0.3-0.5,0.5c0.4,5.2-1.2,9.3-1.2,9.4
								c-0.1,0.2,0,0.4,0.1,0.5c0.1,0.1,7.4,7.1,6,14.2c0,0.3,0.1,0.5,0.4,0.5h0.1c0.2,0,0.4-0.2,0.5-0.4c1.4-6.9-4.8-13.5-6-14.8
								C384.4,168.4,385.6,164.5,385.3,159.9z"/>
						</g>
						<path id="Vector_34" class="st11" d="M373.2,170.8c0.4-4.5,4-15.8,5.1-20c-1.8,4.1-3.7,9-5,13.3c-3.3,11-5.5,16.9-4.7,27.6
							c0.1,1.1,0.1,2.2,0,3.4c-0.2,6-1.9,13.3-3.3,18.4v0.2c0,0,3.2-9.1,4.4-12.5c1.1-3.4,5.2-1.3,5.2-1.3l-0.2-0.3
							c1.6,1.1,2.6,1.6,2.6,1.6C367.8,194,372.7,176.6,373.2,170.8z"/>
					</g>
					<path id="Vector_35" class="st14" d="M356.3,219.7c0.6,1.8,2.5,4.8,7.7,7.9c8.3,5,31.8,11.6,36.3,5.6c0,0-3.3,9-9.3,29.2
						c-7,21-8,32-8,32l-37-11L356.3,219.7z"/>
				</g>
				<path id="Vector_36" class="st13" d="M394.1,209.3c-1.2,0.2-2.1,1.1-2.1,2.3c0,0.1,0,0.2,0,0.3c-0.7,0.1-1.4,0.2-2.1,0.3
					c0-0.1,0-0.1,0-0.2v-0.1c-0.1-0.2-0.1-0.3-0.2-0.5c0,0,0,0,0-0.1c-0.2-0.4-0.6-0.6-0.9-0.8c-0.4-0.2-0.8-0.3-1.2-0.3
					c-1.3,0-2.3,0.9-2.5,2c-1.1-0.1-2.1-0.2-3.1-0.3c0,0,0,0,0-0.1v-0.1c-0.1-0.2-0.1-0.3-0.2-0.5c0,0,0,0,0-0.1
					c-0.2-0.4-0.6-0.6-0.9-0.8c-0.4-0.2-0.8-0.3-1.2-0.3c-0.8,0-1.5,0.4-2,0.9c-0.9-0.3-1.8-0.5-2.6-0.8c0-0.2,0.1-0.4,0.1-0.5
					c0-0.2,0-0.4-0.1-0.5V209c-0.1-0.2-0.1-0.3-0.2-0.5c0,0,0,0,0-0.1c-0.2-0.4-0.6-0.6-0.9-0.8c-0.4-0.2-0.8-0.3-1.2-0.3
					c-0.9,0-1.6,0.4-2.1,1c-0.6-0.3-1.1-0.5-1.6-0.8c0.1-0.2,0.1-0.5,0.1-0.6c0-0.2,0-0.4-0.1-0.5v-0.1c-0.1-0.2-0.1-0.3-0.2-0.5
					c0,0,0,0,0-0.1c-0.2-0.4-0.6-0.6-0.9-0.8c-0.2-0.1-0.3-0.2-0.5-0.2l-1,4.5c0.1,0,0.2,0,0.3,0c0.8,0,1.5-0.4,1.9-0.8
					c0.5,0.3,1,0.5,1.6,0.8c0,0.2,0,0.3,0,0.5c0,0.8,0.5,1.6,1.2,1.9c0,0,0,0,0.1,0c0.2,0.1,0.3,0.2,0.5,0.2h0.1
					c0.2,0.1,0.4,0.1,0.6,0.1c0.8,0,1.5-0.4,2-0.9c0.8,0.3,1.7,0.5,2.6,0.8c-0.1,0.2-0.1,0.4-0.1,0.5c0,0.8,0.5,1.6,1.2,1.9
					c0,0,0,0,0.1,0c0.2,0.1,0.3,0.2,0.5,0.2h0.1c0.2,0.1,0.4,0.1,0.6,0.1c1.2,0,2.2-0.8,2.5-1.8c1,0.1,2.1,0.2,3.2,0.3
					c0.2,0.5,0.6,1,1.1,1.3c0,0,0,0,0.1,0c0.2,0.1,0.3,0.2,0.5,0.2h0.1c0.2,0.1,0.4,0.1,0.6,0.1c1.2,0,2.2-0.7,2.4-1.7
					c0.8-0.1,1.6-0.2,2.4-0.4c0.2,0.4,0.5,0.6,0.9,0.8c0,0,0,0,0.1,0c0.1,0.1,0.2,0.1,0.4,0.2V209.3z"/>
				<g id="Group_11">
					<path id="Vector_37" class="st4" d="M386.6,212.3c-12.5,0-21.3-6.7-21.4-6.8l0.6-0.7c0.1,0.1,13,9.9,29.5,5.4l0.3,0.9
						C392.5,212,389.4,212.3,386.6,212.3z"/>
					<g id="Group_12">
						<path id="Vector_38" class="st4" d="M366.5,208.4c1.4,0,2.5-1,2.5-2.3c0-1.3-1.1-2.3-2.5-2.3s-2.5,1-2.5,2.3
							C364,207.4,365.1,208.4,366.5,208.4z"/>
						<g id="Group_13">
							<path id="Vector_39" class="st15" d="M367.7,204.1c0.2,0.4,0.3,0.7,0.3,1.1c0,1.3-1.1,2.3-2.5,2.3c-0.4,0-0.8-0.1-1.2-0.3
								c0.4,0.7,1.2,1.2,2.2,1.2c1.4,0,2.5-1,2.5-2.3C369,205.3,368.5,204.5,367.7,204.1z"/>
						</g>
					</g>
					<g id="Group_14">
						<path id="Vector_40" class="st4" d="M372.5,211.1c1.4,0,2.5-1,2.5-2.3s-1.1-2.3-2.5-2.3s-2.5,1-2.5,2.3
							S371.1,211.1,372.5,211.1z"/>
						<g id="Group_15">
							<path id="Vector_41" class="st15" d="M373.7,206.8c0.2,0.4,0.3,0.7,0.3,1.1c0,1.3-1.1,2.3-2.5,2.3c-0.4,0-0.8-0.1-1.2-0.3
								c0.4,0.7,1.2,1.2,2.2,1.2c1.4,0,2.5-1,2.5-2.3C375,208,374.5,207.2,373.7,206.8z"/>
						</g>
					</g>
					<g id="Group_16">
						<path id="Vector_42" class="st4" d="M379.5,213.9c1.4,0,2.5-1,2.5-2.3c0-1.3-1.1-2.3-2.5-2.3s-2.5,1-2.5,2.3
							C377,212.9,378.1,213.9,379.5,213.9z"/>
						<g id="Group_17">
							<path id="Vector_43" class="st15" d="M380.7,209.6c0.2,0.4,0.3,0.7,0.3,1.1c0,1.3-1.1,2.3-2.5,2.3c-0.4,0-0.8-0.1-1.2-0.3
								c0.4,0.7,1.2,1.2,2.2,1.2c1.4,0,2.5-1,2.5-2.3C382,210.8,381.5,209.9,380.7,209.6z"/>
						</g>
					</g>
					<g id="Group_18">
						<path id="Vector_44" class="st4" d="M387.5,213.9c1.4,0,2.5-1,2.5-2.3c0-1.3-1.1-2.3-2.5-2.3s-2.5,1-2.5,2.3
							C385,212.9,386.1,213.9,387.5,213.9z"/>
						<g id="Group_19">
							<path id="Vector_45" class="st15" d="M388.7,209.6c0.2,0.4,0.3,0.7,0.3,1.1c0,1.3-1.1,2.3-2.5,2.3c-0.4,0-0.8-0.1-1.2-0.3
								c0.4,0.7,1.2,1.2,2.2,1.2c1.4,0,2.5-1,2.5-2.3C390,210.8,389.5,209.9,388.7,209.6z"/>
						</g>
					</g>
					<g id="Group_20">
						<path id="Vector_46" class="st4" d="M394.5,213c1.4,0,2.5-1,2.5-2.3c0-1.3-1.1-2.3-2.5-2.3s-2.5,1-2.5,2.3
							C392,211.9,393.1,213,394.5,213z"/>
						<g id="Group_21">
							<path id="Vector_47" class="st15" d="M395.7,208.7c0.2,0.4,0.3,0.7,0.3,1.1c0,1.3-1.1,2.3-2.5,2.3c-0.4,0-0.8-0.1-1.2-0.3
								c0.4,0.7,1.2,1.2,2.2,1.2c1.4,0,2.5-1,2.5-2.3C397,209.9,396.5,209,395.7,208.7z"/>
						</g>
					</g>
				</g>
			</g>
		</g>
		<g id="mano2">
			<g id="mano2_2">
				<g id="Group_22">
					<g id="Group_23">
						<g id="Group_24">
							<g id="Group_25">
								<path id="Vector_48" class="st16" d="M111.8,213c0,0-0.8-3.4-2.6-6.4c-1.8-3.1-5.3-5.9-8.2-10c-4-5.6-8.6-16-9.8-18.7
									c-1.2-2.7-2.9-4.9-5.8-9.1c-2.9-4.2-8-10.2-9.6-12.6c-1.6-2.5-0.4-4.4,2-4.4c2.4,0.1,6,5.8,8.3,8c2.3,2.2,9.2,10.6,10,9
									c0.8-1.6-2.2-5.8-5.3-12.3c-3.2-6.5-6.1-14.8-8-18.1c-1.9-3.3,1.3-4.1,2.8-4.1c1.6,0.1,3.7,4.2,5.2,7.1s3.5,5,7.5,12.5
									c4,7.5,5.7,8.7,6,8c0.3-0.8-1.8-8-2.9-11.3c-1.1-3.3-4.9-17.5-5.6-20.4c-0.7-2.9,0.3-4.6,3.4-4.8c3.1-0.1,4,4.2,5.5,8
									s7,22.4,8.1,25.7c0.9,2.6,3.2,1.7,3-1.1c-0.6-6.5-0.6-8.9-0.4-13.3c0.2-4.3-1-13.5,0-16.7c1-3.2,4.5-1.3,4.5-1.3
									s1.4-0.5,2.8,9.5c2.1,15.4,1.3,25.6,3.1,29.4c1.8,3.8,4.9,7.8,4.9,7.8l1.3-0.8c0,0,2.4-7.8,3.6-13.6c1.2-5.8,9.3-8.2,11-6.1
									c1.7,2.1-1.6,4.8-3.4,11.9c-0.9,3.6-0.6,14.2-0.6,14.2c-2.3,8-9.2,18.9-9.2,18.9l3.2,8.9L111.8,213z"/>
							</g>
							<g id="Group_26">
								<path id="Vector_49" class="st17" d="M91.5,171.5c1.4,2,3.3,6.2,5.4,11c2,4.7,7,15.3,14.2,16.4c7.1,1.2,17.4-1.8,22.6-7.3
									c5.3-5.5,5.7-14.4,6.8-20.7c1.1-6.2,4.1-11,4.1-11s0,0.1,0.1,0.3c-0.5,1.3-1.1,2.7-1.5,4.6c-0.9,3.6-0.6,14.2-0.6,14.2
									c-2.3,8-9.2,18.9-9.2,18.9l0.1,0.4c0.9,2.9,2.6,7.2,2.6,7.2s-3.8-6.9-5.8-5.6c-10.8,5.4-18.4,5.7-22.1,5.2
									c-1.9-2.6-4.8-5.1-7.2-8.5c-4-5.6-8.6-16-9.8-18.7c-1.2-2.7-2.9-4.9-5.8-9.1c-2.9-4.2-8-10.2-9.6-12.6
									c-0.8-1.2-0.9-2.3-0.5-3.1C76.9,158.2,90.1,169.5,91.5,171.5z"/>
							</g>
							<g id="Group_27">
								<g id="Group_28">
									<path id="Vector_50" class="st16" d="M135.5,163.3c-0.6,0-1.3,1.7-1.8,3.1c0.7-2.4,1.4-5.2,1.9-7.7v-0.1
										c-0.2,1.1-0.3,2.9,1.5,4c1.9,1.1,3.2,1.7,3.2,1.7S136.6,163.3,135.5,163.3z"/>
								</g>
							</g>
							<g id="Group_29">
								<path id="Vector_51" class="st17" d="M120.4,160.1c0,0-2.2-0.5-5.5,0.1c0.5-0.4,0.9-1.2,0.8-2.4c-0.6-6.5-0.6-8.9-0.4-13.3
									c0.2-4.3-1-13.5,0-16.7c0.6-1.7,1.9-1.9,3-1.7c-0.7,0.4-1.4,1.3-1.2,3.4c0.4,3.7,1.2,14,1.2,16.5
									C118.5,148.7,118.7,156.5,120.4,160.1z"/>
							</g>
							<g id="Group_30">
								<path id="Vector_52" class="st17" d="M104.2,161.6c0-0.2,0-0.3,0-0.5c0-0.3-0.1-0.5-0.1-0.9c-0.2-0.9-0.4-1.7-0.6-2.6
									c-0.6-2.5-1.4-4.9-2.2-7.4c-1.1-3.3-4.9-17.5-5.6-20.4c-0.6-2.5,0.1-4,2.1-4.6c-0.3,0.8-0.5,2.2,0.1,4.2
									c1.1,3.5,5,15.4,6.2,19.7c0.4,1.6,0.9,3.3,1.4,4.9c0.4,1.5,0.9,2.9,1.5,4.3c0.2,0.5,0.5,1.1,0.7,1.6
									c0.1,0.3,0.8,1.1,0.6,1.3c-0.1,0.1-0.2,0.1-0.3,0.2c-1.2,0.4-2.5,0.7-3.7,1.1h-0.1c-0.1,0-0.1-0.1-0.1-0.1
									C104,162.3,104.2,162,104.2,161.6z"/>
							</g>
							<g id="Group_31">
								<path id="Vector_53" class="st17" d="M96.2,167.7c-0.2-2-2.7-5.9-5.4-11.5c-3.2-6.5-6.1-14.8-8-18.1
									c-1.3-2.4-0.1-3.5,1.2-3.8c-0.2,0.7-0.2,2.3,1.1,4.7c1.9,3.6,6.2,13.3,8.6,17.6c2.5,4.3,4.2,7.2,6.1,8.3c0,0-1.5,0.7-3,2
									C96.4,167.4,96.2,167.7,96.2,167.7z"/>
							</g>
							<path id="Vector_54" class="st17" d="M129.2,173.5l1.5-0.2l-3.7-5.2c0,0,1.4,2.4,1.6,4l-4.2-1.2c1.4,0.4,3.5,1.6,4.1,2
								c0,0,0,0,0,0.1c-10.6,4.1-12.2,10.8-15.2,10.7c-6.4-0.2-15-11.6-15-11.6c3.9,9,17.5,21.7,17.5,21.7
								C114.5,180.1,126,174.8,129.2,173.5z"/>
							<g id="Group_32">
								<path id="Vector_55" class="st18" d="M116.3,139.3c-0.2,0-0.3-0.1-0.4-0.3c-0.1-0.2,0.1-0.4,0.3-0.5
									c2.9-0.8,5.5-0.3,5.6-0.3c0.2,0,0.3,0.2,0.3,0.4c0,0.2-0.2,0.3-0.4,0.3c0,0-2.5-0.5-5.2,0.3
									C116.3,139.3,116.3,139.3,116.3,139.3z"/>
							</g>
							<g id="Group_33">
								<path id="Vector_56" class="st18" d="M99.4,137.6c-0.2,0-0.3-0.1-0.4-0.3s0.1-0.4,0.3-0.5l4.3-1.2c0.2-0.1,0.4,0.1,0.5,0.3
									s-0.1,0.4-0.3,0.5L99.4,137.6L99.4,137.6z"/>
							</g>
							<g id="Group_34">
								<path id="Vector_57" class="st18" d="M122,150C122,150,121.9,150,122,150l-4.7-0.2c-0.2,0-0.4-0.2-0.4-0.4s0.2-0.4,0.4-0.4
									l4.7,0.2c0.2,0,0.4,0.2,0.4,0.4C122.3,149.9,122.2,150,122,150z"/>
							</g>
							<g id="Group_35">
								<path id="Vector_58" class="st18" d="M102.5,149.3c-0.2,0-0.3-0.1-0.4-0.3c0-0.2,0.1-0.4,0.3-0.5l4.9-1.1
									c0.2,0,0.4,0.1,0.5,0.3c0,0.2-0.1,0.4-0.3,0.5L102.5,149.3z"/>
							</g>
							<g id="Group_36">
								<path id="Vector_59" class="st18" d="M86.4,144.1c-0.1,0-0.3-0.1-0.3-0.2c-0.1-0.2,0-0.4,0.2-0.5l3-1.3
									c0.2-0.1,0.4,0,0.5,0.2c0.1,0.2,0,0.4-0.2,0.5l-3,1.3C86.6,144.1,86.5,144.1,86.4,144.1z"/>
							</g>
							<g id="Group_37">
								<path id="Vector_60" class="st18" d="M92,155.7c-0.1,0-0.3-0.1-0.3-0.2c-0.1-0.2,0-0.4,0.1-0.5l3.8-2c0.2-0.1,0.4,0,0.5,0.1
									c0.1,0.2,0,0.4-0.1,0.5l-3.8,2C92.2,155.7,92.1,155.7,92,155.7z"/>
							</g>
							<g id="Group_38">
								<path id="Vector_61" class="st18" d="M80.6,160.5c-0.1,0-0.2,0-0.3-0.1c-0.1-0.2-0.1-0.4,0-0.5l2.3-1.8
									c0.2-0.1,0.4-0.1,0.5,0c0.1,0.2,0.1,0.4,0,0.5l-2.3,1.8C80.7,160.5,80.7,160.5,80.6,160.5z"/>
							</g>
							<g id="Group_39">
								<path id="Vector_62" class="st18" d="M85.3,166.3c-0.1,0-0.2,0-0.3-0.1c-0.1-0.2-0.1-0.4,0-0.5l2.3-1.8
									c0.2-0.1,0.4-0.1,0.5,0c0.1,0.2,0.1,0.4,0,0.5l-2.3,1.8C85.5,166.3,85.4,166.3,85.3,166.3z"/>
							</g>
							<g id="Group_40">
								<path id="Vector_63" class="st17" d="M124.1,202c0,0-3.3,1.1-2.6,3.3c0.7,2.2,1.3,3.9,1.3,3.9l-10.8,2.9c0,0-2-4.7-4-7.5
									C106.1,201.8,124.1,202,124.1,202z"/>
							</g>
						</g>
						<g id="Group_41">
							<path id="Vector_64" class="st4" d="M108.9,213l28.9-7.9l-0.9-2.8l-28.9,7.9L108.9,213z"/>
						</g>
						<g id="Group_42">
							<path id="Vector_65" class="st5" d="M108.9,213l14.9-4l-0.9-2.8l-14.9,4L108.9,213z"/>
						</g>
						<g id="Group_43">
							<path id="Vector_66" class="st19" d="M141,204.3l-33.7,9.1l25.4,90.3L172,293L141,204.3z"/>
						</g>
						<g id="Group_44">
							<path id="Vector_67" class="st20" d="M141,204.3l-26.1,11.9l25.9,85.1l-8.1,2.5l-25.4-90.3L141,204.3z"/>
						</g>
					</g>
					<g id="Group_45">
						<path id="Vector_68" class="st8" d="M114,221.4c0.1,1,1.1,1.7,2.2,1.6c1.1-0.1,1.9-1,1.8-2c-0.1-1-1.1-1.7-2.2-1.6
							C114.7,219.5,113.9,220.4,114,221.4z"/>
					</g>
				</g>
				<path id="Vector_69" class="st18" d="M121.3,167c-0.1-0.2-0.3-0.3-0.5-0.2c-0.3,0.1-6.4,2-10.5,11c-3,6.6-6.5,8.6-6.5,8.7
					c-0.2,0.1-0.2,0.3-0.1,0.5c0.1,0.1,0.2,0.2,0.3,0.2s0.1,0,0.2-0.1c0.1-0.1,3.7-2.1,6.8-9c1.3-2.8,2.8-4.9,4.3-6.5
					c-0.7,2.2-1.9,6.7-1.8,11.3c0,0.2,0.2,0.4,0.4,0.4c0.2,0,0.4-0.2,0.4-0.4c-0.2-6.2,2-12,2.2-12.5c2.5-2.3,4.6-2.9,4.6-2.9
					C121.3,167.4,121.4,167.2,121.3,167z"/>
				<g id="Group_46">
					<path id="Vector_70" class="st18" d="M92.7,172.5c-0.1,0-0.1,0-0.2-0.1c-0.2-0.1-0.2-0.3-0.1-0.5c10.2-14.8,30-12.3,30.2-12.3
						c0.2,0,0.3,0.2,0.3,0.4s-0.2,0.3-0.4,0.3S103,157.8,93,172.3C92.9,172.5,92.8,172.5,92.7,172.5z"/>
				</g>
				<g id="Group_47">
					<path id="Vector_71" class="st18" d="M114.2,205c-6.6,0-10.2-4.8-10.2-4.9c-0.1-0.2-0.1-0.4,0.1-0.5c0.2-0.1,0.4-0.1,0.5,0.1
						c0,0.1,3.7,5.1,10.6,4.6c0.2,0,0.4,0.1,0.4,0.3s-0.1,0.4-0.3,0.4C115,205,114.6,205,114.2,205z"/>
				</g>
				<g id="Group_48">
					<path id="Vector_72" class="st18" d="M115.6,193.9c-0.2,0-0.4-0.2-0.4-0.4c-0.5-16.3,14.5-20.4,14.6-20.4
						c0.2-0.1,0.4,0.1,0.5,0.3c0.1,0.2-0.1,0.4-0.3,0.5c0,0-3.7,1-7.2,3.9c-3.3,2.7-7.1,7.6-6.8,15.8
						C116,193.7,115.8,193.9,115.6,193.9z"/>
				</g>
				<g id="Group_49">
					<path id="Vector_73" class="st18" d="M139.3,164.7C139.2,164.7,139.2,164.7,139.3,164.7c-3.1-0.5-4.3-2.2-4.4-2.3
						c-0.1-0.2-0.1-0.4,0.1-0.5c0.2-0.1,0.4-0.1,0.5,0.1c0,0,1.1,1.5,3.8,2c0.2,0,0.3,0.2,0.3,0.4
						C139.6,164.5,139.4,164.7,139.3,164.7z"/>
				</g>
			</g>
		</g>
		<g id="mano1">
			<g id="mano1_2">
				<g id="Group_50">
					<path id="Vector_74" class="st21" d="M69.5,262.7c-7.3-2.5-32,7.7-34.4,22.9c-2.4,15.4,25.3,2.3,31.5-3.6
						C72.7,276.1,76.8,265.1,69.5,262.7z"/>
					<g id="Group_51">
						<path id="Vector_75" class="st22" d="M76.7,339.9c0.5,2.5-32.3-49.5-45-75.7c-2.2-4.5-4.4-5.5-8.6-6.9
							c-4.3-1.5-16-9.1-19-11.3c-3-2.2-8.1-4.8-10.2-5.9c-2.1-1.1-6.3-4.1-7.8-5.8c-1.6-1.7-3.3-5.3-4-8c-0.7-2.7,3.2-2.2,3.2-2.2
							c-6.3-7.5-2.3-11.3-2.3-11.3s-6-4.5-10.1-7.5c-4.1-3-2.8-6.6,0.4-5.9c3.1,0.6,13.9,8,19,11.3c5.1,3.3,14.2,8.3,14.2,8.3
							l1.5-1.7c-4.4-2.7-15.1-10.1-17.4-11.8c-2.2-1.6-15.7-9.4-12.6-12.2c3.1-2.7,12.3,3.6,17.5,6.8C0.7,203,23,217,23,217
							l-1.4-3.3c0,0-1.4-0.5-5.5-6.3c-4.1-5.8-1-9.2-0.1-9.7c1-0.4,12.1,10.1,19.2,19.4c7.2,9.3,11.5,14.2,14.7,24.5
							c4.9,16.1,54.5,74.6,54.5,74.6"/>
						<path id="Vector_76" class="st23" d="M-1.5,207.8c0.8-1.4,2.4-3.1,2.4-3.1c-1.2,1.4-2.5,2.1-3.5,2.5c-3.6-2.2-7.2-4.5-10-6.1
							c0.7-1.2,2-2.7,2-2.7c-2.1,2.3-3.4,1.8-3.8,1.6c0,0-0.1,0-0.1-0.1c-5.2-3-6.8-5.8-7.3-7c-0.1,0.1-0.2,0.1-0.3,0.2
							c-3.1,2.7,10.4,10.6,12.6,12.2c2.2,1.6,13,9,17.4,11.8l-0.3,0.4h0.1l2.9-2.2C10.7,215.4,4.8,211.8-1.5,207.8z"/>
						<path id="Vector_77" class="st23" d="M-3.5,219.3c-2-1-3.6-2.1-4.9-3.2c0.6-1.5,2.2-3.3,2.2-3.3c-1.3,1.6-2.6,2-3.4,2.2
							c-1-0.8-1.8-1.6-2.6-2.3c-2.2-1.6-5-2.6-5-2.6l-2.7-2c0.6-1.2,2.1-2.8,2.1-2.8c-1,1.2-2.4,1.7-3.3,2l-2.8-2
							c-3.5-2.1-4.7-4.4-5.2-5.6c-1.2,1-0.9,3.4,1.9,5.5c4.1,3,10.1,7.5,10.1,7.5s0,0-0.1,0.1c6.4,0.6,8.2,6.9,8.2,6.9
							s5.1,2.7,7.8,4.6C1.5,226.2,2,225,2,225l1.1-1.9C3.2,223,0.8,221.3-3.5,219.3z"/>
						<g id="Group_52">
							<path id="Vector_78" class="st23" d="M31.7,264.2c-2.2-4.5-4.4-5.5-8.6-6.9c-4.3-1.5-16-9.1-19-11.3c-3-2.2-8.1-4.8-10.2-5.9
								c-2.1-1.1-6.3-4.1-7.8-5.8c-1.6-1.7-3.3-5.3-4-8c-0.2-0.9,0.1-1.5,0.6-1.8c0.6,0.3,1.4,1.6,2.2,3.9c1,3,3.3,5.8,8.3,8.4
								c5,2.6,7.6,2.4,12,5.7c4.4,3.3,22.6,15.7,31.1,14.3c6.2-1,8.6-3,9-3.3c-0.7,0.5-7.4,5.8-6.4,8.6c1,3,16.1,25.9,16.1,25.9
								l-6.8,7.1c0,0-6.1-10.7-11-19.7C34.7,270.4,32.5,265.8,31.7,264.2z"/>
						</g>
						<path id="Vector_79" class="st23" d="M0.3,231.2v4.2c0,0-8.5-4.1-10.8-6.9c0,0-1.2-2.4-4.4-4.8c-4-4.9-3.7-8.2-2.9-9.9
							c0.5,0.2,1.5,0.8,2.8,3.3C-13.4,220.8-11.9,225.8,0.3,231.2z"/>
						<path id="Vector_80" class="st24" d="M1.1,237.4c-0.2,0-0.4-0.1-0.5-0.4c-4.8-15,12.1-24.3,12.2-24.4c0.2-0.1,0.5-0.1,0.7,0.2
							c0.1,0.2,0.1,0.5-0.2,0.6c-0.2,0.1-16.3,9-11.8,23.4c0.1,0.3-0.1,0.5-0.3,0.5H1.1z"/>
						<path id="Vector_81" class="st24" d="M1.5,225c-1.9-1.1-3.3-1.8-4.9-2.7c-2-1.1-3.7-2-4.7-2.7c-0.3-0.2-0.6-0.7-1.1-1.4
							c-0.6-0.8-1.3-1.8-2.4-2.9c-2.5-2.6-4.4-3.5-5.8-2.7c-0.2,0.1-0.4,0.3-0.3,0.5c0,0.3,0.3,0.5,0.6,0.4c0.1,0,0.2-0.1,0.3-0.1
							c1.2-0.6,3.4,1.4,4.6,2.6c0.8,0.8,1.3,1.6,1.8,2.2c0,0.1,0,0.1,0.1,0.2c0,0,1.8,2.1,0,5.4c-0.1,0.2,0,0.5,0.2,0.6
							c0.1,0,0.1,0.1,0.2,0.1c0.2,0,0.4-0.1,0.4-0.3c0.8-1.5,1-2.6,0.9-3.7c1.1,0.8,2.7,1.6,4.8,2.7c1.6,0.8,3.2,1.7,5.1,2.8
							C1.3,226,1.8,225.2,1.5,225z"/>
						<path id="Vector_82" class="st24" d="M0.6,234.6c-3.3-0.8-9.8-5.2-10.3-5.5c-0.1-0.2-0.2-0.5-0.3-0.7c-1-2-2.9-3.7-4.4-4.8
							c-0.2-0.2-0.5-0.1-0.7,0.1c-0.2,0.2-0.1,0.5,0.1,0.6c1.4,1,3.2,2.5,4.1,4.4c1.6,3.2-0.2,4.8-0.3,4.8c-0.2,0.2-0.2,0.5,0,0.6
							c0.1,0.1,0.2,0.2,0.4,0.2c0.1,0,0.2,0,0.3-0.1c0.1-0.1,1.6-1.4,1.2-3.8c2.1,1.4,6.9,4.3,9.7,5h0.1c0.2,0,0.4-0.1,0.5-0.4
							C1,234.9,0.8,234.6,0.6,234.6z"/>
						<path id="Vector_83" class="st24" d="M33.1,259.6c-1.7,0-3.8-0.1-5.9-0.6c-0.3-0.1-0.4-0.3-0.4-0.5c0.1-0.3,0.3-0.4,0.6-0.4
							c4.1,1,8.6,0.5,8.6,0.5c0.3,0,0.5,0.2,0.6,0.4c0,0.3-0.2,0.5-0.4,0.5C36,259.5,34.8,259.6,33.1,259.6z"/>
						<path id="Vector_84" class="st23" d="M22.7,216.8c0.8,1.9,2.5,5.5,4.7,8.8c0,0-5.1,8.4,0.6,17.1c0,0-8.6,1.4-16.4-2.2
							c0,0,6.9,1.8,9.9-1.6c2.8-3.2,2.7-14.6,0.9-22.3L22.7,216.8z"/>
						<path id="Vector_85" class="st2" d="M22.1,214.9l-0.5-1.2c0,0-0.9-0.4-3.4-3.5c1,0.8,3.8,2.8,6.4,2.1
							C24.6,212.3,22.2,213.2,22.1,214.9z"/>
						<path id="Vector_86" class="st23" d="M37.9,223.4c-2-4.1-9.6-13.6-12.3-17.3c3.2,3.4,6.8,7.3,9.6,11.1
							c7.2,9.3,11.5,14.2,14.7,24.5c0.3,1,0.7,2.1,1.2,3.2c-3,5.2-5.9,8.5-5.9,8.5C51.6,243.6,40.5,228.6,37.9,223.4z"/>
						<path id="Vector_87" class="st24" d="M27.4,241.4c-0.2,0-0.3-0.1-0.4-0.2c-3.9-6-0.6-14.3,0.2-15.8c-0.7-0.8-3.2-4-4.6-8.6
							c-0.1-0.3,0.1-0.5,0.3-0.5c0.3-0.1,0.5,0.1,0.6,0.3c1.6,5,4.6,8.4,4.6,8.4c0.1,0.1,0.1,0.3,0.1,0.5c0,0.1-4.3,9-0.3,15.2
							c0.1,0.2,0.1,0.5-0.2,0.6C27.5,241.4,27.5,241.4,27.4,241.4z"/>
						<path id="Vector_88" class="st2" d="M47,251.3l3.7-7.5c2.3,5.8,6.9,12.7,10.3,17.4l0.1,0.2c0,0-6.4-7.6-8.8-10.4
							C50.1,248,47,251.3,47,251.3z"/>
					</g>
					<path id="Vector_89" class="st25" d="M71.9,264.1c0.1,1.9-0.6,5.2-4.3,9.8c-5.9,7.3-25.6,20.7-32.1,16.5c0,0,6.4,7.5,19.6,24.6
						c14.4,17.6,19.4,27.6,19.4,27.6l30.7-21.8L71.9,264.1z"/>
				</g>
				<path id="Vector_90" class="st13" d="M32.6,266.1c1.2-0.2,2.4,0.5,2.8,1.5c0,0.1,0.1,0.2,0.1,0.3c0.7-0.1,1.4-0.3,2-0.4
					c0-0.1,0-0.1,0-0.2c0-0.1,0-0.1,0-0.1c0-0.2,0-0.4,0-0.5c0,0,0,0,0-0.1c0.1-0.4,0.3-0.7,0.6-1c0.3-0.3,0.6-0.5,1-0.6
					c1.2-0.4,2.5,0.1,3.1,1.2c1-0.4,1.9-0.8,2.8-1.2c0,0,0,0,0-0.1c0-0.1,0-0.1,0-0.1c0-0.2,0-0.4,0-0.5c0,0,0,0,0-0.1
					c0.1-0.4,0.3-0.7,0.6-1c0.3-0.3,0.6-0.5,1-0.6c0.8-0.3,1.6-0.1,2.2,0.3c0.8-0.5,1.5-1,2.2-1.6c-0.1-0.2-0.2-0.3-0.3-0.5
					c-0.1-0.2-0.1-0.4-0.1-0.5c0-0.1,0-0.1,0-0.1c0-0.2,0-0.4,0-0.5c0,0,0,0,0-0.1c0.1-0.4,0.3-0.7,0.6-1c0.3-0.3,0.6-0.5,1-0.6
					c0.8-0.3,1.7-0.1,2.3,0.3c0.4-0.5,0.8-0.8,1.2-1.3c-0.1-0.2-0.3-0.4-0.3-0.5c-0.1-0.2-0.1-0.4-0.1-0.5c0-0.1,0-0.1,0-0.1
					c0-0.2,0-0.4,0-0.5c0,0,0,0,0-0.1c0.1-0.4,0.3-0.7,0.6-1c0.1-0.1,0.2-0.2,0.4-0.4l2.6,3.9c-0.1,0-0.2,0.1-0.3,0.1
					c-0.7,0.3-1.5,0.2-2.1-0.2c-0.4,0.4-0.8,0.8-1.2,1.3c0.1,0.1,0.2,0.3,0.2,0.4c0.3,0.7,0.1,1.6-0.4,2.2c-0.1,0.1-0.2,0.3-0.4,0.4
					l-0.1,0.1c-0.2,0.1-0.4,0.2-0.6,0.3c-0.8,0.3-1.6,0.1-2.2-0.3c-0.7,0.5-1.4,1-2.2,1.6c0.1,0.2,0.2,0.4,0.3,0.5
					c0.3,0.7,0.1,1.6-0.4,2.2c-0.1,0.1-0.2,0.3-0.4,0.4l-0.1,0.1c-0.2,0.1-0.4,0.2-0.6,0.3c-1.2,0.4-2.4-0.1-3-1
					c-0.9,0.5-1.9,0.8-2.9,1.2c0,0.5-0.2,1.1-0.5,1.6c-0.1,0.1-0.2,0.3-0.4,0.4l-0.1,0.1c-0.2,0.1-0.4,0.2-0.6,0.3
					c-1.1,0.4-2.3,0-2.9-0.9c-0.8,0.2-1.6,0.4-2.4,0.5c-0.1,0.4-0.2,0.7-0.5,1c-0.1,0.1-0.2,0.2-0.3,0.3L32.6,266.1z"/>
				<g id="Group_53">
					<path id="Vector_91" class="st4" d="M31.7,268.3l-0.1-0.9c17.2-0.9,25.7-14.1,25.8-14.3l0.9,0.5
						C58.2,253.6,49.5,267.3,31.7,268.3z"/>
					<g id="Group_54">
						<path id="Vector_92" class="st4" d="M54.9,255.3c0.5,1.2,1.9,1.8,3.2,1.4s2-1.7,1.5-2.9c-0.5-1.2-1.9-1.8-3.2-1.4
							C55.1,252.7,54.5,254.1,54.9,255.3z"/>
						<g id="Group_55">
							<path id="Vector_93" class="st15" d="M55.4,253c-0.1,0.4,0,0.7,0.1,1.1c0.5,1.2,1.9,1.8,3.2,1.4c0.4-0.1,0.7-0.4,1-0.6
								c-0.1,0.8-0.7,1.6-1.6,1.8c-1.3,0.5-2.7-0.2-3.2-1.4C54.6,254.5,54.8,253.5,55.4,253z"/>
						</g>
					</g>
					<g id="Group_56">
						<path id="Vector_94" class="st4" d="M50.3,259.7c0.5,1.2,1.9,1.8,3.2,1.4s2-1.7,1.5-2.9c-0.5-1.2-1.9-1.8-3.2-1.4
							S49.8,258.5,50.3,259.7z"/>
						<g id="Group_57">
							<path id="Vector_95" class="st15" d="M50.8,257.4c-0.1,0.4,0,0.7,0.1,1.1c0.5,1.2,1.9,1.8,3.2,1.4c0.4-0.1,0.7-0.4,1-0.6
								c-0.1,0.8-0.7,1.6-1.6,1.8c-1.3,0.5-2.7-0.2-3.2-1.4C50,258.8,50.2,258,50.8,257.4z"/>
						</g>
					</g>
					<g id="Group_58">
						<path id="Vector_96" class="st4" d="M44.7,264.4c0.5,1.2,1.9,1.8,3.2,1.4c1.3-0.5,2-1.7,1.5-2.9c-0.5-1.2-1.9-1.8-3.2-1.4
							C44.9,262,44.3,263.2,44.7,264.4z"/>
						<g id="Group_59">
							<path id="Vector_97" class="st15" d="M45.2,262.1c-0.1,0.4,0,0.7,0.1,1.1c0.5,1.2,1.9,1.8,3.2,1.4c0.4-0.1,0.7-0.4,1-0.6
								c-0.1,0.8-0.7,1.6-1.6,1.8c-1.3,0.5-2.7-0.2-3.2-1.4C44.4,263.6,44.6,262.8,45.2,262.1z"/>
						</g>
					</g>
					<g id="Group_60">
						<path id="Vector_98" class="st4" d="M37.2,266.9c0.5,1.2,1.9,1.8,3.2,1.4s2-1.7,1.5-2.9c-0.5-1.2-1.9-1.8-3.2-1.4
							S36.7,265.8,37.2,266.9z"/>
						<g id="Group_61">
							<path id="Vector_99" class="st15" d="M37.7,264.6c-0.1,0.4,0,0.7,0.1,1.1c0.5,1.2,1.9,1.8,3.2,1.4c0.4-0.1,0.7-0.4,1-0.6
								c-0.1,0.8-0.7,1.6-1.6,1.8c-1.3,0.5-2.7-0.2-3.2-1.4C36.9,266.2,37.1,265.2,37.7,264.6z"/>
						</g>
					</g>
					<g id="Group_62">
						<path id="Vector_100" class="st4" d="M30.3,268.3c0.5,1.2,1.9,1.8,3.2,1.4s2-1.7,1.5-2.9c-0.5-1.2-1.9-1.8-3.2-1.4
							C30.5,265.8,29.8,267.1,30.3,268.3z"/>
						<g id="Group_63">
							<path id="Vector_101" class="st15" d="M30.8,266c-0.1,0.4,0,0.7,0.1,1.1c0.5,1.2,1.9,1.8,3.2,1.4c0.4-0.1,0.7-0.4,1-0.6
								c-0.1,0.8-0.7,1.6-1.6,1.8c-1.3,0.5-2.7-0.2-3.2-1.4C30,267.4,30.2,266.5,30.8,266z"/>
						</g>
					</g>
				</g>
			</g>
		</g>
		<g id="OBJECTS">
			<g id="Group_64">
				<g id="Group_65">
					<g id="Group_66">
						<path id="Vector_102" class="st26" d="M250,711.3c138.1,0,250-104.3,250-233.1S388.1,245.1,250,245.1S0,349.5,0,478.2
							S111.9,711.3,250,711.3z"/>
						<g id="Group_67">
							<g id="Group_68">
								<path id="Vector_103" class="st27" d="M59.3,327.2c4.4-1.6,30.1-3.3,40.6-13.1c2.6-2.5,5.1-5.2,8.3-7
									c3.4-1.9,7.5-2.5,11.2-3.7c5.5-1.8,10.4-4.9,15.7-7.2c19-7.9,41-3.2,61.1,1.6c4.1,1,9.4,3.9,7.6,7.6c-0.8,1.6-2.7,2.5-4,3.8
									c-1.8,1.9-1.7,5,0.2,6.9c-5.8,6.1-19,1.8-19.4-6.3c-9.6,0.4-19.6-1.6-28.6,1.6c-9,3.1-15.6,14.5-8.9,21
									c3.7,3.6,10.3,4.5,12.4,9.1c2.8,6.4-5.6,15.3-0.1,20c9.9-2.7,18-10.3,21.2-19.6c1.8-5.1,4.1-12.2,9.8-11.3
									c1.7,0.3,3.1,1.3,4.5,2.2c7.2,4.4,16.2,5.7,23.5,9.7c7.5,4.1,13,13.4,8.1,20c-3,4-8.8,5.3-13.4,7.7c-4.7,2.4-8.7,8-5.6,12
									c4.1,2.3,9.3,0.1,14.2,0c4.8-0.1,10.2,5.5,6.5,8.2c-2.1,1.6-5.2,0.5-7.8,0.5c-7.2,0.1-11.4,7.6-12.3,14.2
									c-0.9,6.6-0.4,13.8-4.6,19.2c-3.5,4.5-9.6,6.5-14.5,9.6c-4.9,3.1-9.2,9-6.6,14c-2.2-6.9-12.1-8-19.8-7.8
									c-5.3,0.2-10.9,0.5-15.4,3.1c-8.8,5.4-8.7,17.7-5.1,27c3.7,0.6,6.3-3.8,10-4.6c5.1-1,8.2,5.1,8.7,10c0.4,4.8,1,11,5.9,12.6
									c1.8,0.5,3.8,0.4,5.5,1.2c3.7,1.7,3.5,6.9,6.3,9.9c2.7,2.8,7.5,2.7,11.5,2.6c11.4-0.5,22.7-0.1,34,1.3
									c11.2,1.4,17.1,13.6,18.2,24.1c14.8-1.6,33.9-0.5,47,6.2c5.4,15.3-10.6,22.5-13.6,38.3c-0.7,3.8-0.5,7.9-2,11.4
									c-5.3,12.7-27.1,11.7-34.8,23.3c-6.3,9.3-1.2,23.9-10.2,31.1c-4.1,3.3-10.4,3.9-13.8,7.9c-2.6,2.9-3,7-4.2,10.7
									c-2.1,6.4-7.3,11.5-9.6,17.8c-4.1,11.2,2.5,16,0.9,17.5c-1.7,1.6-6.4,0.6-8.4-1.6c-3.8-4.1-4.9-11.8-5.5-17.5
									c-1-8.8-2-17.6-0.6-26.4c1.5-9.3,5.6-18,7.6-27.2c2.1-9.1,1.8-19.6-4.6-26.9c-2.2-2.5-4.9-4.5-6.9-7.1
									c-2.1-2.7-3.1-6.1-4.2-9.3c-1.3-4.1-2.6-8.3-3.9-12.4c-0.9-2.8-1.9-5.8-1.6-8.8c0.6-8,8.7-13.4,14.8-19.2
									c6.1-5.8,10.1-16.2,3.2-21.1c-8.9-4.7-17.8-9.3-26.9-14c-2.1-1.1-4.1-2.2-5.6-3.8c-2.3-2.6-2.5-6.4-4.5-9.2
									c-6.2-9.2-22.9-4.4-31.9-11.4c1.9-12.1-0.9-24.7-7.6-35c-3.5,5.4-4.5,12.2-2.5,18.3c-8-14.5-16.3-29.5-18.4-45.8
									c-0.3-2.2-0.5-4.5-1.9-6.2c-2.6-3.5-8.2-3.5-11.9-6.1c-6.1-4.4-3.7-13.3-5.5-20.2c-2.9-11.8-21.4-17-30.9-8.8
									c-1.4,1.2-2.5,2.6-4.2,3.3c-4,1.8-8.1-1.6-7.6-5.8C28.5,369.3,43.1,342.9,59.3,327.2z"/>
							</g>
							<g id="Group_69">
								<path id="Vector_104" class="st28" d="M208.4,287.5c1.4,2.9,1.8,6.2,1.3,9.3c-0.2,1.2-0.6,2.5-0.3,3.7c0.6,2.3,3,3.5,5,4.8
									c9.2,6.3,9.2,18.9,8.4,29.5c4.2,0,8.2-2.6,9.8-6.2c0.5-1.2,0.8-2.6,1.6-3.7c1.9-2.7,5.8-3.1,9.2-3.5
									c8.6-0.9,17.1-3.6,24.5-7.7c0.9-0.5,1.9-1,2.5-1.8c1-1.4,0.8-3.3,1.6-4.8c2.9-6.4,16.5-1.5,19.4-7.9
									c0.4-0.9,0.5-1.8,0.6-2.7c0.6-5.2,1.2-10.4,1.8-15.6c0.2-1.7,0.3-3.7-0.7-5.1c-1.9-2.5-5.9-1.9-8.6-0.4
									c-2.7,1.6-5,3.9-8,4.8c-4-4.2-10-8.8-15.4-6.1c-1.7,0.8-2.9,2.3-4.5,3.2c-4,2.2-9.3,0.5-13-2.2c-3.7-2.7-6.9-6.1-11.1-8
									c-6.6-2.8-15.2-0.6-19.2,4.9c-2.3,3-3.1,6.9-5.9,9.6c-1,1-2.2,1.9-2.4,3.2c-0.2,1.3,1.7,2.7,2.6,1.7"/>
							</g>
							<g id="Group_70">
								<path id="Vector_105" class="st28" d="M175.4,456.4c-1-1.1-2.6-1.6-4.1-1.1c-1.4,0.5-2.4,2.1-1.9,3.5
									c0.6,1.5,2.4,2.1,3.9,2.6c5.9,1.8,11.7,3.6,17.5,5.4c2-3.2-0.7-7.3-4.1-9c-3.4-1.6-7.5-1.7-11.3-2.7"/>
							</g>
							<g id="Group_71">
								<path id="Vector_106" class="st27" d="M429.9,315.9c-23.5-1-41,7.2-59.4,5.3c2.7-4.3,3.8-9.7,2.9-14.6
									c-16.3,2.6-32.7,5.3-49,8c0,2.6,0,5.3,0,7.8c-2,0.5-4,1.1-6,1.6c0.6,5.6,5.5,10.5,11.5,11.5c9.1-6,21.3-7.9,31.9-5
									c1,4.2-4.3,7-8.5,8.6c-7.8,2.7-15.5,5.4-23.2,8.2c-0.1-3-1.3-5.9-3.2-8.3c-7.4-0.5-14.6,4.8-15.9,11.6
									c-2.7,2.8-8.1,0.4-9.3-3.1c-1.2-3.6,0.3-7.4,1.6-11c1.3-3.6,2.2-7.7,0.1-10.9c-4.8,5-9.7,10.3-11.9,16.7
									c-2.2,6.4-1,14.3,4.9,18.3c-4.4,2.2-1,8.7-2.9,12.9c-1.9,4.2-8,4.6-12.8,6.1c-3.3,1-6.3,2.9-9.3,4.7
									c-4.6,2.8-9.8,6.4-10.5,11.5c-1.2,8,9.9,13.8,18,10.9c8.1-2.8,12.7-10.8,15-18.5c0.4-1.2,0.6-2.5,1.6-3.3
									c1.3-1.3,3.4-1.4,5.3-1.5c7.3-0.2,15.6-0.2,20.7,4.7c6.1,5.7,4.6,15.1,2.8,23c2.6-2,5.1-3.9,7.7-5.8
									c2.6,0.9,4.5,3.2,5.1,5.6c-2.5-6.4-4.9-12.8-7.4-19.2c-1.4-3.6-2.4-8.3,0.8-10.6c3.2-2.3,8.1,0.1,9.9,3.4
									c1.8,3.3,1.6,7.3,2.3,11c0.7,3.9,2.3,7.8,4.8,11c0.8,1.2,2.1,2.3,3.6,1.9c0.8-0.2,1.3-0.8,1.7-1.3c3.1-3.7,3.4-8.7,4.9-13.2
									c1.5-4.5,5.1-9.1,10.1-8.9c5.6,0.3,8.6,6.4,13.7,8.5c7.2,2.9,16.2-2.9,23,0.6c-6.3,5.3-13.6,11-22,10.2
									c-2.8-0.2-5.6-1.2-8.5-1.2c-2.8,0.1-6.1,1.5-6.5,4.2c-0.3,2.3,1.5,4.3,3.2,5.9c6.3,5.8,14.7,9.9,22.4,13.9l-1.7,0.1
									c-6.7,2.3-13.6,4-20.7,5.2c-0.6,0.1-1.3,0.2-1.8-0.1c-1.1-0.6-0.6-2.2-1.3-3.1c-0.8-1.1-2.6-0.9-3.9-0.6
									c-3.8,1-7.5,1.9-11.3,2.9c-3.7,1-7.8,1.9-11.3,0.3c-5.3-2.4-6.2-9.1-6.2-14.6c-9.4,6.1-18.8,12.3-28.2,18.3
									c-1.9,1.2-3.9,2.5-5.2,4.3c-4,5.6,0,12.9,0,19.4c0.2,7.6-4.8,15.6-0.9,22.3c0.5,0.9,1.2,1.8,2.2,2.4c1.3,0.9,3,1.3,4.4,1.8
									c5.1,1.8,9.3,5.6,11.3,10.4l0.5,0.9c4.1,4.7,13.7-0.8,19.3-3.9c5.6-3.1,13-6.5,18.1-2.7c2.1,1.5,3.1,3.9,3.8,6.2
									c3,10.9-1.5,24.3,6.7,32.6c2.6,2.6,6.2,4.3,8.4,7.2c3.5,4.7,2.8,11.5,7,15.6c2.3,2.2,5.9,3.5,6.9,6.4
									c1.1,3.2-1.4,6.7-0.1,9.9c1.4,3.5,7.1,4,10.3,1.5c3.2-2.4,4.3-6.5,4.8-10.2c0.5-3.8,0.6-7.7,2.5-11.1c3.4-6.1,5-16.5,7.4-23
									c1.9-4.9-0.2-10.4,0.9-15.5c1.3-5.6,8.4-12,11.2-17.1c3.1-5.6,8-9.5,8.1-15.8c0-8.4,0.3-9.5,0.3-17.9
									c-6.1,2.8-13.8-0.4-17.7-5.7c-3.8-5.2-4.7-11.9-5-18.1c3.9,3.2,6.4,7.4,9.8,11c3.4,3.6,8.3,6.7,13.4,5.9
									c7.4-1.1,11-8.9,13.1-15.6c-5.3,0.3-10.6-2.4-13.3-6.7c-2.5-4.3-2.3-10,0.8-14.1c11.8,2.2,18.5,14.4,29.7,18.6
									c2.7,1,5.6,1.5,8.1,2.8c6,3.2,8.4,10.1,10.3,16.4c4.4-3.7,8.9-7.3,13.3-11C497.2,443.5,493.2,377.1,429.9,315.9z"/>
							</g>
						</g>
					</g>
					<path id="Vector_107" class="st29" d="M413.2,653.8c-43.8,35.3-100.9,56.6-163.2,56.6C112,710.4,0,606,0,477.3
						c0-53.7,19.4-103.1,52.2-142.5C-26.9,532,172.8,752.6,413.2,653.8z"/>
				</g>
			</g>
			<path id="Vector_108" class="st30" d="M245,400l205.6-61.5c0,0-37.9-52.8-116.7-80.5L245,400z"/>
			<g id="Group_72">
				<path id="Vector_109" class="st31" d="M145.1,231.2l100.2,60.3v108.8L145.1,340V231.2z"/>
				<path id="Vector_110" class="st32" d="M345.4,231.2l-100.1,60.3v108.8L345.4,340V231.2z"/>
				<path id="Vector_111" class="st33" d="M145.1,231.2l102.5-61.3l97.8,61.3l-100.1,60.3L145.1,231.2z"/>
				<g id="Group_73">
					<path id="Vector_112" class="st34" d="M349.5,228.5v24.8l-104.2,63.8v-25.4L349.5,228.5z"/>
					<path id="Vector_113" class="st35" d="M141,228.5L248.2,165l101.3,63.5l-104.2,63L141,228.5z"/>
					<path id="Vector_114" class="st36" d="M141,228.5v24.8l104.3,63.9v-25.5L141,228.5z"/>
				</g>
				<path id="Vector_115" class="st37" d="M145.1,256l100.7,60.9l99.6-61.4v5.8l-100.1,61.6l-100.2-61.7V256z"/>
				<path id="Vector_116" class="st38" d="M221.1,217.8l9.4-5.4l48.3,30.2l-9.4,5.4L221.1,217.8z"/>
				<g id="Group_74" class="st39">
					<path id="Vector_117" class="st40" d="M276.1,244.1l2.7-1.6l-48.3-30.2l-9.4,5.4l2.7,1.7l6.7-3.8L276.1,244.1z"/>
				</g>
				<path id="Vector_118" class="st41" d="M274.1,244.7l75.4-16.2l-41.2-25.9l-76.6,16.2L274.1,244.7z"/>
				<path id="Vector_119" class="st4" d="M228.8,222.5v-62.9l45.3,28v57.7l-4.7,2.7L228.8,222.5z"/>
				<path id="Vector_120" class="st42" d="M274.3,245.2l-45.5-27.7v5l40.6,25.4L274.3,245.2z"/>
				<g id="Group_82" class="st43">
					<path id="Vector_121" class="st44" d="M245.7,188.1c-4.8-0.4-5.6,5.1-5.8,9.3c0.3,0,0.5,0.1,0.8,0.3l2.6,1.3
						c0.2-3.9,0.9-6.7,3.6-6.5c0.7,0.1,1.6,0.3,2.6,0.8c4.9,2.4,5.9,6.5,6,11.6l2.7,1.3c0.2,0.1,0.5,0.3,0.7,0.5
						c-0.1-5.4-1.2-13.4-9.3-17.4C247.9,188.5,246.7,188.1,245.7,188.1z"/>
					<path id="Vector_122" class="st44" d="M237.9,212.9c0.1,1.6,1.2,3.4,2.5,4l4.4,2.2l13.1,6.4c0.3,0.2,0.6,0.2,0.8,0.3
						c0.9,0.1,1.6-0.6,1.8-1.8L237.9,212.9z"/>
					<path id="Vector_123" class="st44" d="M249.8,213.1c-0.2,0-0.3-0.1-0.5-0.2c-0.7-0.4-1.2-1.1-1.2-1.7c0-1.3,0.7-1.5,0.7-2.7
						c0-0.2-0.7-1-0.7-1.8c0-0.5,0.3-0.7,0.6-0.7c0.2,0,0.4,0.1,0.6,0.2c0.7,0.4,1.2,1.1,1.2,1.7c0,0.7-0.6,0.9-0.6,1.2
						c0,1.3,0.6,2.1,0.6,3.4C250.5,212.9,250.2,213.1,249.8,213.1z M239.8,197.5c-1-0.1-1.8,0.7-1.8,2.1l-0.1,12.1l22.6,11.1
						l0.1-11.3v-0.7c0-1.5-0.8-3-1.9-3.9c-0.2-0.2-0.5-0.4-0.7-0.5l-2.7-1.3l-12.2-5.9l-2.6-1.3
						C240.4,197.6,240.1,197.5,239.8,197.5z"/>
				</g>
				<g id="Capa_2_1_">
					<g id="Group_83">
						<g id="Group_84">
							<g id="Group_85">
								<g id="Group_86">
									<g id="Group_87">
										<g id="Group_88">
											<path id="Vector_124" class="st4" d="M183.4,344.3l-0.3,1l0.3,0.2c0.1,0.1,0.1,0.1,0.2,0.1c0.2,0.1,0.5,0,0.6-0.2
												c0.1-0.4-0.1-0.6-0.4-0.9C183.6,344.3,183.5,344.3,183.4,344.3z M176.1,335.5c-0.3-0.2-0.7-0.1-1,0.2
												c-0.6,0.4-0.7,1-0.3,1.6c0.1,0.2,0.3,0.4,0.5,0.5c0.3,0.2,0.6,0.1,1-0.2c0.5-0.4,0.7-1,0.4-1.6
												C176.5,335.8,176.3,335.6,176.1,335.5z M171.8,319.4C171.8,319.4,171.7,319.3,171.8,319.4c-0.8-0.4-1.3-0.2-1.3,0.5
												c0,0.6,0.4,1.2,1.1,1.6c0.7,0.3,1.2,0.2,1.2-0.5C172.9,320.3,172.5,319.7,171.8,319.4z M185.8,349.8
												c-0.3-0.2-0.5-0.6-0.5-1c0-0.4,0.3-0.6,0.6-0.5h0.1c0.3,0.2,0.5,0.5,0.5,0.9v0.1C186.5,349.8,186.2,350,185.8,349.8z
												 M191,351.8c-0.2-0.1-0.4-0.4-0.5-0.7v-0.2c-0.1-0.5,0.1-0.7,0.5-0.7c0.1,0,0.1,0,0.2,0.1c0.2,0.1,0.4,0.4,0.5,0.7v0.1
												c0.1,0.5-0.1,0.7-0.4,0.7C191.2,351.8,191.1,351.8,191,351.8z M187.3,350.6v-4.8l1,0.4v3.8l1.5,0.5v1.1L187.3,350.6z
												 M182.5,347.6l-1-0.7l1.1-4.1c0.4,0.3,0.8,0.5,1.2,0.8c0.5,0.3,0.9,0.7,1.2,1.3c0.2,0.4,0.3,0.8,0.1,1.2
												c-0.1,0.5-0.5,0.6-0.9,0.5c0.2,0.4,0.3,0.7,0.3,1.1c0,0.5,0,1.3,0,1.5l-1-0.7c0-0.4,0-0.8,0-1.2c0-0.5-0.1-0.7-0.4-1
												l-0.1-0.1L182.5,347.6z M177.1,342.2l-0.8-0.9l2.2-3.2l1,1.2l-0.2,1.6c-0.1,0.6-0.2,1.2-0.3,1.7c0.2-0.5,0.5-1,0.9-1.4
												l0.5-0.8l0.8,1l-2.2,3.2l-0.9-1.1l0.2-1.7c0-0.6,0.1-1.3,0.2-1.8c-0.3,0.5-0.6,1-0.9,1.5L177.1,342.2z M175.4,339
												c-0.5-0.2-0.9-0.6-1.3-1.4c-0.8-1.4-0.5-2.7,0.3-3.3c0.4-0.4,1-0.4,1.5-0.1c0.4,0.2,0.8,0.5,1.2,1.1l0.1,0.2
												c0.8,1.5,0.5,2.7-0.2,3.3C176.5,339.2,175.9,339.2,175.4,339z M170.8,329.5l-0.4-1.2l3.6-0.5l0.6,1.8l-0.8,0.5
												c-0.4,0.2-0.8,0.5-1.2,0.6c0.5,0.1,1,0.1,1.4,0.2l1.1,0.2l0.6,1.7l-3.5,1l-0.4-1.3l1.3-0.3c0.4-0.1,0.9-0.2,1.4-0.3
												c-0.5-0.1-1-0.2-1.5-0.3l-1.4-0.3l-0.4-1l1.1-0.6c0.4-0.3,0.8-0.5,1.3-0.6c-0.5,0.1-1,0.2-1.5,0.2H170.8z M171.1,325.5
												c0.2,0.1,0.3-0.2,0.4-0.7c0.1-0.8,0.4-1.3,1-1.2c0.1,0,0.2,0,0.3,0.1c0.6,0.3,1,1,1.2,2.1c0.1,0.5,0.1,0.9,0,1.4
												l-0.8-0.4c0.1-0.4,0.1-0.6,0-1.1c0-0.4-0.2-0.6-0.3-0.6c0,0,0,0-0.1,0c-0.2,0-0.2,0.2-0.3,0.8c-0.1,0.9-0.5,1.2-1,1.1
												c-0.1,0-0.2-0.1-0.3-0.1c-0.5-0.3-1-1-1.2-2.3c-0.1-0.5-0.1-1,0-1.5l0.9,0.4c-0.1,0.4-0.1,0.8-0.1,1.3
												C170.7,325.2,170.9,325.4,171.1,325.5z M171.5,322.7c-1.2-0.5-1.9-1.8-1.8-3.3c0.1-1.5,1-1.9,2.1-1.4
												c0.1,0,0.1,0,0.2,0.1c1,0.5,1.8,1.8,1.8,3v0.2C173.6,322.8,172.6,323.1,171.5,322.7z M171,316.7l-0.9-0.5
												c0-0.5,0-0.8,0.1-1.2c0.3-1.3,1.1-1.6,2-1.2c0.2,0.1,0.3,0.2,0.5,0.3c1.3,1,1.7,2.6,1.4,3.8c-0.1,0.4-0.2,0.7-0.4,0.9
												l-0.7-0.8c0.2-0.2,0.3-0.4,0.3-0.6c0.2-0.6-0.1-1.5-0.6-1.9l-0.1-0.1c-0.1-0.1-0.2-0.2-0.3-0.2c-0.4-0.2-0.9-0.1-1,0.5
												c0,0.1,0,0.2-0.1,0.3C171,316.2,171,316.5,171,316.7z M189.5,305.1c-0.6-0.3-1-1.1-1-1.8c0.1-0.7,0.6-1,1.2-0.7h0.1
												c0.8,0.4,1.7,1.4,2.9,1.9c1.2,0.5,2.1,0.5,2.9,0.8c0.8,0.4,1.1,1.1,1.1,1.8c-0.1,0.7-0.6,1-1.2,0.7
												c-0.9-0.5-1.3-1-2.2-1.6l-0.3,3.6l0.7,0.4v0.6l0.3,0.2l-0.1,0.9c0.2,0.1,0.4,0.5,0.4,0.7l-0.1,1.6c0,0.3,0,0.5,0.2,0.8
												c0.2,0.5,1.1,1,1.4,1.4c0.2,0.2,0.4,0.4,0.5,0.5c2.4,2.7,3.4,4.8,3.8,7.4l0.9,0.2c0.1,0.1,0.2,0.2,0.2,0.4l0.1,1.6
												c0,0.6-0.3,1-0.8,0.9l-0.3-0.1l0.3,4.3c0,0.4-0.2,0.6-0.5,0.5l-0.4-0.1c0.7,1.5,3.5,7.8,3.2,12.7
												c-0.2,2.9-2.2,4.5-4.5,3.4c-2.3-1.1-3.9-4.4-3.7-7.3c0.3-4.8,3.7-8.1,4.6-9l-0.6-0.2h-0.1c-0.2-0.1-0.4-0.5-0.5-0.7V331
												l-0.3-4.3l-0.5-0.1c-0.1,0-0.1,0-0.2-0.1c-0.4-0.2-0.8-0.7-0.8-1.4l-0.2-1.6c0-0.2,0.1-0.3,0.2-0.3l0.8,0.2
												c-0.3-1.1-1-2-1.8-2.6h-0.1c-0.1-0.1-0.2-0.1-0.4-0.1c-0.6-0.1-1.3-0.1-2-0.3c-0.6-0.1-1.1-0.3-1.7-0.5
												c0,0-2.8-1.6-4.8-2.6c-0.3-0.1-0.5-0.3-0.8-0.4c-1.1-0.5-2.1-0.8-3.2-1.1c-0.1-0.1-0.3-0.1-0.4-0.1l-0.5,0.1
												c0,0,0,0-0.1,0c-0.1-0.1-0.2-0.2-0.2-0.3v-0.2l-2.5-1.5l0.4-6.1l2.5,0.9v-0.2c0-0.2,0.1-0.2,0.2-0.1c0,0,0,0,0.1,0.1
												c0.3,0.5,0.7,0.8,1.2,1c1,0.6,1.9,1.3,2.9,1.8c0.9,0.5,2.9,1.1,2.9,1.1l0.9,0.3l0.2-2.4c0-0.3,0.2-0.4,0.4-0.3l0.1-0.9
												l0.3,0.2v-0.6l0.7,0.4l0.3-3.6C190.9,305.4,190.4,305.6,189.5,305.1C189.6,305.1,189.5,305.1,189.5,305.1z M190.6,297.5
												c-13.6-6.5-25.5,1.7-26.7,18.4c-1.2,16.5,8.9,35.3,22.5,41.7c13.6,6.5,25.5-1.7,26.7-18.4
												C214.2,322.5,204.2,303.9,190.6,297.5z"/>
											<path id="Vector_125" class="st45" d="M172.2,313.9c-0.8-0.4-1.6-0.2-2,1.2c-0.1,0.4-0.1,0.8-0.1,1.2l0.9,0.5
												c0-0.3,0-0.5,0.1-0.8c0-0.1,0-0.2,0.1-0.3c0.2-0.5,0.6-0.6,1-0.5c0.1,0.1,0.2,0.1,0.3,0.2l0.1,0.1
												c0.6,0.5,0.8,1.4,0.6,1.9c-0.1,0.3-0.2,0.5-0.3,0.6l0.7,0.8c0.2-0.3,0.4-0.5,0.4-0.9c0.3-1.3-0.1-2.8-1.4-3.8
												C172.5,314.1,172.4,314,172.2,313.9z"/>
											<path id="Vector_126" class="st45" d="M171.6,321.3c-0.7-0.3-1.1-0.8-1.1-1.6c0-0.6,0.5-0.8,1.2-0.5h0.1
												c0.7,0.4,1.1,0.9,1,1.6C172.8,321.5,172.3,321.7,171.6,321.3z M171.9,318.1c-0.1,0-0.1-0.1-0.2-0.1
												c-1.1-0.5-2-0.1-2.1,1.4c-0.1,1.5,0.6,2.7,1.8,3.3h0.1c1,0.5,2,0.1,2.1-1.4v-0.2C173.7,319.9,172.9,318.6,171.9,318.1z"
												/>
											<path id="Vector_127" class="st45" d="M172.7,323.7c-0.1-0.1-0.2-0.1-0.3-0.1c-0.6-0.1-0.8,0.4-1,1.2
												c0,0.5-0.1,0.8-0.3,0.7c0,0,0,0-0.1,0c-0.2-0.1-0.3-0.4-0.4-0.7c-0.1-0.5,0-0.9,0.1-1.3l-0.9-0.4c-0.1,0.5-0.1,0.9,0,1.5
												c0.2,1.3,0.6,2,1.2,2.3c0.1,0.1,0.2,0.1,0.3,0.1c0.5,0.1,0.9-0.3,1-1.1c0.1-0.6,0.1-0.8,0.3-0.8c0,0,0,0,0.1,0
												c0.2,0.1,0.3,0.3,0.3,0.6c0.1,0.4,0,0.7,0,1.1l0.8,0.4c0.1-0.5,0.1-0.9,0-1.4C173.7,324.7,173.3,324,172.7,323.7z"/>
											<path id="Vector_128" class="st45" d="M174,327.9l-3.6,0.5l0.4,1.2l1.3-0.2c0.4,0,1-0.1,1.5-0.2
												c-0.4,0.2-0.9,0.4-1.3,0.6l-1.1,0.6l0.4,1l1.4,0.3c0.5,0.1,1,0.2,1.5,0.3c-0.5,0.1-1,0.2-1.4,0.3l-1.3,0.3l0.4,1.3l3.5-1
												l-0.6-1.7l-1.1-0.2c-0.4-0.1-0.9-0.1-1.4-0.2c0.4-0.2,0.8-0.5,1.2-0.6l0.8-0.5L174,327.9z"/>
											<path id="Vector_129" class="st45" d="M175.2,337.8c-0.2-0.1-0.3-0.3-0.5-0.5c-0.3-0.5-0.2-1.2,0.3-1.6
												c0.3-0.3,0.7-0.3,1-0.2c0.2,0.1,0.3,0.3,0.4,0.5c0.3,0.6,0.1,1.2-0.4,1.6C175.9,337.9,175.5,337.9,175.2,337.8z
												 M175.9,334.3c-0.5-0.3-1.1-0.3-1.5,0.1c-0.8,0.6-1,1.9-0.3,3.3c0.4,0.6,0.8,1.1,1.3,1.4c0.5,0.3,1,0.2,1.5-0.2
												c0.8-0.5,1-1.8,0.2-3.3l-0.1-0.2C176.7,334.8,176.3,334.5,175.9,334.3z"/>
											<path id="Vector_130" class="st45" d="M178.5,338l-2.2,3.2l0.8,0.9l0.5-0.7c0.3-0.5,0.7-1,0.9-1.5
												c-0.1,0.6-0.2,1.2-0.2,1.8l-0.2,1.7l0.9,1.1l2.2-3.2l-0.8-1l-0.5,0.8c-0.3,0.5-0.6,0.9-0.9,1.4c0.1-0.5,0.2-1.1,0.3-1.7
												l0.2-1.6L178.5,338z"/>
											<path id="Vector_131" class="st45" d="M183.5,345.5c-0.1,0-0.1-0.1-0.2-0.1l-0.3-0.2l0.3-1c0.1,0.1,0.2,0.1,0.3,0.2
												c0.3,0.3,0.5,0.5,0.4,0.9C184,345.5,183.8,345.6,183.5,345.5z M182.6,342.7l-1.1,4.1l1,0.7l0.4-1.6l0.1,0.1
												c0.3,0.3,0.4,0.5,0.4,1c0,0.4,0,0.7,0,1.2l1,0.7c0-0.2,0-0.9,0-1.5c0-0.4,0-0.7-0.3-1.1c0.4,0.1,0.8-0.1,0.9-0.5
												c0.1-0.3,0.1-0.8-0.1-1.2c-0.3-0.5-0.7-1-1.2-1.3C183.4,343.2,183,343,182.6,342.7z"/>
											<path id="Vector_132" class="st45" d="M186,348.4c-0.4-0.2-0.7,0-0.7,0.5c0,0.4,0.2,0.8,0.5,1h0.1
												c0.3,0.2,0.6-0.1,0.6-0.5v-0.1C186.5,348.9,186.3,348.6,186,348.4z"/>
											<path id="Vector_133" class="st45" d="M188.3,346l-1.1-0.4l0.1,4.9l2.5,0.8v-1.1l-1.5-0.5V346z"/>
											<path id="Vector_134" class="st45" d="M191.1,350.2c-0.1,0-0.1,0-0.2-0.1c-0.3,0-0.5,0.3-0.5,0.7v0.2
												c0.1,0.4,0.3,0.6,0.5,0.7c0.1,0,0.1,0.1,0.2,0.1c0.3,0,0.5-0.4,0.4-0.7V351C191.6,350.6,191.4,350.3,191.1,350.2z"/>
											<path id="Vector_135" class="st46" d="M198.6,347.6c-2-0.9-3.4-3.7-3.2-6c0.2-2.4,1.9-3.6,3.9-2.6s3.4,3.7,3.3,6
												C202.3,347.4,200.5,348.6,198.6,347.6z M199.8,332.3l-0.4-0.1c-0.9,0.8-4.3,4.1-4.6,9c-0.2,2.9,1.5,6.2,3.7,7.3
												c2.3,1.1,4.3-0.5,4.5-3.4C203.3,340,200.5,333.7,199.8,332.3z"/>
											<path id="Vector_136" class="st47" d="M189.7,302.6c-0.6-0.3-1.1,0-1.2,0.7c0,0.7,0.4,1.6,1,1.8h0.1
												c0.8,0.4,1.4,0.2,2.3,0.5l-0.3,3.6l-0.7-0.4v0.6l-0.3-0.2l-0.1,0.9c-0.2-0.1-0.4,0-0.4,0.3l-0.2,2.4l-0.9-0.3
												c0,0-2-0.7-2.9-1.1c-1-0.5-1.9-1.1-2.9-1.8c-0.4-0.3-0.8-0.5-1.2-1c0,0,0,0-0.1-0.1c-0.1-0.1-0.2,0-0.2,0.1v0.2l-2.5-0.9
												l-0.4,6.1l2.5,1.5v0.2c0,0.2,0.1,0.3,0.2,0.3c0,0,0,0,0.1,0l0.5-0.1c0.1,0,0.3,0,0.4,0.1c1.1,0.3,2.1,0.6,3.2,1.1
												c0.2,0.1,0.5,0.2,0.8,0.4c2,0.9,4.8,2.6,4.8,2.6c0.6,0.3,1.2,0.4,1.7,0.5c0.7,0.2,1.3,0.2,2,0.3c0.1,0,0.2,0.1,0.4,0.1
												h0.1c0.8,0.5,1.5,1.5,1.8,2.6l-0.8-0.2c-0.1,0-0.2,0.1-0.2,0.3l0.2,1.6c0.1,0.5,0.4,1.1,0.8,1.4c0.1,0,0.1,0.1,0.2,0.1
												l0.5,0.1l0.3,4.3v0.1c0,0.4,0.2,0.6,0.5,0.7h0.1l0.6,0.2l0.4,0.1l0.4,0.1c0.3,0.1,0.5-0.2,0.5-0.5l-0.3-4.3l0.3,0.1
												c0.5,0.1,0.8-0.3,0.8-0.9l-0.1-1.6c0-0.2-0.1-0.3-0.2-0.4l-0.9-0.2c-0.4-2.6-1.4-4.7-3.8-7.4c-0.2-0.2-0.3-0.4-0.5-0.5
												c-0.4-0.4-1.2-0.8-1.4-1.4c-0.1-0.3-0.2-0.5-0.2-0.8l0.1-1.6c0-0.3-0.1-0.5-0.4-0.7l0.1-0.9l-0.3-0.2v-0.6l-0.7-0.4
												l0.3-3.6c0.9,0.6,1.3,1.2,2.2,1.6c0.6,0.3,1.1,0,1.2-0.7c0.1-0.7-0.3-1.5-1.1-1.8c-0.8-0.4-1.7-0.3-2.9-0.8
												C191.8,303.9,190.5,303,189.7,302.6C189.7,302.7,189.7,302.7,189.7,302.6z"/>
											<path id="Vector_137" class="st4" d="M199.1,339.8c-1.6-0.7-3,0.2-3.1,2.2c-0.1,1.1,0.3,2.4,0.9,3.4l0.1-1.8l-1-0.5
												l0.8-1.4l0.7-1.4l0.5,2l0.5,2l-0.9-0.5l-0.2,2.3c0.3,0.3,0.7,0.5,1.1,0.7c0.4,0.2,0.8,0.3,1.1,0.3l0.2-2.3l-0.9-0.5
												l0.7-1.5l0.7-1.4l0.5,2l0.5,2l-1-0.5l-0.1,1.7c0.7-0.4,1.2-1.1,1.3-2.3C201.9,342.7,200.7,340.5,199.1,339.8z"/>
											<path id="Vector_138" class="st45" d="M196.9,345.3c-0.6-1-1-2.2-0.9-3.4c0.1-1.9,1.5-2.9,3.1-2.2
												c1.6,0.7,2.8,2.9,2.6,4.9c-0.1,1.1-0.6,1.9-1.3,2.3l-0.1,0.8l-0.7-0.4v-0.3c-0.4,0-0.7-0.1-1.1-0.3
												c-0.4-0.2-0.7-0.5-1.1-0.7v0.3l-0.7-0.4L196.9,345.3z M199.2,339c-2-0.9-3.7,0.3-3.9,2.6c-0.2,2.4,1.3,5.1,3.2,6
												c2,0.9,3.7-0.3,3.9-2.7C202.6,342.6,201.1,339.9,199.2,339z"/>
											<path id="Vector_139" class="st45" d="M200.6,345.2l-0.4-0.2l-0.3-0.2l-0.2,2.3v0.3l0.7,0.4l0.1-0.8L200.6,345.2z"/>
											<path id="Vector_140" class="st45" d="M200.5,341.6l-0.8,1.4l-0.7,1.4l0.9,0.5l0.3,0.2l0.4,0.2l0.9,0.5l-0.5-2.1
												L200.5,341.6z"/>
											<path id="Vector_141" class="st45" d="M197.7,343.8l-0.3-0.2l-0.3-0.2l-0.2,1.8v0.7l0.7,0.4v-0.3L197.7,343.8z"/>
											<path id="Vector_142" class="st45" d="M197.6,340.2l-0.7,1.4l-0.8,1.4l1,0.5l0.3,0.2l0.3,0.2l1,0.5l-0.6-2.1L197.6,340.2
												z"/>
										</g>
									</g>
								</g>
							</g>
						</g>
					</g>
				</g>
			</g>
			<g id="Group_89">
				<path id="Vector_143" class="st48" d="M221,160.4c-0.1,0-0.3,0-0.4-0.1l-14-6.4c-0.5-0.2-0.7-0.7-0.4-1.2
					c0.2-0.5,0.8-0.6,1.3-0.4l14,6.4c0.5,0.2,0.7,0.7,0.4,1.2C221.7,160.2,221.4,160.4,221,160.4z"/>
				<path id="Vector_144" class="st48" d="M228,153.1c-0.4,0-0.8-0.3-1-0.6l-4-12.8c-0.2-0.5,0.2-1,0.7-1.1c0.5-0.2,1.1,0.2,1.2,0.6
					l4,12.8c0.2,0.5-0.2,1-0.7,1.1C228.2,153.1,228.1,153.1,228,153.1z"/>
				<path id="Vector_145" class="st48" d="M239,154.9c-0.2,0-0.4-0.1-0.6-0.2c-0.4-0.3-0.5-0.9-0.2-1.3l9-11c0.3-0.4,1-0.5,1.4-0.2
					c0.4,0.3,0.5,0.9,0.2,1.3l-9,11C239.6,154.8,239.3,154.9,239,154.9z"/>
			</g>
		</g>
	</g>
</g>
</svg>
