<svg xmlns="http://www.w3.org/2000/svg" viewBox="0 0 132.8 132.8"><defs><style>.cls-1,.cls-5{fill:#fff;}.cls-2{fill:#009245;}.cls-3{fill:#019cde;}.cls-4{fill:#c19b21;}.cls-5,.cls-6{stroke:#009245;stroke-miterlimit:10;}.cls-6{fill:none;}</style></defs><g id="Capa_2" data-name="Capa 2"><g id="Capa_1-2" data-name="Capa 1"><g id="OBJECTS"><g id="logo"><circle class="cls-1" cx="66.4" cy="66.4" r="66.4"/><path class="cls-2" d="M16.2,61.3a8.6,8.6,0,0,1,.1-2.7c.8-3.8,3.5-5,6.3-4.4,3.6.8,4.9,3.8,4.3,6.8a6,6,0,0,1-1,2.5l-2-1a5.07,5.07,0,0,0,.8-1.8,2.87,2.87,0,0,0-2.4-3.6,2.79,2.79,0,0,0-3.6,2.4,6.37,6.37,0,0,0-.1,1.9Z"/><path class="cls-2" d="M21.2,73.5c-3.4.1-5.5-1.9-5.6-5.1s2.3-5.1,5.2-5.1a5.18,5.18,0,0,1,5.6,5.1C26.5,71.7,24,73.4,21.2,73.5Zm-.3-7.3c-2,0-3.2.9-3.1,2.3s1.4,2.1,3.2,2.1,3.1-.9,3.1-2.2S22.9,66.1,20.9,66.2Z"/><path class="cls-2" d="M19.2,76.1a6.75,6.75,0,0,0,.1,2.8c.2.9.7,1.3,1.2,1.2s.7-.7.7-1.9c.2-1.9.8-3.2,2.3-3.6,1.8-.5,3.6.7,4.2,3.2a7.56,7.56,0,0,1,.2,2.9H25.6a4.62,4.62,0,0,0-.1-2.3c-.2-.8-.6-1.2-1.1-1.1s-.6.7-.7,2.1c-.2,2-1,3.1-2.4,3.4-1.8.5-3.6-.5-4.4-3.5a8.79,8.79,0,0,1-.2-3.1Z"/><path class="cls-2" d="M26.9,92.6q1.5-.9,3.6-2.1h0a40.36,40.36,0,0,1-4.1,1l-3.7.9-1.1-1.9L24.3,88a32.08,32.08,0,0,1,3.2-2.7h0c-1.3.7-2.7,1.4-3.8,1.9l-3.3,1.7-1.3-2.2,9.4-4.6,1.8,3.3-2.1,2c-.9.8-1.9,1.8-2.9,2.6h0c1.3-.4,2.7-.8,3.8-1.1l2.8-.7,1.8,3.2L24.8,97l-1.3-2.4Z"/><path class="cls-2" d="M38.2,102.7c-2.3,2.4-5.3,2.5-7.6.3s-1.9-5.2.1-7.3a5.09,5.09,0,0,1,7.5-.3C40.6,97.7,40.1,100.7,38.2,102.7Zm-5.4-5c-1.4,1.4-1.6,2.9-.6,3.8s2.5.6,3.8-.8,1.6-2.8.7-3.8S34.2,96.3,32.8,97.7Z"/><path class="cls-2" d="M37.1,108.4l5.1-9.1,2.9,1.6-.1,3.6a28.51,28.51,0,0,1-.4,4h0a24,24,0,0,1,2-3.9l1.2-2.2,2.2,1.3-5.1,9.1-2.6-1.5.2-3.9a30.75,30.75,0,0,1,.3-4.2h0c-.6,1.3-1.4,2.7-2.2,4.1l-1.3,2.2Z"/><path class="cls-2" d="M53.7,105.2a18.47,18.47,0,0,1,3.4.5,6,6,0,0,1,3.3,1.5,2.25,2.25,0,0,1,.5,2.4,2.73,2.73,0,0,1-2.3,2.1v.1a2.45,2.45,0,0,1,.9,2.1c.1,1.1.1,2.7.2,3.1l-2.8-.6a10.7,10.7,0,0,1-.2-2.5c0-1.3-.3-1.6-1.2-1.8l-.4-.1-.8,3.8-2.7-.6Zm1.8,4.8.7.1a1.48,1.48,0,0,0,1.9-.9c.2-.8-.3-1.3-1.2-1.5a4.4,4.4,0,0,0-.9-.1Z"/><path class="cls-2" d="M61.9,115.5a1.55,1.55,0,0,1,1.7-1.6,1.48,1.48,0,0,1,1.5,1.7,1.55,1.55,0,0,1-1.7,1.6A1.65,1.65,0,0,1,61.9,115.5Z"/><path class="cls-2" d="M66.4,106.7l2.8-.3.8,8.1,4-.4.2,2.3-6.8.7Z"/><path class="cls-2" d="M75.9,114.5a1.62,1.62,0,0,1,1.1-2,1.47,1.47,0,0,1,1.9,1.2,1.56,1.56,0,1,1-3,.8Z"/><path class="cls-3" d="M107.5,89.4c0,6.5-5,11.8-11.1,11.8S85.3,95.9,85.3,89.4c0-12.4,11.1-24.5,11.1-24.5S107.5,76.9,107.5,89.4Z"/><path class="cls-4" d="M98,54.5l-.7.1L99,63.5a1.41,1.41,0,0,1-1.2,1.7l-3.7.7a1.41,1.41,0,0,1-1.7-1.2l-1.7-8.9-1.4.3a2.52,2.52,0,0,1-3-2l-.7-3.4a.59.59,0,0,1,.5-.7l2.2-.4a7.19,7.19,0,0,0-5.2-3.7h0a4.87,4.87,0,0,0-1.2.1c-1.7.4-3.3,1-5.2,1.4a22.11,22.11,0,0,1-4.6.7s-9.8-.7-15.1-.5a53.29,53.29,0,0,0-8.5.9,2.28,2.28,0,0,0-1.1.3l-1.3.7a.64.64,0,0,1-.8-.5v-.3l-6.8-.6V34.6l6.8-.6v-.3c0-.4.4-.6.8-.5a7.48,7.48,0,0,0,3.2,1,73.7,73.7,0,0,0,7.9.9c2.4,0,7.7-.5,7.7-.5l2.4-.3V29.1A1.11,1.11,0,0,1,68.4,28h.1V25.9h.8V24.4h1.9V16.5c-2.5.3-4,1.2-6.1,1.2a3,3,0,0,1-3.2-2.8,3,3,0,0,1,3.2-2.8c2.1,0,4.6,1.2,8,1.2s5.7-1.2,7.8-1.2,3.2,1.2,3.2,2.8a3.1,3.1,0,0,1-3.2,2.8c-2.5,0-3.7-.8-6.1-1.2v7.9h1.9v1.5h.8V28h.1a1.11,1.11,0,0,1,1.1,1.1v3.6a2.16,2.16,0,0,0,.6,1.6c.7.9,3,1.1,4,1.5a6.89,6.89,0,0,1,1.5.7h.1c6.8,3.4,9.7,6.8,11.3,11.9l2.4-.5a.59.59,0,0,1,.7.5l.7,3.4A2.33,2.33,0,0,1,98,54.5Z"/><circle class="cls-5" cx="96.4" cy="89.8" r="8.7"/><line class="cls-6" x1="100.3" y1="88" x2="100.3" y2="97.7"/><polygon class="cls-2" points="100.3 84.5 102.1 88.2 103.8 92 100.3 92 96.9 92 98.6 88.2 100.3 84.5"/><line class="cls-6" x1="92.6" y1="88" x2="92.6" y2="97.7"/><polygon class="cls-2" points="92.6 84.5 94.3 88.2 96 92 92.6 92 89.1 92 90.9 88.2 92.6 84.5"/></g></g></g></g></svg>